/* XPM */
static char *left[] = {
/* width height num_colors chars_per_pixel */
"    53    54      254            2",
/* colors */
".. c #040204",
".# c #0c86b4",
".a c #8c0a6c",
".b c #064561",
".c c #470339",
".d c #092545",
".e c #86838c",
".f c #4a454a",
".g c #441a6c",
".h c #110e57",
".i c #482814",
".j c #89cbe7",
".k c #072662",
".l c #166784",
".m c #18cad0",
".n c #ece090",
".o c #3c4254",
".p c #4a5597",
".q c #874817",
".r c #661132",
".s c #2b0d41",
".t c #282865",
".u c #478a97",
".v c #47183f",
".w c #faf880",
".x c #33044c",
".y c #692421",
".z c #26262a",
".A c #0a3462",
".B c #4cc7cf",
".C c #104c90",
".D c #cc04c0",
".E c #c48234",
".F c #081628",
".G c #44628c",
".H c #663716",
".I c #576c9f",
".J c #09556f",
".K c #1c62bc",
".L c #1ca2ac",
".M c #49084f",
".N c #27489e",
".O c #ec4e44",
".P c #8fa3b8",
".Q c #121b58",
".R c #26141a",
".S c #c5c9db",
".T c #44acbc",
".U c #29657b",
".V c #dce8e8",
".W c #742520",
".X c #e4caf4",
".Y c #17355f",
".Z c #581430",
".0 c #2a334a",
".1 c #190b1d",
".2 c #570933",
".3 c #32144e",
".4 c #ece6c4",
".5 c #154a74",
".6 c #94eff2",
".7 c #29356a",
".8 c #20154f",
".9 c #d8dbe7",
"#. c #7c421c",
"## c #10e8f8",
"#a c #49e6f7",
"#b c #a7a8b3",
"#c c #9c028c",
"#d c #113754",
"#e c #555862",
"#f c #c42a5c",
"#g c #08486e",
"#h c #275b74",
"#i c #7988aa",
"#j c #7456cc",
"#k c #e947e9",
"#l c #fcfabc",
"#m c #048ee4",
"#n c #56619e",
"#o c #4c7cd8",
"#p c #24769c",
"#q c #571b34",
"#r c #2a3b86",
"#s c #182c5f",
"#t c #26244e",
"#u c #16161e",
"#v c #716c77",
"#w c #34a6bc",
"#x c #2a1644",
"#y c #0a0c13",
"#z c #1b2750",
"#A c #cdd0dd",
"#B c #2589a4",
"#C c #470c3b",
"#D c #503284",
"#E c #671c26",
"#F c #380b42",
"#G c #692d28",
"#H c #073c60",
"#I c #64e2e4",
"#J c #aab4c6",
"#K c #9854e8",
"#L c #6873a8",
"#M c #376a81",
"#N c #772b21",
"#O c #a9f9f9",
"#P c #221c4e",
"#Q c #2ce4e8",
"#R c #842a3c",
"#S c #49224f",
"#T c #195671",
"#U c #2854b0",
"#V c #183a78",
"#W c #341e84",
"#X c #282c42",
"#Y c #18183b",
"#Z c #847684",
"#0 c #5094ec",
"#1 c #2f1c4f",
"#2 c #de26e8",
"#3 c #2195b8",
"#4 c #741e21",
"#5 c #494879",
"#6 c #0867a5",
"#7 c #ac491c",
"#8 c #370d50",
"#9 c #eaebf0",
"a. c #383c67",
"a# c #c4aafc",
"aa c #d8b648",
"ab c #9422dc",
"ac c #c462e4",
"ad c #f96b31",
"ae c #f909f9",
"af c #b812d0",
"ag c #b48ae4",
"ah c #640e84",
"ai c #ec62ec",
"aj c #fc3e74",
"ak c #fc9ebc",
"al c #30c8ec",
"am c #fc862c",
"an c #396bc4",
"ao c #b9c4da",
"ap c #08baec",
"aq c #24b6c4",
"ar c #d41efc",
"as c #89391f",
"at c #6f73df",
"au c #8432cc",
"av c #7422b0",
"aw c #443eb4",
"ax c #f05838",
"ay c #6c5a6c",
"az c #fc26fc",
"aA c #949298",
"aB c #0e77cc",
"aC c #ebdff0",
"aD c #fc6c84",
"aE c #4698b0",
"aF c #8716a4",
"aG c #44b0f0",
"aH c #fc7ac4",
"aI c #6af9fa",
"aJ c #ac225c",
"aK c #64c7e8",
"aL c #2890f8",
"aM c #fcba3c",
"aN c #045992",
"aO c #b4dafc",
"aP c #04d2dc",
"aQ c #4a798b",
"aR c #cafcfc",
"aS c #18a8fc",
"aT c #777a86",
"aU c #ac3ed4",
"aV c #88b8c4",
"aW c #30bafc",
"aX c #1cf8f9",
"aY c #4c5adc",
"aZ c #5eaebc",
"a0 c #6032b4",
"a1 c #e03ae0",
"a2 c #f9aef1",
"a3 c None",
"a4 c #24a6f4",
"a5 c #a43c44",
"a6 c #33f9fb",
"a7 c #294a7c",
"a8 c #495587",
"a9 c #fc886c",
"b. c #f418f4",
"b# c #44314c",
"ba c #5c7e9c",
"bb c #50f7f9",
"bc c #394990",
"bd c #fc46cc",
"be c #7c94c4",
"bf c #247ef4",
"bg c #ac1674",
"bh c #3c7eec",
"bi c #cc2aa4",
"bj c #592e21",
"bk c #98ced4",
"bl c #974627",
"bm c #fcfab4",
"bn c #f437f1",
"bo c #90fbfc",
"bp c #fcc6c4",
"bq c #74065c",
"br c #fc4274",
"bs c #383945",
"bt c #393a8f",
"bu c #5c4274",
"bv c #972a4c",
"bw c #1c56b4",
"bx c #0898c8",
"by c #0775a9",
"bz c #fc32ac",
"bA c #4c3d7a",
"bB c #570559",
"bC c #3c5680",
"bD c #3c7586",
"bE c #b9bac8",
"bF c #3c5ebc",
"bG c #7c0674",
"bH c #5c9aa4",
"bI c #38467e",
"bJ c #552338",
"bK c #1abcf2",
"bL c #f779f7",
"bM c #2c8ac0",
"bN c #b4523c",
"bO c #9499b4",
"bP c #0cc6fc",
"bQ c #3c220c",
"bR c #753524",
"bS c #391911",
"bT c #39b6cf",
"bU c #17dae7",
"bV c #22074f",
"bW c #568494",
"bX c #344ebc",
"bY c #f94af4",
"bZ c #361444",
"b0 c #b8f4f6",
"b1 c #78fafc",
"b2 c #5c0e6c",
"b3 c #60b8d0",
"b4 c #5caedc",
"b5 c #7ce6f4",
"b6 c #737dab",
"b7 c #494d54",
/* pixels */
"a3a3a3a3a3a3a3a3a3a3a3a3a3a3a3a3a3a3a3a3#9bEaTb7.z#u....#y#u.zb7.ebE#9a3a3a3a3a3a3a3a3a3a3a3a3a3a3a3a3a3a3",
"a3a3a3a3a3a3a3a3a3a3a3a3a3a3a3a3a3a3aAbs............................#ybs#9a3a3a3a3a3a3a3a3a3a3a3a3a3a3a3a3",
"a3a3a3a3a3a3a3a3a3a3a3a3a3a3a3a3#A.f....................................#y#e#Aa3a3a3a3a3a3a3a3a3a3a3a3a3a3",
"a3a3a3a3a3a3a3a3a3a3a3a3a3a3#A.f..............................................b7.9a3a3a3a3a3a3a3a3a3a3a3a3",
"a3a3a3a3a3a3a3a3a3a3a3a3a3ay#y...............F#t.0bIbIbIbI.7#X#z#y................aTa3a3a3a3a3a3a3a3a3a3a3",
"a3a3a3a3a3a3a3a3a3a3a3.S#u.............1#ta8#n#n#n#n.p.p.p.pbc.pbcbI.7.F.............z#Aa3a3a3a3a3a3a3a3a3",
"a3a3a3a3a3a3a3a3a3a3aA..............#G.y.Z#S#n#n#n#n#n#n.p#n.p.p.pbcbcbc#z............#y#ba3a3a3a3a3a3a3a3",
"a3a3a3a3a3a3a3a3a3#v............bS#N.W.y.y#q.ZbA#n#n.I#n#n#n#n.p.p.p.p.pbc#r#Y............a3a3a3a3a3a3a3a3",
"a3a3a3a3a3a3a3a3a3..........#y.Z.y.W#G#E#E.y#E.Z.vbA#n#n.I#n#n#n#n.p.pbcbcbcbc.7#y........aTa3a3a3a3a3a3a3",
"a3a3a3a3a3a3a3.e........a.b6b6b6bJ.Z#4.W#N#N.W#E.y.r.Z.c.vbA#n.I#n#n#n#n.p.pbcbcbc#r#z........#ba3a3a3a3a3",
"a3a3a3a3a3a3bE.........1#ta8b6b6bu.2#E#E.W.W.W#4#4#E#E.Z#C#CbZ#Da8.I#n#n.p.p.pbcbcbc#r#z........#Aa3a3a3a3",
"a3a3a3a3a3#9.1.......1.x.8.8#sbC.v#C.Z.Z#E.W#4#4.W.y#E#E.y#q#C#C#C.g#5#n#n.p.p.p.pbcbc#r#z.......za3a3a3a3",
"a3a3a3a3a3.f.......1.c.x#8.s#8.s.c.c.2.2.r.r#E#4#E#E.r.y.y.y.Z#q#q#C#CbZ#n#n.p.pbc.pbIbc#r........aTa3a3a3",
"a3a3a3a3bE.........c.x#F.s#F.x.c.c.c.2.2.2.2.2.Z.2.2.Z.W.W.y.y#E.y#q.Z#C.3#5#n.p.p.pbcbcbI#y.........9a3a3",
"a3a3a3a3bs........#F#F#1#F#F#F.c.c.c.c.c.c.2.c.2.c.c.2#E#4.y.y.y.W.y#E.Z.x.x#1#5.p.pbcbcbc.7.........fa3a3",
"a3a3a3#J........#X#8.sbZ#P#F#F#F#F.c.c.c.c.c#F#F#C#C.c.Z.Z.y.y.y.W.W#G#q#q.M#F.M#1bAbcbAbtb#.R........#Aa3",
"a3a3a3.o......#y#i#P#x.3#x#xbZbZ#F#F#FbZ#F.c.s#P#xbZ.c.c.2.Z#E.y.W#N#N.W.y.Z.Z.v#C.v#C.v.vbJbj........#ea3",
"a3a3#A........b7bO.I.s#x#P#1#1#x#tbZbZ.s#x#x#x#z#P#x#F.x.c.c.2.Z#E.y#NasbNa5#R#E#q#q#qbJbJbj#GbQ........#9",
"a3a3.1.......F.G.Ia7#P#P#P#t#na3aObkan#I.6b0b1b0.Sat.7#x#x#F#F.c.abYbdbrbmaka9#l.4a5#N#N.y#E#GasbS......bs",
"a3#A........#Y.k.A#s#z#z#tawa3#oan#O#IaBaN#g#H#r#U#0#9.t#Y#xbZbB.D.D.2.raDaHa9ad.w.nbl#N#NbJ#N#..H........",
"a3#Z........#z#s#s#s#z#s#XataRbFbFbh#g.A#H.A#H.A#H#V#Ube.7#P.8avaz.M.cbB#fajaxaxad.waabR#R#qbRbR.q........",
"a3b#........#z.Y.A#X#s#z#t.0b4boaLa4#6#g.b#g.b#g#H.A.Abb#0#s#zacav#8#FaFbna2aD#7#7am.wbl#R.ZbRbR.q.R......",
"a3.R.......F#s.Y.Y.Y#X#s#X#s.7#abU#mbKaSa6bbbba6aSaN#g.Cb1#U#s.X#D.3.gbLbBbgaC.Oas#7.w.EbR.ZbR#GblbQ......",
"a3........#Y#s.Y#s.Y#X.Y#s.A.laXbybyaIb0.B#w#Baq#QaX#m.Abf.B#V.6aw#Wa0#k.c.cbibpasasaMaa#N#qbR#G.qbj......",
".9.........d.A#H.Y.Y.Y.A#d#d#3a6#gaNb5#B.l#T#T#T.5#3a6.AaNaX.C#abXbt#KaU#8#Fbqa2bv#Nax.n#N.ZbR#G.q.H......",
"#9........bC#M.5.b#H#d#d#d.b.m##.Jby#3#T#h#h#h#h#T.5.m#6aN###6bbbw#rat#K#F.xbB#kaJ.Wa5#9#N.v#G#G#..H......",
"#9........bObE#Jbe#H.b#H#H.bbUbPaN#3.l#h.U#h#h#h#ha7#BbKaBaXaB#Q.K#VaYag.3#F.c#2bzbvbva2#E#q#Gbj.H.H......",
"#9........aAaoao.P.b#H#d#d#dbUaX#3bTaE#M#M#M#h#h.U#hb3#aa6aXbxapbf#V#r#9#x.3bBaeaebLbYbn.v.vbJbJ#G.i......",
".V#y......#L.P#i.5#H#H#H.b.b.mbb.L.T.9.u#M#M#M.U#MaE#9bMaWaXaPbxal#V#r.XbZ#8aFb.#caebna1.x.v.v.vbJbS......",
"#9#y.......d#g#g.b#H.b#d.b.b.Lb0bT#wa3.VaZ.u.ubHbka3aI.lbMbKaXbKaW#V#ra#.3#F#2afbBbGaeaf.x.x.v.v.v.R......",
"a3.........F#H#g.b.b.b.b.b.b.l.6b1.T.BaRa3#9a3#9a3aK.U#pboalaXaXaB.C.N.X.3b2aebB#FbBaeah.xbV#FbZbZ.1......",
"a3#1......#y#H.b.b.b#H.b.b.J#TbTa3b1aEb3boaRa3a3boaE.UbbaIbbaB#6#V.YbX.9bZ#2.D.M.xahb..xbVbV.x#F#C#y......",
"a3ay........#H.b#g.b.b.b.J.J#T.Ubka3aZaZaKboa3a3a3boaG.6#pa6ap.C#V.C.j#j.gbnarbB.M#2aubV.8.hbV.s.s........",
"a3#b.........d.b.5.J.b#T#T#h.U.UbD.ja3b5b3aKb1aR#9#OaR#B#g.#aX#aaG.6.j.t.sb2a1bYabbL#W.Q.Q.hbV.x.1........",
"a3aC#y.......F#g#h#h#h#h#M.UbDbDbDbD.Va3a3a3a3a3a3b0.B.b.b#HaN#3#o.N.t.8#8.s#8avaia0.8.Q.Q.hbVbV.1.......z",
"a3a3bs........#T#h#M#MbDaQ.uaQaQbW.ubWbHaVaVaZ.T#B.l#T#g.b#H.A#s#z#z#P#x.s#F.3bV#W#P.Q.Q.k.h#PbI.........e",
"a3a3a3bs.......1bE#A.9.9aCaC#9#9#9a3.VaobebWbD#h.J.b.J.b#H#H#s#z#Y#P#x#x.s.s.s.8.Q.h.Q.k.k.p.p#y......bsa3",
"a3a3a3.P........#e#A#A.9.9.V.V#9#9#9#9#9#9.9.P#h.J.b.b#H#H.Y#z#P#P#P#x#x.x.s.8.s.Q.Q.Q.k#r.p#z.........Sa3",
"a3a3a3#9bs......#y#A#A.9.9.9.9.V.V#9#9#9#9.V.9bW#T.b#H#d.Y#X#t#1#x#x#Y#F.s.s.8.Q.Q.k.k.k.pbc.........0a3a3",
"a3a3a3a3#J........bE#A#A#A.9.9.9aC.9aC.V.9.V.9.S#M#T.b.Y#s#z#1#x#t#P#x.8.s.8.8.8.k.k.kbc#n#u........#Aa3a3",
"a3a3a3a3a3#e......#eao#A#A.9.9.9.9.9.9.9.9.9.9#Aba#T#g#s#X#t#x#x#x#x#x#x.8.8#Y.Q.k.k#r.I#n........#ea3a3a3",
"a3a3a3a3a3.9#u......#v.S.S.S#A#A.9#A.9.9.9#A#A#A.P.J#g#s#t#tbZ#xbZ#x.8.s#Y.h.Q.k.kbI#L#n.7......#ya3a3a3a3",
"a3a3a3a3a3a3#b........aT.S.S.S#A#A#A#A.S#A#A.SaobD#g.b#s#t#1#xbZ#x#x#x.8.Q.Q.k.A.p.I.I.o........bEa3a3a3a3",
"a3a3a3a3a3a3a3aT........#vbE.S.S.S.S.S.S.S.S.SbD#g#g.A#t#1#x#x#x#x.s#x#P.d.k.Y.I#L.Ia..........ea3a3a3a3a3",
"a3a3a3a3a3a3a3#9#e........#ebEaoao.S.S.S#J#i#M#g#H.A#s#x#x#x#P#Y#P#x.8.Q.ka7#L#L.I#X........#ea3a3a3a3a3a3",
"a3a3a3a3a3a3a3a3a3#e............#e#i#g.A.A.A.Y.A#s#t#z#x#x.s#P#P.d.Q.A.Gb6#La.............a3a3a3a3a3a3a3a3",
"a3a3a3a3a3a3a3a3a3#9aT..............#s#z#z#z#z#P#z#z.8bZ#F#x#P.k.Aa7#Lb6.o..............aTa3a3a3a3a3a3a3a3",
"a3a3a3a3a3a3a3a3a3a3a3.P#u............#y#x.8#z#P.8#P#x#x.s#P.d.A.Gb6#e#X............#u#Ja3a3a3a3a3a3a3a3a3",
"a3a3a3a3a3a3a3a3a3a3a3a3bE.d................#y#y.h#u.8#Y#Y.d.0.0#Y................b7.Va3a3a3a3a3a3a3a3a3a3",
"a3a3a3a3a3a3a3a3a3a3a3a3a3#9#Z#y..............................................#X#Ja3a3a3a3a3a3a3a3a3a3a3a3",
"a3a3a3a3a3a3a3a3a3a3a3a3a3a3a3aC#v.1.......................................0#ba3a3a3a3a3a3a3a3a3a3a3a3a3a3",
"a3a3a3a3a3a3a3a3a3a3a3a3a3a3a3a3a3#9b#................................#Y.Sa3a3a3a3a3a3a3a3a3a3a3a3a3a3a3a3",
"a3a3a3a3a3a3a3a3a3a3a3a3a3a3a3a3a3a3a3#9#b#Lb7.0#u#y......#y#u#Xb7.e#Aa3a3a3a3a3a3a3a3a3a3a3a3a3a3a3a3a3a3",
"a3a3a3a3a3a3a3a3a3a3a3a3a3a3a3a3a3a3a3a3a3a3a3a3#9.9.V.9.V.9a3a3a3a3a3a3a3a3a3a3a3a3a3a3a3a3a3a3a3a3a3a3a3"
};
