/* XPM */
static char *right[] = {
/* width height num_colors chars_per_pixel */
"    53    54      254            2",
/* colors */
".. c #040204",
".# c #0c86b4",
".a c #8c0a6c",
".b c #064561",
".c c #470339",
".d c #092545",
".e c #86838c",
".f c #4a454a",
".g c #441a6c",
".h c #110e57",
".i c #482814",
".j c #89cbe7",
".k c #072662",
".l c #166784",
".m c #18cad0",
".n c #ece090",
".o c #3c4254",
".p c #4a5597",
".q c #874817",
".r c #661132",
".s c #2b0d41",
".t c #282865",
".u c #478a97",
".v c #47183f",
".w c #faf880",
".x c #33044c",
".y c #692421",
".z c #26262a",
".A c #0a3462",
".B c #4cc7cf",
".C c #104c90",
".D c #cc04c0",
".E c #c48234",
".F c #081628",
".G c #44628c",
".H c #663716",
".I c #576c9f",
".J c #09556f",
".K c #1c62bc",
".L c #1ca2ac",
".M c #49084f",
".N c #27489e",
".O c #ec4e44",
".P c #8fa3b8",
".Q c #121b58",
".R c #26141a",
".S c #c5c9db",
".T c #44acbc",
".U c #29657b",
".V c #dce8e8",
".W c #742520",
".X c #e4caf4",
".Y c #17355f",
".Z c #581430",
".0 c #2a334a",
".1 c #190b1d",
".2 c #570933",
".3 c #32144e",
".4 c #ece6c4",
".5 c #154a74",
".6 c #94eff2",
".7 c #29356a",
".8 c #20154f",
".9 c #d8dbe7",
"#. c #7c421c",
"## c #10e8f8",
"#a c #49e6f7",
"#b c #a7a8b3",
"#c c #9c028c",
"#d c #113754",
"#e c #555862",
"#f c #c42a5c",
"#g c #08486e",
"#h c #275b74",
"#i c #7988aa",
"#j c #7456cc",
"#k c #e947e9",
"#l c #048ee4",
"#m c #56619e",
"#n c #4c7cd8",
"#o c #24769c",
"#p c #571b34",
"#q c #2a3b86",
"#r c #182c5f",
"#s c #26244e",
"#t c #16161e",
"#u c #716c77",
"#v c #34a6bc",
"#w c #2a1644",
"#x c #0a0c13",
"#y c #1b2750",
"#z c #cdd0dd",
"#A c #2589a4",
"#B c #470c3b",
"#C c #503284",
"#D c #671c26",
"#E c #380b42",
"#F c #692d28",
"#G c #073c60",
"#H c #64e2e4",
"#I c #aab4c6",
"#J c #9854e8",
"#K c #6873a8",
"#L c #376a81",
"#M c #772b21",
"#N c #a9f9f9",
"#O c #221c4e",
"#P c #2ce4e8",
"#Q c #842a3c",
"#R c #49224f",
"#S c #195671",
"#T c #2854b0",
"#U c #183a78",
"#V c #341e84",
"#W c #282c42",
"#X c #18183b",
"#Y c #847684",
"#Z c #5094ec",
"#0 c #2f1c4f",
"#1 c #de26e8",
"#2 c #2195b8",
"#3 c #741e21",
"#4 c #494879",
"#5 c #0867a5",
"#6 c #ac491c",
"#7 c #370d50",
"#8 c #eaebf0",
"#9 c #383c67",
"a. c #c4aafc",
"a# c #d8b648",
"aa c #9422dc",
"ab c #c462e4",
"ac c #f96b31",
"ad c #f909f9",
"ae c #b812d0",
"af c #b48ae4",
"ag c #640e84",
"ah c #ec62ec",
"ai c #fc3e74",
"aj c #fc9ebc",
"ak c #30c8ec",
"al c #fc862c",
"am c #396bc4",
"an c #b9c4da",
"ao c #4cdefc",
"ap c #08baec",
"aq c #24b6c4",
"ar c #d41efc",
"as c #89391f",
"at c #6f73df",
"au c #8432cc",
"av c #7422b0",
"aw c #443eb4",
"ax c #f05838",
"ay c #6c5a6c",
"az c #fc26fc",
"aA c #949298",
"aB c #0e77cc",
"aC c #ebdff0",
"aD c #fc6c84",
"aE c #4698b0",
"aF c #8716a4",
"aG c #44b0f0",
"aH c #fc7ac4",
"aI c #6af9fa",
"aJ c #ac225c",
"aK c #64c7e8",
"aL c #2890f8",
"aM c #fcba3c",
"aN c #045992",
"aO c #b4dafc",
"aP c #04d2dc",
"aQ c #4a798b",
"aR c #cafcfc",
"aS c #18a8fc",
"aT c #777a86",
"aU c #ac3ed4",
"aV c #88b8c4",
"aW c #30bafc",
"aX c #1cf8f9",
"aY c #4c5adc",
"aZ c #5eaebc",
"a0 c #6032b4",
"a1 c #e03ae0",
"a2 c #f9aef1",
"a3 c None",
"a4 c #24a6f4",
"a5 c #a43c44",
"a6 c #33f9fb",
"a7 c #294a7c",
"a8 c #495587",
"a9 c #fc886c",
"b. c #f418f4",
"b# c #44314c",
"ba c #5c7e9c",
"bb c #50f7f9",
"bc c #394990",
"bd c #fc46cc",
"be c #7c94c4",
"bf c #247ef4",
"bg c #ac1674",
"bh c #3c7eec",
"bi c #cc2aa4",
"bj c #592e21",
"bk c #98ced4",
"bl c #974627",
"bm c #fcfab4",
"bn c #f437f1",
"bo c #90fbfc",
"bp c #fcc6c4",
"bq c #74065c",
"br c #fc4274",
"bs c #383945",
"bt c #393a8f",
"bu c #5c4274",
"bv c #972a4c",
"bw c #1c56b4",
"bx c #0898c8",
"by c #0775a9",
"bz c #fc32ac",
"bA c #4c3d7a",
"bB c #570559",
"bC c #3c5680",
"bD c #3c7586",
"bE c #b9bac8",
"bF c #3c5ebc",
"bG c #7c0674",
"bH c #5c9aa4",
"bI c #38467e",
"bJ c #552338",
"bK c #1abcf2",
"bL c #f779f7",
"bM c #2c8ac0",
"bN c #b4523c",
"bO c #9499b4",
"bP c #0cc6fc",
"bQ c #3c220c",
"bR c #753524",
"bS c #391911",
"bT c #39b6cf",
"bU c #17dae7",
"bV c #22074f",
"bW c #568494",
"bX c #344ebc",
"bY c #f94af4",
"bZ c #361444",
"b0 c #b8f4f6",
"b1 c #78fafc",
"b2 c #5c0e6c",
"b3 c #60b8d0",
"b4 c #5caedc",
"b5 c #7ce6f4",
"b6 c #737dab",
"b7 c #494d54",
/* pixels */
"a3a3a3a3a3a3a3a3a3a3a3a3a3a3a3a3a3a3a3a3a3a3a3.9.9aC.V.9#8a3a3a3a3a3a3a3a3a3a3a3a3a3a3a3a3a3a3a3a3a3a3a3a3",
"a3a3a3a3a3a3a3a3a3a3a3a3a3a3a3a3a3a3#z#ib7#W#t#x......#t#X#W#eb6#b.Va3a3a3a3a3a3a3a3a3a3a3a3a3a3a3a3a3a3a3",
"a3a3a3a3a3a3a3a3a3a3a3a3a3a3a3a3.S.z...............................1b##8a3a3a3a3a3a3a3a3a3a3a3a3a3a3a3a3a3",
"a3a3a3a3a3a3a3a3a3a3a3a3a3a3#b.0.......................................1#u#8a3a3a3a3a3a3a3a3a3a3a3a3a3a3a3",
"a3a3a3a3a3a3a3a3a3a3a3a3#I#W...............................................1#Y#8a3a3a3a3a3a3a3a3a3a3a3a3a3",
"a3a3a3a3a3a3a3a3a3a3#8b7..............#x#X.0.0.d.Q#X.8.1#X#x...................dbEa3a3a3a3a3a3a3a3a3a3a3a3",
"a3a3a3a3a3a3a3a3a3#I#t............#Wa8aT.G.A.k.8#E#w#X#O#O.8#y#O#X#x............#t#ba3a3a3a3a3a3a3a3a3a3a3",
"a3a3a3a3a3a3a3a3aT...............o#i#Ka7.A.k#O#w#E.s.8#y#y#O#r#O#s#s.d..............aT#8a3a3a3a3a3a3a3a3a3",
"a3a3a3a3a3a3a3a3.............0#Kb6.p.A.Q.Q#y#X#w.s#w#y#y#y.A.Y.A.A#G.5be#e............#ea3a3a3a3a3a3a3a3a3",
"a3a3a3a3a3a3#e........#W.I#K#Ka7.k.Q#X#w#O#X#w#w#w#0#r.Y#G#g#L#i#Ianan.SananbEb7........ay#8a3a3a3a3a3a3a3",
"a3a3a3a3a3.e........#9.I#K#K#U.k.k#O.8#w#w#w#w#w#0#s.A.b#gbD.S.S.S.S.S.S.S.Sanan#u........aTa3a3a3a3a3a3a3",
"a3a3a3a3bE........#9#m#K.p.A.k.Q.Q#w#w#w#w#wbZ#s#s#y#g#gbDan.S.S#z#z#z#z#z#z.S.SanaT......#x.Pa3a3a3a3a3a3",
"a3a3a3a3#t.......0.I.Ibc.k.d.Q.Q#X.s.s#wbZbZ#w#s#s#r#g.C.P.S#z.9#z.9.9#z.9#z#z#z.S.S#u.......z#za3a3a3a3a3",
"a3a3a3b7........#m#mbI.k.k.Q.h.8.s#w.8#0#w#w#w#s#s.Y#g#Sba#z.9.9.9.9.9.9.9.9#z.9#z#z.Sb7......#ea3a3a3a3a3",
"a3a3#z.........F#mbc.k.k.k.Q.8.8.s.8#w#O#0#w#0#s.Y#d#G#SbD.S.9.9aC.VaC.VaC.9.9.9#z#z#zan........#ba3a3a3a3",
"a3a3bs........#4.p.k.k.k.Q.8#X.s.s#E#X#w#w#s#s#W#d.Y#G#g#SbW.9#8.VaC#8#8aC.VaC.9.9.9#z#z.........o#8a3a3a3",
"a3.S........#y.G#q.k.Q.Q.Q.8.sbV#E#w#w#X#O#s#y#d.A#G.b#g#g.U.P.9#8#8#8#8#8#8.V.9.9.9#z#z#e........#ba3a3a3",
"a3bs........a8#m.k.k.Q.Q.8.8.s.s.s.s#O#O#X#y#y#d.b.b.J#g.J#hbD.u.Pan#8#8#8#8#8#8aC.9.9#zan#x.......oa3a3a3",
".e........bI#O.h.k.Q.Q.8.8.3.s.s#E#w#O#y#y#y#d#G.b#g#S.l#A.TaZaVaVbHbW.ubWaQaQbabDbD#L#LbC#S........bsa3a3",
".z.......1bVbV.h.Q.Q.8a0ahav#7#E.s#w.tbc#n#2#5#G.b.b.Bb0a3a3a3a3a3a3.VaQbDbDbD.U#L#h#h#h#S#g.F......#xaCa3",
".........1.sbV.h.h.h#VbLaabYa1b2.s.t.jboaG#aaX.#.b#AaR#NaRaRb1aKb3b5a3bkbD#L.l#S#S#S.b#S.5#g.d........#ba3",
"........#7.xbV.h.QbVau#1#7bBarbn.g#j.j.C.A.Cap#a.#.6aG.6a3a3a3boaK.TaZa3bk.l#h#S.J.b.b.b#g.b#G........aya3",
"........bZ#E.xbVbV#7b.ag.x.M.D#1.3#zbX#U#U#5aBbbaIbb.UaEboa3a3aRbob4aEaIa3bT#S.J.b.b#G.b.b.b#G#x......#Wa3",
".......1bZbZ#7bV.xagb.bB.xbBadag.3.X.N#UaBaXaXakbo#o.UaKa3a3#8#8a3aRaK.TaI.6.l.b.b.b.b.b#g#g#G.F.......1a3",
".......R.v#BbZ.x.xaeadbGbBae#1#E#wa.#q.CaWap##bKbM.UaI#8bkbH.u.uaZ.Va3#vbTb0.L.b.b#G#G#G.b#g.b.d........aC",
"......bSbJ.v.v.v.xa1bnad#cb.aF#E#0.X#q#UakbxaPaXaWbM#8bH.U.U#L#L#L.u.9.T#vbb.m.b.b#d#G.b#g#i.PaT.......F.V",
".......i#FbJbJ#p.MbnbYbLadad.M#7.3#8#q.YbfbKbxaXa6ao.B#h.UbC#h#L#L#LaEaq#2aXbU.b#d#G#G.b.P.SanaA.........V",
".......H.H#F#F#p#Da2bvaJbz#1.M#E.3afaY#U.K#PbyaXaBbK#Aa7#h#h.U#h.U#h.l.#.lbPaP.b#d#G.b#Gbe#I#IbO........#8",
".......H#.#F#F#p#F#8a5#DaJbY.M#E#7#Jatbtbwa6#5aXaN#5ak.5#S#h#h#h#h#S#2by.J##.m.b#d#d#G#d.b#S#LbC........aC",
".......H#.#FbR.Z#M.nax#Mbva2bq.M#EaU#JawbXbb.CaXaN#Ga6#2#S.5#S#S#S.ub5aN#ga6.L#d#d#d#d#d.A.A.A.d.........9",
"......bj.q#FbR.v#Ma#aMasasbpbi.c.x#ka0#Vaw.6#UbTaL.A#laX#Paq#A#v.B#Nbb.lbyaX.l.Y#y#d#W.Y.Y.Y#r.F........a3",
".......i.q#FbR.ZbR.E.w#6as.OaCbgbBbL.g.3#C.X#r#Tb1.C#G.JaSa6bbbba6a4bKbxbU#a.Y#r#y#s.Y.t.Y.Y#r.F.......Ra3",
"......#t.qbRbR#p#M#6.wal#6#6aDa2bn.a#7.savab.t#r#Zbb.A.A#G#g.b.b#g#gbyaSaLbob4.0#s#y#W#r.Y.Y#s........b#a3",
"......#x.qbRbR#D#MbRa#.wacaxaxai#f.M.c.Mazav.8#O.tbe.N#U#G.A#G.A#G#G#GbhbFamaRat#y#r#r#y.A#r#O........#Ya3",
".........HasbR#D#M#Qas.n.waca9aHaDbqbB.Dad.M.s.8#O.taR#ZbX.5#U#gaNaBao#Nam#na3.p#s#y#y#r.A.k.Q........#za3",
"bs......bS#.#MbJ.y#M#Mbl.4bma9ajbmbrbd#k.a.c#E#E.8.3btat.Sb0b1#N.6#HamanaOa3#m#0#O#O#Oa7.I.G.F.......1a3a3",
"#8........bQ#FbJbJbJ#p#p#p#D#Qa5bNas#M#M#D.Z.2.c.c#E#E#w#O#O.8#w#w#wbZ#w#0.3.3#0#O#w.8.IbOb7........#za3a3",
"a3#e......#xbjbJ#R.v.v#B.v#B#p.Z#D.W#M#M.y#D#D.Z.2.c#E#7#O#O#E#E#E#E#E#EbZbZ.3.3#wbZ#w#0#i#x.......oa3a3a3",
"a3#z.........Rb#bA#9#4bA.g#E#B#E#p#D.y.y#M.y.y#D.Z.Z.c#B#E#E#B.c.c#B.c.c#E#E#E#E#0.s#E#E#W........#Ia3a3a3",
"a3a3b7.........tbcbcbc.p.p#4.g.x.x.Z.y.y.W.y.y.y#D#D.2.c.c.2.c.c.c.c.c.c.c.c#E#E#E#0#E#E........bsa3a3a3a3",
"a3a3.9........#xbcbcbc.p.p.p.GbA#0#B.Z#D#D.y#D.y.W.W.r.2.r.Z.2.2.2.2.2.c.c.c#E#E.s.s#E#E........bEa3a3a3a3",
"a3a3a3aT........#qbcbcbcbC.p.p#m#mbZ#E#B#p.Z.Z.y.y#M.r.r#D#3#D.r.r.2.2.c.c.s.s.s.s#E.c.1.......fa3a3a3a3a3",
"a3a3a3a3.z......#y#qbcbc.p.p.p.p#m#m#4#R#E.Z#B.Z.y#D#D.y.W#3#3#3#D.Z.Z.2bZbC#r.8.3.x.1.......1#8a3a3a3a3a3",
"a3a3a3a3#z........#y#qbcbcbc.p.p.p#m#m#ma8bAbZ#E.Z#B#D#3#3#3.W.W#3#D#D.2bub6b6a8.t.1........bEa3a3a3a3a3a3",
"a3a3a3a3a3#b........#ybtbcbcbc.p.p#m#m#m.I#m#mbA.v.c.Z.Z#D#3.W#M.W.W#3.ZbJb6b6#K#9.........ea3a3a3a3a3a3a3",
"a3a3a3a3a3a3a3aT........#x.7bcbcbc.p.p.p#m#m#m#m.I#m#mbAbZ.Z#D.y#D.y.y.W.y.v.1..........a3a3a3a3a3a3a3a3a3",
"a3a3a3a3a3a3a3a3.............Q#qbcbc.p.p.p#m#m#m#m#m.I#m#mbA.v#p.y.y.y#MbS............#ua3a3a3a3a3a3a3a3a3",
"a3a3a3a3a3a3a3a3#b..............#ybcbcbca8.p.pa8#m#m#m#m#m#m#m#R.Z.y.H..............aAa3a3a3a3a3a3a3a3a3a3",
"a3a3a3a3a3a3a3a3a3#z.z............#t.7bcbcbc.p.p.p.p#m#m#m#m#ma8#W.1............#t.Sa3a3a3a3a3a3a3a3a3a3a3",
"a3a3a3a3a3a3a3a3a3a3a3aT................#x#y#W.7bIbIbI#9#9.z#t................aya3a3a3a3a3a3a3a3a3a3a3a3a3",
"a3a3a3a3a3a3a3a3a3a3a3a3#z#e...............................................f#za3a3a3a3a3a3a3a3a3a3a3a3a3a3",
"a3a3a3a3a3a3a3a3a3a3a3a3a3a3#z#e.......................................f.Sa3a3a3a3a3a3a3a3a3a3a3a3a3a3a3a3",
"a3a3a3a3a3a3a3a3a3a3a3a3a3a3a3a3#8bs#x.............................0aAa3a3a3a3a3a3a3a3a3a3a3a3a3a3a3a3a3a3",
"a3a3a3a3a3a3a3a3a3a3a3a3a3a3a3a3a3a3#8bE.eb7.z#x#x..#x#x.z.faTbE#8a3a3a3a3a3a3a3a3a3a3a3a3a3a3a3a3a3a3a3a3"
};
