/* XPM */
static char * gabout_xpm[] = {
"15 15 53 1",
" 	c None",
".	c #FFFFFF",
"+	c #FFFAF6",
"@	c #EEEAE6",
"#	c #F6F2F6",
"$	c #E6E2DE",
"%	c #4A4841",
"&	c #F6E6D5",
"*	c #E6CA94",
"=	c #DEAE62",
"-	c #E6B652",
";	c #E6CAA4",
">	c #C5C2BD",
",	c #52504A",
"'	c #949594",
")	c #D5CAC5",
"!	c #E6BA4A",
"~	c #DEAE41",
"{	c #C58539",
"]	c #C5A58B",
"^	c #C57D39",
"/	c #A46552",
"(	c #D8C8C3",
"_	c #080C08",
":	c #D5A541",
"<	c #AC5D31",
"[	c #9C5D4A",
"}	c #A4857B",
"|	c #000000",
"1	c #DEDAD5",
"2	c #F6EEEE",
"3	c #C5914A",
"4	c #B47131",
"5	c #A44C29",
"6	c #943829",
"7	c #ACA5A4",
"8	c #5A5952",
"9	c #312C29",
"0	c #E6DACD",
"a	c #BD9173",
"b	c #9C5541",
"c	c #AC8D8B",
"d	c #D5D2CD",
"e	c #A49D94",
"f	c #181810",
"g	c #BDB6B4",
"h	c #7B756A",
"i	c #CDCACD",
"j	c #393831",
"k	c #292820",
"l	c #8B8583",
"m	c #BDBAB4",
"n	c #413C39",
"               ",
"               ",
"      ... +@   ",
"  ++.++#.++$%  ",
"   +&*=-=;@>,  ",
"  ')--!-~{]    ",
"@+.*!!!-~^/(.+_",
" @.;:~!~{<[}@)_",
" |123^^456}789_",
"  2+0abb[cdef  ",
"  +.@ghg1@+ij  ",
"    'kfl2+2mj  ",
"  %jff  h'ln9  ",
"         __f   ",
"               "};
