/* XPM */
static char * gdelete_xpm[] = {
"15 15 60 1",
" 	c None",
".	c #BDBEBD",
"+	c #8B8D8B",
"@	c #838583",
"#	c #525952",
"$	c #737D6A",
"%	c #83857B",
"&	c #5A6552",
"*	c #414839",
"=	c #6A7162",
"-	c #414441",
";	c #A4A5A4",
">	c #73796A",
",	c #BDCAB4",
"'	c #B4BEAC",
")	c #6A7562",
"!	c #525D52",
"~	c #626D5A",
"{	c #9CAA8B",
"]	c #9CA58B",
"^	c #313429",
"/	c #C5CEBD",
"(	c #CDD2C5",
"_	c #ACBAA4",
":	c #9CAE94",
"<	c #7B9173",
"[	c #202820",
"}	c #6A7962",
"|	c #83997B",
"1	c #73856A",
"2	c #62715A",
"3	c #526552",
"4	c #394039",
"5	c #4A554A",
"6	c #313831",
"7	c #313431",
"8	c #293029",
"9	c #313C31",
"0	c #83957B",
"a	c #83917B",
"b	c #627962",
"c	c #5A6952",
"d	c #415041",
"e	c #626162",
"f	c #949194",
"g	c #000400",
"h	c #080808",
"i	c #839D83",
"j	c #7B8D73",
"k	c #839583",
"l	c #6A7D62",
"m	c #5A6D52",
"n	c #4A504A",
"o	c #52614A",
"p	c #4A5D4A",
"q	c #4A5941",
"r	c #415541",
"s	c #181818",
"t	c #4A4C4A",
"u	c #ACAAAC",
"               ",
"    .+++++     ",
"   @#$%&*=-;   ",
"  +>,')!~{]^   ",
"  +&/(_:{]<[   ",
"  ;*}|<12344   ",
"   -5446789+   ",
"   -0aabc&def. ",
"   -0aabc&dgh7 ",
"   -0aabc3dghh ",
"   -ijklcmdghe ",
"    noppqrst   ",
"    .+++++u    ",
"               ",
"               "};
