/* XPM */
static char * gedit_xpm[] = {
"15 15 63 1",
" 	c None",
".	c #A4A5A4",
"+	c #000000",
"@	c #8B8D8B",
"#	c #52504A",
"$	c #737162",
"%	c #414441",
"&	c #B34130",
"*	c #B64130",
"=	c #7B796A",
"-	c #B4B29C",
";	c #DEDEC5",
">	c #020202",
",	c #BD5445",
"'	c #BDBEBD",
")	c #4A484A",
"!	c #CDCAB4",
"~	c #D5D6C5",
"{	c #DEDAC5",
"]	c #C6AD5B",
"^	c #EAD4A6",
"/	c #1B1817",
"(	c #838183",
"_	c #6A6D6A",
":	c #CDCEB4",
"<	c #E6E2CD",
"[	c #493E0F",
"}	c #DDBC37",
"|	c #D8B93B",
"1	c #9C9D9C",
"2	c #B4B2AC",
"3	c #8B8D83",
"4	c #D5D6BD",
"5	c #DDBD31",
"6	c #E2C231",
"7	c #161304",
"8	c #7B7D7B",
"9	c #A4A194",
"0	c #E6E6CD",
"a	c #D0B142",
"b	c #DABB39",
"c	c #83857B",
"d	c #181818",
"e	c #BDBAA4",
"f	c #877E71",
"g	c #F6F6DE",
"h	c #EEEAD5",
"i	c #73756A",
"j	c #5A5D5A",
"k	c #BDBAAC",
"l	c #F6F2D5",
"m	c #F6F2DE",
"n	c #EEEED5",
"o	c #9C998B",
"p	c #6A695A",
"q	c #62615A",
"r	c #D5D2BD",
"s	c #ACAA94",
"t	c #737573",
"u	c #8B897B",
"v	c #73716A",
"w	c #949183",
"x	c #525552",
"       .. +++  ",
"     @#$%+&*+  ",
"   .%=-;>+,*+  ",
" ')#!~{;+]^/   ",
" @(_:~{<[}|+   ",
" @1234;+567%   ",
" @189{0+ab+c.  ",
" @de{<0+f+ghi. ",
" @j{;0+++gggk% ",
"  %{<0+lmgnc%  ",
"  .o0hnmm{p.   ",
"   qrnl0st     ",
"   @um<pv      ",
"    twx        ",
"     @'        "};
