/* XPM */
static char * geraser_xpm[] = {
"10 10 22 1",
" 	c None",
".	c #000000",
"+	c #FFFFFF",
"@	c #E5E5E5",
"#	c #565656",
"$	c #F3F3F3",
"%	c #DDDDDD",
"&	c #656565",
"*	c #D9D8D9",
"=	c #575757",
"-	c #B7B5B7",
";	c #0F0F0F",
">	c #7F7D7F",
",	c #DFDEDF",
"'	c #878487",
")	c #DBDADB",
"!	c #101010",
"~	c #161516",
"{	c #232223",
"]	c #525052",
"^	c #7B797B",
"/	c #858285",
"          ",
"     .....",
"    .++@#.",
"   .$+%&*.",
"  .$++=-;>",
" .....,.' ",
" .)))..   ",
" !.~{.    ",
" ]^^^/    ",
"          "};
