/* XPM */
static char * gexit_xpm[] = {
"15 15 31 1",
" 	c None",
".	c #8B898B",
"+	c #525552",
"@	c #94918B",
"#	c #B4B6B4",
"$	c #000000",
"%	c #ACAAAC",
"&	c #414441",
"*	c #E6E6DE",
"=	c #181010",
"-	c #BDBEBD",
";	c #4A2C31",
">	c #94595A",
",	c #625552",
"'	c #BDBAB4",
")	c #626562",
"!	c #CDCAC5",
"~	c #291818",
"{	c #7B4041",
"]	c #83484A",
"^	c #8B5052",
"/	c #A46162",
"(	c #C5797B",
"_	c #AC6D73",
":	c #52504A",
"<	c #8B8D83",
"[	c #181818",
"}	c #BDBEB4",
"|	c #737573",
"1	c #292C29",
"2	c #5A595A",
"               ",
"      .++++++. ",
"      +@####$+ ",
"     %&#****$+ ",
"    %==#****$+ ",
"-+++&;>,*')!$+ ",
"%~{]^/(_:<[}$+ ",
"%~{]^/(_:***$+ ",
"-+++&;>,****$+ ",
"    %==#****$+ ",
"     %&#**|1$+ ",
"      +@@$$$$+ ",
"      .++2222. ",
"               ",
"               "};
