/* XPM */
static char * ghome_xpm[] = {
"15 15 39 1",
" 	c None",
".	c #A4A5A4",
"+	c #8B8D8B",
"@	c #BDBEBD",
"#	c #8B898B",
"$	c #737573",
"%	c #414441",
"&	c #5A5D5A",
"*	c #E6EAE6",
"=	c #73796A",
"-	c #081008",
";	c #838983",
">	c #F6F6F6",
",	c #D5DAD5",
"'	c #BDC2B4",
")	c #6A7962",
"!	c #F6F2F6",
"~	c #CDD2CD",
"{	c #CDCEC5",
"]	c #C5CABD",
"^	c #6A7562",
"/	c #6A6D6A",
"(	c #FFFFFF",
"_	c #DEE2DE",
":	c #C5CEC5",
"<	c #B4BAAC",
"[	c #5A6552",
"}	c #101410",
"|	c #DEDED5",
"1	c #ACB2A4",
"2	c #202820",
"3	c #838183",
"4	c #525552",
"5	c #4A4C4A",
"6	c #CDD2C5",
"7	c #73756A",
"8	c #181810",
"9	c #4A5041",
"0	c #415041",
"               ",
"               ",
"       . .+@   ",
"      .#$%&+   ",
"     .+*=-;+   ",
"    .#>,');+   ",
"   .#!~{{]^/   ",
"  .#(_{{::<[$  ",
"  %}(|::::12%. ",
"   %(3%%::12   ",
"   %(4:%::12   ",
"   %>56%{:12   ",
"   %78989008   ",
"   .++++++++   ",
"               "};
