/* XPM */
static char *glist[] = {
/* columns rows colors chars-per-pixel */
"16 16 28 1",
"  c opaque",
". c #267726",
"X c #374f64",
"o c #314e6c",
"O c #4d667e",
"+ c #646464",
"@ c #4b6983",
"# c #5c778f",
"$ c #5f798f",
"% c #7c90a3",
"& c #990000",
"* c #b39169",
"= c #8d8d8d",
"- c gray58",
"; c #9d9d9d",
": c #a3a3a3",
"> c gray67",
", c #b3b3b3",
"< c #bdbdbd",
"1 c gray77",
"2 c #cccccc",
"3 c #d7d7d7",
"4 c gray86",
"5 c #e2e2e2",
"6 c #ededed",
"7 c #f3f3f3",
"8 c #fbfbfb",
"9 c None",
/* pixels */
"9999999999999999",
"                ",
" %##$#$$######@ ",
" $@@@@@@@@@@@@X ",
" 8888888888887: ",
" 88&*88:125148: ",
" 88&&881:,<,>7: ",
" 8888888787787; ",
" 88oo882442227- ",
" 88*o78>1,,,>7= ",
" 8888787877776- ",
" 88..7744<5<36= ",
" 88..771<:<<<6= ",
" 8777776666666- ",
" 5111>;;;;;;:-+ ",
"                "
};
