/* XPM */
static char * gnew_xpm[] = {
"15 15 51 1",
" 	c None",
".	c #A4A5A4",
"+	c #8B8D8B",
"@	c #52504A",
"#	c #737162",
"$	c #414441",
"%	c #7B796A",
"&	c #B4B29C",
"*	c #DEDEC5",
"=	c #B4B6A4",
"-	c #737573",
";	c #BDBEBD",
">	c #4A484A",
",	c #CDCAB4",
"'	c #D5D6C5",
")	c #DEDAC5",
"!	c #E6E2CD",
"~	c #8B897B",
"{	c #949594",
"]	c #838183",
"^	c #6A6D6A",
"/	c #CDCEB4",
"(	c #E6E6CD",
"_	c #6A6962",
":	c #9C9D9C",
"<	c #B4B2AC",
"[	c #8B8D83",
"}	c #D5D6BD",
"|	c #EEEACD",
"1	c #EEEAD5",
"2	c #EEEED5",
"3	c #CDCEBD",
"4	c #7B7D7B",
"5	c #A4A194",
"6	c #F6F2DE",
"7	c #83857B",
"8	c #181818",
"9	c #BDBAA4",
"0	c #F6F6DE",
"a	c #73756A",
"b	c #5A5D5A",
"c	c #BDBAAC",
"d	c #F6F2D5",
"e	c #9C998B",
"f	c #6A695A",
"g	c #62615A",
"h	c #D5D2BD",
"i	c #ACAA94",
"j	c #73716A",
"k	c #949183",
"l	c #525552",
"       ..      ",
"     +@#$      ",
"   .$%&*=-     ",
" ;>@,')*!~{    ",
" +]^/')!('_    ",
" +:<[}*|123$   ",
" +:45)(12667.  ",
" +89)!(26001a. ",
" +b)*(126000c$ ",
"  $)!(1d6027$  ",
"  .e(1266)f.   ",
"   gh2d(i-     ",
"   +~6!fj      ",
"    -kl        ",
"     +;        "};
