/* XPM */
static char * gprev_disabled_xpm[] = {
"15 15 30 1",
" 	c None",
".	c #8B8D8B",
"+	c #BDBEBD",
"@	c #8B918B",
"#	c #ACAEAC",
"$	c #949994",
"%	c #ACB2AC",
"&	c #949594",
"*	c #E6E6E6",
"=	c #CDD2CD",
"-	c #B4B6AC",
";	c #DEE2DE",
">	c #A4AAA4",
",	c #B4B2B4",
"'	c #9C9D9C",
")	c #DEDEDE",
"!	c #D5DED5",
"~	c #83897B",
"{	c #ACC2AC",
"]	c #ACBEA4",
"^	c #A4B69C",
"/	c #94A58B",
"(	c #7B8D7B",
"_	c #A4BAA4",
":	c #9CAE94",
"<	c #838D7B",
"[	c #838983",
"}	c #7B857B",
"|	c #94A18B",
"1	c #737D73",
"               ",
"               ",
"               ",
"   .+          ",
"   @#$%        ",
"   &*=-.+      ",
"   &*;;;>$,    ",
"   '*;;)!=%.+  ",
"   ~{]]]^/(.+  ",
"   ~{]_:<[%    ",
"   }_|(.+      ",
"   1<[%        ",
"   .+          ",
"               ",
"               "};
