/* XPM */
static char * gprev_xpm[] = {
"15 15 36 1",
" 	c None",
".	c #414441",
"+	c #A4A5A4",
"@	c #4A504A",
"#	c #838583",
"$	c #5A615A",
"%	c #8B8D8B",
"&	c #525552",
"*	c #F7FBF7",
"=	c #CDD2CD",
"-	c #94998B",
";	c #EEF2EE",
">	c #E6EEE6",
",	c #7B817B",
"'	c #949194",
")	c #6A696A",
"!	c #F6F6F6",
"~	c #E6EAE6",
"{	c #DEEADE",
"]	c #C5CEC5",
"^	c #839183",
"/	c #313C29",
"(	c #8BB283",
"_	c #83AA7B",
":	c #83A573",
"<	c #73996A",
"[	c #52754A",
"}	c #294429",
"|	c #7BA173",
"1	c #628552",
"2	c #314429",
"3	c #394039",
"4	c #293829",
"5	c #52714A",
"6	c #294420",
"7	c #182818",
"               ",
"               ",
"               ",
"   .+          ",
"   @#$%        ",
"   &*=-.+      ",
"   &*;;>,$'    ",
"   )!;;~{]^.+  ",
"   /(__:<[}.+  ",
"   /(_|123%    ",
"   4|56.+      ",
"   723%        ",
"   .+          ",
"               ",
"               "};
