/* XPM */
static char * gopen_xpm[] = {
"15 15 29 1",
" 	c None",
".	c #737573",
"+	c #BDBEBD",
"@	c #8B8D8B",
"#	c #A4A5A4",
"$	c #524C4A",
"%	c #313029",
"&	c #73715A",
"*	c #9C958B",
"=	c #B4B6B4",
"-	c #626152",
";	c #414441",
">	c #5A554A",
",	c #8B816A",
"'	c #DEDACD",
")	c #C5C6C5",
"!	c #525552",
"~	c #202018",
"{	c #A49D8B",
"]	c #BDB6A4",
"^	c #FFFFF6",
"/	c #ACAAA4",
"(	c #5A5952",
"_	c #525041",
":	c #9C917B",
"<	c #ACAA94",
"[	c #F6F2EE",
"}	c #101008",
"|	c #736D6A",
"               ",
"               ",
"        ..     ",
" +@ #@$%&*=@@  ",
" $-;>-,'')!-~  ",
" $,{]^^/(_::%  ",
" @-]^)!-,:::%  ",
"  ;<[%::::::%  ",
"  #_'%::::::%  ",
"   $,%:::,-;#  ",
"   @-%:::$@    ",
"    ;%&>;      ",
"    #}|#       ",
"               ",
"               "};
