/* XPM */
static char * gpencil_xpm[] = {
"10 10 18 1",
" 	c None",
".	c #000000",
"+	c #B34130",
"@	c #B64130",
"#	c #020202",
"$	c #BD5445",
"%	c #C6AD5B",
"&	c #EAD4A6",
"*	c #1B1817",
"=	c #493E0F",
"-	c #DDBC37",
";	c #D8B93B",
">	c #DDBD31",
",	c #E2C231",
"'	c #161304",
")	c #D0B142",
"!	c #DABB39",
"~	c #877E71",
"     ...  ",
"    .+@.  ",
"   #.$@.  ",
"   .%&*   ",
"   =-;.   ",
"  .>,'    ",
"  .)!.    ",
"  .~.     ",
" ...      ",
" .        "};
