/* XPM */
static char * gback_xpm[] = {
"15 15 35 1",
" 	c None",
".	c #A4A5A4",
"+	c #414441",
"@	c #8B8D8B",
"#	c #626162",
"$	c #7B817B",
"%	c #9C9D9C",
"&	c #D5DAD5",
"*	c #E6EEE6",
"=	c #949194",
"-	c #626562",
";	c #838583",
">	c #F6F6EE",
",	c #EEF2EE",
"'	c #E6EAE6",
")	c #8B9583",
"!	c #E6EADE",
"~	c #525D4A",
"{	c #294420",
"]	c #52794A",
"^	c #73996A",
"/	c #7BA573",
"(	c #83AA7B",
"_	c #7BA173",
":	c #203018",
"<	c #414841",
"[	c #294020",
"}	c #5A814A",
"|	c #7BA16A",
"1	c #315029",
"2	c #739D62",
"3	c #182C18",
"4	c #394839",
"5	c #294429",
"6	c #102010",
"               ",
"               ",
"               ",
"          .+   ",
"        @#$+   ",
"      .+%&*+   ",
"    =-;>,,'+   ",
"  .+)&'*,,!~   ",
"  .+{]^/((_:   ",
"    @<[}|(_:   ",
"      .+1]23   ",
"        @456   ",
"          .+   ",
"               ",
"               "};
