/* XPM */
static char * gback_disabled_xpm[] = {
"15 15 31 1",
" 	c None",
".	c #BDBEBD",
"+	c #8B8D8B",
"@	c #ACB2AC",
"#	c #9C999C",
"$	c #A4AAA4",
"%	c #B4BAB4",
"&	c #D5D6D5",
"*	c #DEE2DE",
"=	c #B4B2B4",
"-	c #9C9D9C",
";	c #ACAEAC",
">	c #E6E6DE",
",	c #DEDEDE",
"'	c #ACB6AC",
")	c #DEDED5",
"!	c #94998B",
"~	c #7B8D7B",
"{	c #94A58B",
"]	c #A4B69C",
"^	c #A4BEA4",
"/	c #ACBEA4",
"(	c #A4BAA4",
"_	c #7B8173",
":	c #7B897B",
"<	c #94AA8B",
"[	c #A4BA9C",
"}	c #83917B",
"|	c #738173",
"1	c #838D83",
"2	c #737973",
"               ",
"               ",
"               ",
"          .+   ",
"        @#$+   ",
"      .+%&*+   ",
"    =-;>**,+   ",
"  .+'&,***)!   ",
"  .+~{]^//(_   ",
"    @+:<[/(_   ",
"      .+}{[|   ",
"        @1~2   ",
"          .+   ",
"               ",
"               "};
