/* XPM */
static char *gpreview[] = {
/* columns rows colors chars-per-pixel */
"16 16 28 1",
"  c opaque",
". c #267726",
"X c #374f64",
"o c #314e6c",
"O c #4d667e",
"+ c #646464",
"@ c #4b6983",
"# c #5c778f",
"$ c #5f798f",
"% c #7c90a3",
"& c #990000",
"* c #826647",
"= c #b39169",
"- c #8d8d8d",
"; c gray58",
": c #9d9d9d",
"> c #a2a2a2",
", c gray75",
"< c #9db8d2",
"1 c #c5c5c5",
"2 c #cbcbcb",
"3 c #d4d4d4",
"4 c #d8d8d8",
"5 c #e2e2e2",
"6 c #ededed",
"7 c #f4f4f4",
"8 c #fbfbfb",
"9 c None",
/* pixels */
"9999999999999999",
"                ",
" %##$#$$$#####@ ",
" $@@@@@@@@@@@@X ",
" 8888888888888> ",
" 8888888888777> ",
" 88*&88o<78..7> ",
" 88&*88<o87.=7> ",
" 87638853771,6; ",
" 8888878777777- ",
" 88<o87**77oo6; ",
" 88o<77**77oo6- ",
" 8851773276336- ",
" 8777777766666; ",
" 5,11>::::::>;+ ",
"                "
};
