/* XPM */
static char * gsave_xpm[] = {
"15 15 67 1",
" 	c None",
".	c #8B8D8B",
"+	c #4A5052",
"@	c #394041",
"#	c #BDBEBD",
"$	c #A4A5A4",
"%	c #414441",
"&	c #7B858B",
"*	c #A4B6BD",
"=	c #41595A",
"-	c #5A5D5A",
";	c #627173",
">	c #C5D6D5",
",	c #E6EAEE",
"'	c #F6FAFF",
")	c #83A1A4",
"!	c #182420",
"~	c #62757B",
"{	c #E6EEEE",
"]	c #FFFFFF",
"^	c #CDDADE",
"/	c #737573",
"(	c #293439",
"_	c #9CB6BD",
":	c #9CBABD",
"<	c #6A6D6A",
"[	c #7B8D94",
"}	c #EEF2F6",
"|	c #FFFAFF",
"1	c #D5DEE6",
"2	c #83A5B4",
"3	c #414C52",
"4	c #ACC6CD",
"5	c #C5D6DE",
"6	c #627D83",
"7	c #5A7983",
"8	c #62858B",
"9	c #839DA4",
"0	c #D5E2E6",
"a	c #6A858B",
"b	c #ACB6B4",
"c	c #94999C",
"d	c #6A8D94",
"e	c #5A7D83",
"f	c #4A5D62",
"g	c #83A5AC",
"h	c #73999C",
"i	c #B4BEC5",
"j	c #CDD2D5",
"k	c #E6E6E6",
"l	c #D5D6D5",
"m	c #7B898B",
"n	c #293C39",
"o	c #C5D2D5",
"p	c #8B9194",
"q	c #202829",
"r	c #62656A",
"s	c #39484A",
"t	c #6A919C",
"u	c #94AEB4",
"v	c #949594",
"w	c #62696A",
"x	c #525552",
"y	c #182429",
"z	c #182829",
"A	c #414041",
"B	c #6A7173",
"               ",
"       .+@#    ",
"     $%&*=.    ",
"   .-;>,')!    ",
" $%~*{']]^=/   ",
" (_{]]]]]':@#  ",
" <[}]]]]|12=.  ",
" $34']'5)678!  ",
"  %901:abcdef/ ",
"   (ghijklm8n% ",
"   <ahj;olpqr$ ",
"   $stujvwx    ",
"    $yzAB$     ",
"               ",
"               "};
