/* XPM */
static char * gsketchpad_xpm[] = {
"16 16 32 1",
" 	c None",
".	c #7C90A3",
"+	c #5C778F",
"@	c #5F798F",
"#	c #4B6983",
"$	c #374F64",
"%	c #FBFBFB",
"&	c #FFFFFF",
"*	c #A3A3A3",
"=	c #000000",
"-	c #2E4974",
";	c #314E6C",
">	c #2B447D",
",	c #304D6C",
"'	c #304D6D",
")	c #2F4C6F",
"!	c #9D9D9D",
"~	c #EDEDED",
"{	c #949494",
"]	c #9C0000",
"^	c #9A0000",
"/	c #990000",
"(	c #F4F4F4",
"_	c #8D8D8D",
":	c #9B0000",
"<	c #A10000",
"[	c #A90000",
"}	c #A40000",
"|	c #E2E2E2",
"1	c #C4C4C4",
"2	c #ABABAB",
"3	c #646464",
"                ",
"                ",
" .++@+@@++++++# ",
" @############$ ",
" %%%%%&%&&&&&&* ",
" &======&-;;;&* ",
" &=&&&&=&>,')&* ",
" &=&&&&=&&&&&&! ",
" &=&&&&======~{ ",
" &]^/&&=&&&&=(_ ",
" &://===&&&&=~{ ",
" &<:^&=&&&&&=~_ ",
" &[/}&=======~_ ",
" &&&&&(((~~~~~{ ",
" |1112!!!!!!*{3 ",
"                "};
