/* XPM */
static char *05[] = {
/* columns rows colors chars-per-pixel */
"20 20 173 2",
"   c #1e2836",
".  c #282623",
"X  c #222d3d",
"o  c #33322f",
"O  c #343333",
"+  c #373a3e",
"@  c #3d3b38",
"#  c #2b3442",
"$  c #323c49",
"%  c #3a4350",
"&  c #394f6c",
"*  c #3a5374",
"=  c #454e5a",
"-  c #504f4f",
";  c #565655",
":  c #565c5d",
">  c #5a5e5c",
",  c #4e5661",
"<  c #405571",
"1  c #475a76",
"2  c #5a5f63",
"3  c #585f6a",
"4  c #5d615e",
"5  c #4e617b",
"6  c #5e6464",
"7  c #5a687c",
"8  c #606667",
"9  c #606768",
"0  c #666966",
"q  c #636a6b",
"w  c #696c6a",
"e  c #606770",
"r  c #646c74",
"t  c #646e7b",
"y  c #67727a",
"u  c #6d7374",
"i  c #727372",
"p  c #737579",
"a  c #70787e",
"s  c #4b6488",
"d  c #4e698f",
"f  c #4e6c95",
"g  c #576a85",
"h  c #516b8f",
"j  c #586982",
"k  c #516d94",
"l  c #5f7087",
"z  c #54729a",
"x  c #5a769d",
"c  c #5e7aa1",
"v  c #5c7daa",
"b  c #677481",
"n  c #627389",
"m  c #687683",
"M  c #69798c",
"N  c #657d9c",
"B  c #6c7d92",
"V  c #687f9d",
"C  c #797f80",
"Z  c #637ea4",
"A  c #617fa9",
"S  c #7e807f",
"D  c #5e82b2",
"F  c #6c829d",
"G  c #74808e",
"H  c #7d8384",
"J  c #798698",
"K  c #6382ac",
"L  c #6d86a4",
"P  c #6986ae",
"I  c #6486b4",
"U  c #6589ba",
"Y  c #6d8dba",
"T  c #6d90bf",
"R  c #7088a6",
"E  c #7189aa",
"W  c #7291ba",
"Q  c #7f94b2",
"!  c #7894bc",
"~  c #698ec1",
"^  c #6d92c4",
"/  c #6e95ca",
"(  c #7495c3",
")  c #7096cc",
"_  c #7399cf",
"`  c #799cca",
"'  c #739cd5",
"]  c #759fda",
"[  c #77a1dd",
"{  c #7ba1d7",
"}  c #7da5dd",
"|  c #77a4e2",
" . c #78a4e2",
".. c #7fa8e1",
"X. c #7caff5",
"o. c #818585",
"O. c #808688",
"+. c #808994",
"@. c #808c9c",
"#. c #8f9092",
"$. c #979696",
"%. c #989a9d",
"&. c #818ea0",
"*. c #8793a3",
"=. c #8894a4",
"-. c #8c98a9",
";. c #8a9eb8",
":. c #929eae",
">. c #9ca3a4",
",. c #97a4b5",
"<. c #99a5b6",
"1. c #a2a3a3",
"2. c #a4acb0",
"3. c #a7b0b1",
"4. c #afb6b9",
"5. c #b5bdbf",
"6. c #879fc0",
"7. c #82a7da",
"8. c #82a8dd",
"9. c #8eabd4",
"0. c #99aac0",
"q. c #99adc9",
"w. c #97b1d5",
"e. c #95b2da",
"r. c #82ade9",
"t. c #83b2f3",
"y. c #84b5f9",
"u. c #8ebbfa",
"i. c #97b6e0",
"p. c #99b9e4",
"a. c #9bbdea",
"s. c #a6b6cc",
"d. c #aebacc",
"f. c #a8bfdf",
"g. c #b4bcc7",
"h. c #b4bece",
"j. c #9dc0ef",
"k. c #9ec2f2",
"l. c #b7c0c5",
"z. c #bcc2c3",
"x. c #b5c4d7",
"c. c #b9c3d1",
"v. c #aec5e6",
"b. c #a0c4f3",
"n. c #a2c6f9",
"m. c #a4c9fd",
"M. c #a9cffe",
"N. c #b1caeb",
"B. c #b3cdf1",
"V. c #b5d0f5",
"C. c #b6d2f8",
"Z. c #b8d5fc",
"A. c #bcdafe",
"S. c #c1c3c6",
"D. c #c6cccd",
"F. c #cacaca",
"G. c #c2cad6",
"H. c #cad2d3",
"J. c #c6d1e0",
"K. c #ced7e4",
"L. c #d0d8e2",
"P. c #dadde3",
"I. c #d8e0ea",
"U. c #e0e3e8",
"Y. c #e5ebec",
"T. c #eceded",
"R. c #e6eaf1",
"E. c #e9ecf0",
"W. c #eef4f5",
"Q. c #f3f5f5",
"!. c #f1f4f8",
"~. c #f6fbfc",
"^. c #fcfefe",
/* pixels */
"] ) P P P P P P A Z Z x z k k d d z / ] ",
") 7 3 6 r r r e 3 , = $ $ # X X   X * / ",
"Y t B @.*.*.*.@.J B n j 1 1 < & & * * U ",
"W J <.c.c.h.d.s.0.;.;.P Z N k k f z z ^ ",
"( -.G.E.R.P.K.J.x.s.q.6.! Y I A v K v ^ ",
"( :.L.!.U.P.T.~.R.S.%.i e n Z A I I P ^ ",
"( <.g.#.%.F.Q.^.T.F.1.S ; @ O $ g T U / ",
"` +.- i g.T.^.^.^.^.^.Q.5.1.o.; . = T ) ",
"` 2 o.W.^.^.I.H.D.F.D.z.3.l.H.5.: O Z ' ",
"Y 2.^.H.>.H w 6 : : : : 9 w C H u w N [ ",
"Y l.>.: : 2 6 9 9 9 9 9 6 6 2 2 6 w L [ ",
"( a : 9 9 9 9 9 9 6 9 9 6 9 9 9 6 4 L [ ",
"^ q 6 q 9 6 9 6 6 9 9 6 9 9 6 9 9 > R | ",
"U n 9 6 6 6 9 9 q 6 9 6 9 9 9 6 > y 7.{ ",
"I f F y 6 6 6 4 6 6 6 4 4 4 6 r F 7.t.[ ",
"I s v ~ T F M M m r t m B F W | X.X.t.| ",
"U f D ^ _ { { } 7.} r.r.t.t.y.y.t.u.u.} ",
"~ D ` 9.w.e.i.p.p.j.j.j.k.b.n.m.m.M.M.} ",
"' _ w.v.v.N.N.N.N.V.V.C.Z.Z.A.A.A.A.b.' ",
"' ' { 7.} 7.7.7.8.8.7.7.7.8.7.8.8.7.' ' "
};
