/* XPM */
static char *06[] = {
/* columns rows colors chars-per-pixel */
"20 20 192 2",
"   c #1e2836",
".  c #231f1a",
"X  c #24211e",
"o  c #272422",
"O  c #2d2c2a",
"+  c #222d3d",
"@  c #383635",
"#  c #3a3836",
"$  c #3f3f3c",
"%  c #2b3442",
"&  c #323c49",
"*  c #3a4350",
"=  c #394f6c",
"-  c #3a5374",
";  c #454443",
":  c #464648",
">  c #454d59",
",  c #494d51",
"<  c #49505a",
"1  c #525150",
"2  c #56585b",
"3  c #585656",
"4  c #4b5563",
"5  c #405571",
"6  c #475a76",
"7  c #595e66",
"8  c #585f6a",
"9  c #5e625f",
"0  c #4e607a",
"q  c #5e6364",
"w  c #5a687c",
"e  c #616361",
"r  c #63686a",
"t  c #696867",
"y  c #696d6c",
"u  c #606770",
"i  c #666c75",
"p  c #646e7b",
"a  c #6e726f",
"s  c #706f6e",
"d  c #727574",
"f  c #757779",
"g  c #757976",
"h  c #797b7a",
"j  c #4b6589",
"k  c #4e698f",
"l  c #4e6c95",
"z  c #546b8b",
"x  c #586982",
"c  c #516e94",
"v  c #54729b",
"b  c #5e7493",
"n  c #5a769d",
"m  c #5c789e",
"M  c #5c7aa3",
"N  c #5e7fab",
"B  c #62738a",
"V  c #627894",
"C  c #657d9b",
"Z  c #6d7d91",
"A  c #697f9a",
"S  c #637ea4",
"D  c #617fa9",
"F  c #5f81b1",
"G  c #6c819d",
"H  c #74808e",
"J  c #7d8282",
"K  c #798698",
"L  c #6483ad",
"P  c #6c85a4",
"I  c #6986ad",
"U  c #6485b3",
"Y  c #6587b8",
"T  c #6788b6",
"R  c #6589ba",
"E  c #6c8bb4",
"W  c #6d8ebc",
"Q  c #6e90be",
"!  c #718aaa",
"~  c #7591b7",
"^  c #7492bd",
"/  c #7f94b2",
"(  c #698fc3",
")  c #6c92c6",
"_  c #6e94ca",
"`  c #7395c3",
"'  c #7097cc",
"]  c #7698c6",
"[  c #749acd",
"{  c #7997c0",
"}  c #7a9ccb",
"|  c #739cd4",
" . c #749ed9",
".. c #789dd1",
"X. c #76a1dd",
"o. c #7ba1d6",
"O. c #7ca4dc",
"+. c #74a4e5",
"@. c #75a6ea",
"#. c #7aa5e2",
"$. c #7fa9e2",
"%. c #7babed",
"&. c #818386",
"*. c #818788",
"=. c #858a8c",
"-. c #888d8f",
";. c #868b91",
":. c #808b9a",
">. c #8a9294",
",. c #909696",
"<. c #818ea0",
"1. c #8793a3",
"2. c #8894a4",
"3. c #8c98a9",
"4. c #859dbf",
"5. c #8b9eb8",
"6. c #979fa1",
"7. c #929eaf",
"8. c #919fb2",
"9. c #9ba3a4",
"0. c #99a2a8",
"q. c #99a5b6",
"w. c #a1a9ab",
"e. c #a8aeaf",
"r. c #a9b0b1",
"t. c #b7bebf",
"y. c #829dc2",
"u. c #8aa3c4",
"i. c #8fa8c8",
"p. c #82a7da",
"a. c #83a8dd",
"s. c #8eabd4",
"d. c #95abc8",
"f. c #9aaac0",
"g. c #9db1cd",
"h. c #97b1d5",
"j. c #95b3db",
"k. c #80ace7",
"l. c #81aeec",
"z. c #80aff0",
"x. c #81b0ee",
"c. c #84b3f4",
"v. c #8ebbfa",
"b. c #98b7e1",
"n. c #9abae5",
"m. c #9bbcea",
"M. c #a3b5cc",
"N. c #aebacc",
"B. c #aabbd3",
"V. c #a8bfdf",
"C. c #b4bfce",
"Z. c #b8bfc0",
"A. c #9dc0ee",
"S. c #9fc2f3",
"D. c #bac1c2",
"F. c #b2c1d6",
"G. c #b7c6da",
"H. c #bbc5d2",
"J. c #bbc7d8",
"K. c #beccde",
"L. c #aec5e6",
"P. c #a0c4f0",
"I. c #a1c6f9",
"U. c #a4c9fd",
"Y. c #a9cffe",
"T. c #b1caec",
"R. c #b3cdf1",
"E. c #b5d0f5",
"W. c #b6d2f8",
"Q. c #b8d5fc",
"!. c #bcdafe",
"~. c #c2c9ca",
"^. c #c3cdd5",
"/. c #c1cdde",
"(. c #c5d0df",
"). c #cad2d3",
"_. c #cdd4de",
"`. c #cfd8da",
"'. c #d3dcde",
"]. c #c5d1e0",
"[. c #ced7e4",
"{. c #d1d9e5",
"}. c #d3ddea",
"|. c #d8dfe8",
" X c #d8e2e4",
".X c #dde3ec",
"XX c #e4e8ef",
"oX c #e7ebf0",
"OX c #e9edf2",
"+X c #e5f0f2",
"@X c #ebf3f5",
"#X c #eff9fa",
/* pixels */
" .' I I I I I U L S M M v c c k l v ) X.",
"' w 7 w i i i u 7 4 > * & % + +     - _ ",
"~ p Z ;.<.2.2.:.K Z B x 0 6 5 = = - - R ",
"^ K q.C.H.C.C.M.f.5.3.I S n v c l v v ) ",
"` 3.^.OXoX|.{.(.F.M.d.4.~ E I D N L M ) ",
"` 7._.OXoX.X{.(.F.M.d.y.~ E U N F U U _ ",
"] 7.J..X.X[./.G.B.g.i.y.{ W T U F R T _ ",
"` 8.J..X}.K.F.B.g.d.u.y.{ ` ( ( ) _ W ' ",
"` :.;.-.-.-.-.&.f r 2 , , < 4 4 0 b Q | ",
"` : # ; 3 t g g s e 1 ; # O o . X X V X.",
"W d ,.e.D.~.).~.Z.Z.Z.r.&.J Z s , $ b O.",
"W ^.+X+X#X@X+X X`.`.{.~.,.w.w.>.q e P X.",
"Q 0.9.-.*.J h g d a a a a y a y q 9 ! +.",
"R z V G G G G G G G G G P ! I E ` } $.o.",
"R z L ` [ o.o.O.X.X.+.#.+.@.@.@.%.%.%.O.",
"Y j M R ) _ _ ' | X.X.X.+.+.+.@.%.z.c.O.",
"R l F ( } ..o.O.O.$.k.k.l.z.z.c.c.v.v.#.",
"( N } s.j.j.b.n.m.m.m.P.P.I.I.U.U.Y.Y.O.",
"| [ h.V.L.L.T.T.R.R.R.W.Q.Q.Q.!.!.!.P. .",
" . .o.p.p.p.p.p.a.a.a.a.a.a.a.a.a.a.| | "
};
