/* XPM */
static char *08[] = {
/* columns rows colors chars-per-pixel */
"20 20 162 2",
"   c #1e2836",
".  c #262727",
"X  c #272828",
"o  c #2b2825",
"O  c #2c2c2d",
"+  c #222d3d",
"@  c #313131",
"#  c #3c3c3c",
"$  c #2b3442",
"%  c #323c48",
"&  c #3d4041",
"*  c #3a4350",
"=  c #3a4f6c",
"-  c #3a5374",
";  c #444647",
":  c #484746",
">  c #4b4c4b",
",  c #454c58",
"<  c #4e504f",
"1  c #555656",
"2  c #55595b",
"3  c #5b5d5c",
"4  c #4e5660",
"5  c #405470",
"6  c #465a75",
"7  c #575f69",
"8  c #595e66",
"9  c #4d617b",
"0  c #5f6670",
"q  c #5a687c",
"w  c #64615c",
"e  c #636464",
"r  c #636b6d",
"t  c #6b6b6b",
"y  c #606770",
"u  c #656d74",
"i  c #646e7b",
"p  c #6a6d72",
"a  c #6c706f",
"s  c #6c7073",
"d  c #75726e",
"f  c #747473",
"g  c #73777c",
"h  c #76787a",
"j  c #787774",
"k  c #7a7876",
"l  c #7b7b7b",
"z  c #4a6488",
"x  c #4e698f",
"c  c #4d6a93",
"v  c #576983",
"b  c #506a8d",
"n  c #516d94",
"m  c #506e98",
"M  c #54729b",
"N  c #5e7491",
"B  c #5a769d",
"V  c #5e7aa1",
"C  c #5b7dac",
"Z  c #63748d",
"A  c #697a8a",
"S  c #647c9a",
"D  c #6f7f95",
"F  c #697d99",
"G  c #737d85",
"H  c #707f8e",
"J  c #7d7e80",
"K  c #617da5",
"L  c #617fa9",
"P  c #5e82b2",
"I  c #6e8099",
"U  c #74808e",
"Y  c #7d8383",
"T  c #788289",
"R  c #708299",
"E  c #77889c",
"W  c #798799",
"Q  c #7e8992",
"!  c #6382ac",
"~  c #6982a4",
"^  c #6986ae",
"/  c #6587b5",
"(  c #6387b8",
")  c #6488ba",
"_  c #6a8cbb",
"`  c #778ba7",
"'  c #778ea9",
"]  c #748eb1",
"[  c #7f92a6",
"{  c #7a95b7",
"}  c #7c98bd",
"|  c #6b8fc1",
" . c #6c92c7",
".. c #6e95ca",
"X. c #6f98d0",
"o. c #7394c3",
"O. c #7197cd",
"+. c #779ac9",
"@. c #7d9ac2",
"#. c #799bca",
"$. c #739cd5",
"%. c #749ed9",
"&. c #7ea0ce",
"*. c #76a1dc",
"=. c #7da3d7",
"-. c #7da5dc",
";. c #77a3e0",
":. c #78a4e1",
">. c #838383",
",. c #848886",
"<. c #87888a",
"1. c #888887",
"2. c #8b8b8b",
"3. c #878b90",
"4. c #808c9b",
"5. c #959595",
"6. c #949a98",
"7. c #9d9d9d",
"8. c #818ea1",
"9. c #8692a2",
"0. c #8395a9",
"q. c #8b97a8",
"w. c #9b9ea2",
"e. c #9ba1a0",
"r. c #96a2b3",
"t. c #98a4b4",
"y. c #a3a3a4",
"u. c #ababab",
"i. c #b2b2b2",
"p. c #b9b9b9",
"a. c #82a7da",
"s. c #83a8dc",
"d. c #8fabd4",
"f. c #97b1d5",
"g. c #94b1da",
"h. c #82b0ef",
"j. c #84b4f4",
"k. c #84b5f9",
"l. c #8ebbf9",
"z. c #95b4e0",
"x. c #98b7e3",
"c. c #99b9e5",
"v. c #9bbcea",
"b. c #a7b4c5",
"n. c #a8bfdf",
"m. c #b2bdcd",
"M. c #bbc6d5",
"N. c #aec5e5",
"B. c #a0c5f3",
"V. c #a3c9fe",
"C. c #a9cffe",
"Z. c #b0caeb",
"A. c #b3cdf1",
"S. c #b5d0f6",
"D. c #b7d3fa",
"F. c #b9d5fc",
"G. c #bcdafe",
"H. c #c1c1c1",
"J. c #c4cad2",
"K. c #c5ceda",
"L. c #d3d7dc",
"P. c #ebf0f6",
/* pixels */
"%.O.^ ^ ^ ^ ^ ^ L K K V M n n x x m  .%.",
"O.q 8 0 u u u y 7 4 , % % $ + +   + - X.",
"_ i H 4.9.9.8.8.W D Z v 9 6 5 = = - - ) ",
"{ W t.m.M.M.m.b.t.9.8.` K K M n m M M | ",
"o.q.K.P.L.w.J p t e e t d G D L C ! L  .",
"o.r.J.y.t 3 t d f h h f j l k h R / /  .",
"o.t.<.3 d J k d t w w e t l 1.1.j E ) ..",
"#.3.t h J f p t p f p w 1 1 e J Y f ] X.",
"o.l k l >.2.2.,.f j l j 3 1 3 d h d I $.",
"o.J J k 5.y.u.i.5.>.J h t e 3 f h d F *.",
"o.p l l >.i.p.H.H.i.7.1.j p p f Y w N *.",
"o.2 : >.J 2.u.p.p.u.7.2.J j l >.e X I *.",
"| Q > # e f l ,.5.2.2.>.J k t : O < } *.",
") E w.1 O O # 1 1 1 1 2 > @ X O < s -.*.",
"/ x 0.6.h e ; O . o . . O & 1 w u &.h.*.",
"/ z C ' T Y ,.p 1 3 3 3 3 e y Z *.k.j.*.",
"( c P  .#.} [ G u u u u U { -.k.k.l.l.-.",
"| P #.d.g.z.c.c.x.c.c.v.B.V.V.V.C.C.C.-.",
"X.#.f.n.N.N.Z.Z.A.A.S.D.D.D.G.G.G.G.B.$.",
"%.%.=.a.a.a.a.s.s.s.s.s.s.s.s.s.s.-.$.$."
};
