/* XPM */
static char *10[] = {
/* columns rows colors chars-per-pixel */
"20 20 124 2",
"   c #1e2836",
".  c #202c3d",
"X  c #343d49",
"o  c #374e6c",
"O  c #394f6e",
"+  c #3a5374",
"@  c #4d4d4d",
"#  c #4f555d",
"$  c #545454",
"%  c #5c5b5b",
"&  c #595e66",
"*  c #5d6164",
"=  c #5f6469",
"-  c #5a687c",
";  c #63625e",
":  c #636363",
">  c #62666d",
",  c #62696e",
"<  c #6a6a6a",
"1  c #646b74",
"2  c #666e79",
"3  c #66717a",
"4  c #6d757d",
"5  c #706f6d",
"6  c #757575",
"7  c #73777c",
"8  c #797773",
"9  c #7c7d7d",
"0  c #4b668c",
"q  c #4d688e",
"w  c #4d6a91",
"e  c #546d8f",
"r  c #516c93",
"t  c #506f99",
"y  c #53719b",
"u  c #5f7a9c",
"i  c #5f7ca4",
"p  c #606f83",
"a  c #697483",
"s  c #737f8e",
"d  c #7d7e80",
"f  c #617fa8",
"g  c #5e81b1",
"h  c #6c829d",
"j  c #718297",
"k  c #798594",
"l  c #6583ac",
"z  c #6986ae",
"x  c #6485b4",
"c  c #6187bb",
"v  c #6489bb",
"b  c #6a8cbb",
"n  c #7b8fa9",
"m  c #7c91ae",
"M  c #7892b6",
"N  c #7d97b9",
"B  c #698fc2",
"V  c #6c91c5",
"C  c #6e95cb",
"Z  c #6f9ad5",
"A  c #7395c3",
"S  c #7197cd",
"D  c #7799c7",
"F  c #7799c9",
"G  c #7b9cc9",
"H  c #739cd5",
"J  c #739ed9",
"K  c #76a1dc",
"L  c #7da2d5",
"P  c #7ca6dd",
"I  c #81807f",
"U  c #858585",
"Y  c #868788",
"T  c #898784",
"R  c #8b8987",
"E  c #8c8c8c",
"W  c #878d95",
"Q  c #828d9c",
"!  c #8e8f90",
"~  c #888f99",
"^  c #8d9197",
"/  c #908f8d",
"(  c #91908f",
")  c #929292",
"_  c #949699",
"`  c #96989b",
"'  c #9b9b9b",
"]  c #8295ad",
"[  c #8d97a6",
"{  c #8c9aab",
"}  c #969ba3",
"|  c #96a1ae",
" . c #98a4b4",
".. c #9ba8b9",
"X. c #a4a4a5",
"o. c #ababac",
"O. c #b4b4b4",
"+. c #b8b8b8",
"@. c #81a6d7",
"#. c #81a7da",
"$. c #84a9dc",
"%. c #9bafc8",
"&. c #91aed8",
"*. c #97b1d5",
"=. c #85abe1",
"-. c #89afe4",
";. c #84b1ee",
":. c #89b0e7",
">. c #84b3f3",
",. c #8ebcfc",
"<. c #a8bfde",
"1. c #b3bcca",
"2. c #bac2cc",
"3. c #afc6e5",
"4. c #a0c4f0",
"5. c #a9cefe",
"6. c #b1caec",
"7. c #bcdafd",
"8. c #c5c5c5",
"9. c #cccccc",
"0. c #d4d4d4",
"q. c #dbdbdb",
"w. c #e3e3e3",
"e. c #e9e9e9",
/* pixels */
"J S z z z z l f f l f t r r r e w y C J ",
"S - & = 1 2 4 7 9 Y d > # X .     . O Z ",
"b 2 s Q [ } ) ! E R R E E ! a o o + + c ",
"A k ..1.X.E Y E E E ! E Y Y E k t y y V ",
"A { 2.X.Y E ( ' X.o.X.) ) ( U R W l l V ",
"A  .o.Y ( ( o.q.9.8.o.' E E ( Y R m g V ",
"F { ' ( ) +.e.w.q.8.X.) d 9 Y ! Y ^ b S ",
"F } ) ( ' w.w.w.9.X.' Y 6 < 6 E Y Y M C ",
"D _ ( ( O.q.q.9./ R ) Y < : : U E T n Z ",
"A _ ) ( O.8.9.o.E ) E E : % $ 8 E T m H ",
"A ^ ) ) X.O.o.' ( ( ) Y $ $ $ d E T m J ",
"B W ) ( _ ' ) Y d Y d % @ @ $ U Y T N J ",
"b k ) ) ( E Y 8 < % $ @ $ @ < E Y Y @.K ",
"v p R ) ( E 7 < : % % @ @ % Y Y Y 6 G K ",
"x e 7 E ) ( R 6 : % $ % 6 Y Y E 8 j >.K ",
"x 0 u 7 ) ) ! E Y U U Y R Y ( I 4 ;.>.K ",
"v w c h : 9 ) ( ! ! E E E E 5 ; $.,.,.P ",
"B x F &.] > % 9 U I d I 5 $ 3 *.5.5.5.P ",
"H D *.<.6.3.{ , * = = : a %.7.7.7.7.4.H ",
"H J L #.@.#.-.#.L L L L =.:.$.$.$.P H H "
};
