/* XPM */
static char * BSCell_xpm[] = {
"20 20 115 2",
"  	c None",
". 	c #D97577",
"+ 	c #CB6D70",
"@ 	c #AE696A",
"# 	c #AC6567",
"$ 	c #A86163",
"% 	c #995052",
"& 	c #935052",
"* 	c #8F5455",
"= 	c #914D4F",
"- 	c #9B5354",
"; 	c #CD7172",
"> 	c #7C5A5A",
", 	c #645959",
"' 	c #6A5C5E",
") 	c #746464",
"! 	c #796666",
"~ 	c #7C6D6E",
"{ 	c #7C7373",
"] 	c #7C7C7C",
"^ 	c #888686",
"/ 	c #807D7D",
"( 	c #6C6161",
"_ 	c #5D4F4F",
": 	c #493334",
"< 	c #3D2020",
"[ 	c #361E1E",
"} 	c #6E393A",
"| 	c #D56F70",
"1 	c #BB6B6D",
"2 	c #836969",
"3 	c #94797A",
"4 	c #A68D8D",
"5 	c #A39696",
"6 	c #929191",
"7 	c #908E8E",
"8 	c #8C8C8C",
"9 	c #8B8987",
"0 	c #6C3739",
"a 	c #743A3C",
"b 	c #BB6466",
"c 	c #C37375",
"d 	c #B99B9C",
"e 	c #CAB3B3",
"f 	c #A5A4A4",
"g 	c #848584",
"h 	c #908E8D",
"i 	c #C2696C",
"j 	c #AB8D8E",
"k 	c #CCBABA",
"l 	c #9B9696",
"m 	c #ACABAB",
"n 	c #9B9B9B",
"o 	c #999494",
"p 	c #9C8182",
"q 	c #A85F61",
"r 	c #C56C6E",
"s 	c #B49899",
"t 	c #DBDBDB",
"u 	c #D4D4D4",
"v 	c #C5C5C5",
"w 	c #A97B7B",
"x 	c #B46465",
"y 	c #AE9697",
"z 	c #B8B8B8",
"A 	c #E9E9E9",
"B 	c #E3E3E3",
"C 	c #998888",
"D 	c #C77779",
"E 	c #757474",
"F 	c #6A6A6A",
"G 	c #B47879",
"H 	c #91908F",
"I 	c #B4B4B4",
"J 	c #CCCCCC",
"K 	c #636363",
"L 	c #888784",
"M 	c #575857",
"N 	c #D67174",
"O 	c #545454",
"P 	c #958787",
"Q 	c #61605F",
"R 	c #4D4D4D",
"S 	c #5B5B5B",
"T 	c #B97677",
"U 	c #836061",
"V 	c #716F6E",
"W 	c #8B4B4C",
"X 	c #9A5E60",
"Y 	c #DC7678",
"Z 	c #956465",
"` 	c #CC7376",
" .	c #F0898B",
"..	c #DD7C7E",
"+.	c #CB8889",
"@.	c #987475",
"#.	c #81807F",
"$.	c #A57777",
"%.	c #D58A8C",
"&.	c #F0A0A4",
"*.	c #FDA7AA",
"=.	c #CA787A",
"-.	c #D49799",
";.	c #DBA5A6",
">.	c #CB9C9D",
",.	c #665D5E",
"'.	c #B38C8D",
").	c #D79FA1",
"!.	c #EAAAAC",
"~.	c #F5B6BA",
"{.	c #FBBCC1",
"].	c #D68082",
"^.	c #DC8284",
"/.	c #D47D7E",
"(.	c #D98183",
". + @ @ @ @ # $ $ # $ % & & & * = - + . ",
"; > , ' ) ! ~ { ] ^ / ( _ : < [ [ < } | ",
"1 2 3 3 4 5 6 7 8 ^ 9 8 8 7 2 0 0 a a b ",
"c 3 d e f 8 9 8 8 7 7 8 ^ g h 3 % % - i ",
"c j k f ^ 7 6 l f m n o 6 7 ^ 9 p @ q r ",
"c s m 9 6 7 m t u v m n 8 8 7 ^ 9 w x + ",
"c y l h 6 z A B u v f 6 / ] ^ h g C 1 + ",
"D 5 h h n B B B u f n g E F E h 9 9 G | ",
"D l H H I t t J h 9 7 ^ F K K g 8 L w | ",
"c 6 o H I v v m 9 6 h h K M M E 8 L w N ",
"c C 6 H f I m n 7 7 6 ^ O O O / 8 g w N ",
"c P H H n n o ^ / ^ / Q R O O g 9 g G N ",
"b 3 6 H H 8 ^ E F S O O O R F ^ ^ g T N ",
"b U 9 6 7 8 E V K M O O R S 9 ^ 9 E 1 . ",
"x & { h 6 7 8 E K S O M V ^ ^ 8 ] ! ; . ",
"x W X E 6 6 7 8 ^ g g ^ h ^ 8 g ( q Y Y ",
"b = x Z K / 6 7 8 h 8 9 8 8 V , Z `  ...",
"+ $ D +.@., Q ] g #.g #.V M ' $.%.&.*...",
"| =.-.;.;.>.p ( ,.( K ( ~ '.).!.~.{.&.N ",
"N . ..].].].^.].=./.. =...^.].(.^.^.N N "};
