/* XPM */
static char * WSCell_xpm[] = {
"20 20 121 2",
"  	c None",
". 	c #D97575",
"+ 	c #CB6C6C",
"@ 	c #AF6969",
"# 	c #AC6565",
"$ 	c #A75E5E",
"% 	c #A76261",
"& 	c #9B5455",
"* 	c #8D4B4C",
"= 	c #914E4F",
"- 	c #8E4D4D",
"; 	c #984C4C",
"> 	c #CD7171",
", 	c #7C5A5A",
"' 	c #665959",
") 	c #706161",
"! 	c #726262",
"~ 	c #8C7F7F",
"{ 	c #B5ACB0",
"] 	c #D4CBCF",
"^ 	c #DCD3D7",
"/ 	c #BFB5B9",
"( 	c #948789",
"_ 	c #5E4B4B",
": 	c #341B1A",
"< 	c #371E1E",
"[ 	c #743A3B",
"} 	c #BC6A6A",
"| 	c #7B6464",
"1 	c #837070",
"2 	c #A58283",
"3 	c #AD9697",
"4 	c #F1E6EB",
"5 	c #928A8D",
"6 	c #8C8587",
"7 	c #DBCED2",
"8 	c #C4ACAF",
"9 	c #825858",
"0 	c #693435",
"a 	c #BA6564",
"b 	c #987A7A",
"c 	c #B59898",
"d 	c #D2BCBD",
"e 	c #C8BFC4",
"f 	c #777073",
"g 	c #6A6366",
"h 	c #A59CA0",
"i 	c #B0A7AB",
"j 	c #A89FA2",
"k 	c #C5BDC1",
"l 	c #E5DBDF",
"m 	c #A76B6C",
"n 	c #C2696A",
"o 	c #C77979",
"p 	c #A98B8B",
"q 	c #D1C5C8",
"r 	c #F8EEF2",
"s 	c #ADA4AA",
"t 	c #635C5E",
"u 	c #E8DEE2",
"v 	c #FDF3F7",
"w 	c #FFF9FC",
"x 	c #F9EEF3",
"y 	c #A8A0A5",
"z 	c #CDC4C8",
"A 	c #E4CED1",
"B 	c #AC9293",
"C 	c #6A5D5E",
"D 	c #F3E9ED",
"E 	c #ECE2E6",
"F 	c #DACCCF",
"G 	c #D7B5B7",
"H 	c #C27272",
"I 	c #C0AAAB",
"J 	c #766C6D",
"K 	c #C28587",
"L 	c #E1D7DB",
"M 	c #E7E0E5",
"N 	c #E0D5D9",
"O 	c #D29D9E",
"P 	c #C56D6D",
"Q 	c #D8C6C9",
"R 	c #B8AEB1",
"S 	c #DCB7B8",
"T 	c #EADFE3",
"U 	c #DDBEC1",
"V 	c #D47373",
"W 	c #F0E5E9",
"X 	c #BEA3A5",
"Y 	c #C8BFC3",
"Z 	c #CBA2A5",
"` 	c #C58889",
" .	c #8E5B5B",
"..	c #B96464",
"+.	c #9C7677",
"@.	c #DD7C7C",
"#.	c #B35D5E",
"$.	c #9C6161",
"%.	c #C9C1C7",
"&.	c #8D5151",
"*.	c #F08888",
"=.	c #CC8787",
"-.	c #A37373",
";.	c #9E999C",
">.	c #888083",
",.	c #D68A8A",
"'.	c #F0A1A3",
").	c #FDA6A7",
"!.	c #CA7879",
"~.	c #D49797",
"{.	c #DBA5A5",
"].	c #C29393",
"^.	c #7C6C6D",
"/.	c #EBACAD",
"(.	c #F5B6B8",
"_.	c #FBBCBF",
":.	c #D67C7D",
"<.	c #D98081",
"[.	c #DE8484",
"}.	c #E28686",
"|.	c #CB7575",
". + @ @ @ @ # $ # # % & * * = = - ; + . ",
"> , ' ) ! ! ~ { ] ^ ^ / ( _ : : < < [ + ",
"} | 1 2 3 ] 4 / 5 5 6 5 / 7 8 9 0 [ [ a ",
"} b c d 4 e f g h { i { j 6 k l m ; $ n ",
"o p q r s t j u v w v x 4 ^ y z A # % + ",
"o B u ] C ] w w v v x D E E D F ^ G % + ",
"H I E J i v v v w v x D E u l E ] u K + ",
"} q k ~ D v v v x E E E E l L M l N O + ",
"P Q / R v v v v M u u u L ^ ^ L u u S + ",
"} F j / x v v r u T u u ^ ] F ^ T M U V ",
"} d y z 4 4 W E u E E l z z z ^ u M U > ",
"} X z ] E E T l ^ L ^ z Y z z u E M Z + ",
"a 2 l ] E T N ^ 7 z Y Y Y k ] u M ^ ` V ",
"a  .] ^ N u N ^ ] z e Y k ] u l D 8 } . ",
"..* 3 l u u E N F ] z ] ^ u l W ^ +.+ . ",
"..*  .6 u E u M M l u u u l 4 F ! $ @.. ",
"..- #.$.6 ] D D E E E E 4 4 %.C &.V *.@.",
"P #.o =.-.J 6 j e ^ N e ;.>.! m ,.'.).@.",
"V !.~.{.G ].b 1 ^.J J 1 1 2 O /.(._.'.V ",
"V . :.:.:.<.[.}.:.|.> @.*.}.<.<.<.<.. V "};
