<?xml version="1.0" encoding="UTF-8" standalone="no"?>
<!DOCTYPE svg PUBLIC "-//W3C//DTD SVG 20010904//EN"
"http://www.w3.org/TR/2001/REC-SVG-20010904/DTD/svg10.dtd">
<!-- Created with Sodipodi ("http://www.sodipodi.com/") -->
<svg
   id="svg101"
   sodipodi:version="0.31"
   width="210mm"
   height="297mm"
   sodipodi:docname="cf-label.svg"
   xmlns="http://www.w3.org/2000/svg"
   xmlns:sodipodi="http://sodipodi.sourceforge.net/DTD/sodipodi-0.dtd"
   xmlns:xlink="http://www.w3.org/1999/xlink">
  <defs
     id="defs103" />
  <sodipodi:namedview
     id="base" />
  <g
     id="g123"
     transform="translate(-11.6775,-42.1473)">
    <rect
       style="font-size:12;fill:none;fill-rule:evenodd;stroke:#000000;stroke-width:1.77863;stroke-linecap:round;stroke-linejoin:bevel;"
       id="rect104"
       width="131.102341"
       height="109.842558"
       x="54.998128"
       y="85.176333" />
    <g
       id="g105"
       transform="matrix(0.142876,0,0,0.142877,64.2139,78.549)">
      <sodipodi:namedview
         id="namedview106" />
      <defs
         id="defs102">
        <marker
           id="ArrowEnd"
           viewBox="0 0 10 10"
           refX="0"
           refY="5"
           markerUnits="strokeWidth"
           markerWidth="4"
           markerHeight="3"
           orient="auto">
          <path
             d="M 0 0 L 10 5 L 0 10 z" />
        </marker>
        <marker
           id="ArrowStart"
           viewBox="0 0 10 10"
           refX="10"
           refY="5"
           markerUnits="strokeWidth"
           markerWidth="4"
           markerHeight="3"
           orient="auto">
          <path
             d="M 10 0 L 0 5 L 10 10 z" />
        </marker>
      </defs>
      <path
         style="font-size:12;fill:none;stroke:#000000;stroke-width:25.5118;font-family:Times;"
         d="M 629.699 381.701C 629.699 518.589 518.589 629.699 381.701 629.699C 244.814 629.699 133.703 518.589 133.703 381.701C 133.703 244.814 244.814 133.703 381.701 133.703C 518.589 133.703 629.699 244.814 629.699 381.701L 629.699 381.701z"
         id="path107"
         transform="translate(7.17934,-40.6828)" />
      <g
         id="g108"
         transform="translate(7.17934,-40.6828)"
         style="font-size:12;">
        <path
           style="stroke:#ffffff; stroke-width:8.5039400000000001; fill:#ffffff; font-family:Times; font-size:12"
           d="M 607.84 383.383C 607.84 508.205 506.523 609.522 381.701 609.522C 256.879 609.522 155.562 508.205 155.562 383.383C 155.562 258.561 256.879 157.243 381.701 157.243C 506.523 157.243 607.84 258.561 607.84 383.383L 607.84 383.383z"
           id="path109" />
        <path
           style="stroke:none; fill:#000000; font-family:Times; font-size:12"
           d="M 196.451 265.726C 212.27 335.762 238.131 369.927 267.903 343.132C 297.674 316.338 302.14 244.886 300.652 191.297C 300.361 180.824 300.966 172.093 302.291 164.865C 312.794 155.281 355.522 145.501 357.329 154.913C 361.36 175.91 356.013 205.314 376.569 201.717C 395.611 198.384 399.429 170.692 408.861 156.423C 414.176 148.384 446.02 161.101 448.734 166.269C 458.566 184.991 444.021 207.17 459.186 218.835C 472.862 229.355 488.879 194.662 508.316 189.86C 516.382 187.866 539.591 214.193 540.426 218.517C 545.177 243.1 515.822 258.798 524.683 270.191C 530.514 277.688 555.224 260.48 575.335 253.259C 591.164 247.576 599.834 288.593 596.087 296.323C 585.879 317.379 566.5 335.508 553.865 356.165C 542.857 374.163 524.721 442.851 505.332 471.895C 482.412 506.227 483.003 529.949 488.957 574.607C 491.768 595.688 399.62 620.475 370.256 606.534C 283.387 565.296 197.215 486.289 153.502 368.549C 137.569 325.633 190.963 241.43 196.451 265.726L 196.451 265.726z"
           id="path110" />
      </g>
      <path
         style="font-size:12;stroke:#ffffff;stroke-width:8.50394;font-family:Times;fill-rule:evenodd;"
         d="M 629.699 381.701C 629.699 518.589 518.589 629.699 381.701 629.699C 244.814 629.699 133.703 518.589 133.703 381.701C 133.703 244.814 244.814 133.703 381.701 133.703C 518.589 133.703 629.699 244.814 629.699 381.701L 629.699 381.701zM 592.708 381.701C 592.708 498.171 498.171 592.708 381.701 592.708C 265.232 592.708 170.694 498.171 170.694 381.701C 170.694 265.232 265.232 170.694 381.701 170.694C 498.171 170.694 592.708 265.232 592.708 381.701L 592.708 381.701z"
         id="path112"
         transform="translate(7.17934,-40.6828)" />
      <g
         id="g113"
         transform="translate(7.17934,-40.6828)"
         style="font-size:12;">
        <path
           style="stroke:#ffffff; stroke-width:8.5039400000000001; fill:#000000; font-family:Times; font-size:12"
           d="M 300.065 507.444C 324.049 524.936 350.738 533.592 380.312 533.592C 405.017 533.592 426.296 528.002 443.788 517.002C 461.28 505.821 470.117 490.493 470.117 471.017C 470.117 435.853 448.116 418.18 404.296 418.18C 397.984 418.18 390.591 419.082 381.755 420.885C 372.918 422.689 366.787 423.59 363 423.59C 354.705 423.59 350.557 421.246 350.557 416.377C 350.557 413.672 353.262 410.967 359.033 408.443C 364.443 405.738 367.689 404.475 368.59 404.475L 375.984 405.557C 381.394 406.098 385.722 406.459 388.968 406.459C 409.345 406.459 426.296 399.787 439.821 386.803C 453.166 373.458 459.838 355.966 459.838 333.966C 459.838 318.638 456.051 305.293 448.657 293.932L 470.117 278.243L 438.919 249.931L 421.247 270.489C 409.525 263.997 395.099 260.751 377.787 260.751C 355.606 260.751 337.032 267.424 321.885 281.129C 306.737 294.473 299.163 311.605 299.163 332.343C 299.163 358.491 310.163 378.868 332.163 393.114C 325.311 396 319.36 400.508 314.13 406.639C 308.901 412.77 306.376 419.082 306.376 425.394C 306.376 447.574 321.885 458.755 352.901 458.755C 357.951 458.755 365.525 458.214 375.443 456.952C 385.361 455.689 392.935 455.148 397.984 455.148C 416.558 455.148 425.936 460.919 425.936 472.28C 425.936 478.952 421.788 484.362 413.312 488.149C 404.837 491.936 394.197 493.919 381.214 493.919C 361.918 493.919 344.246 486.706 328.557 472.28L 300.065 507.444L 300.065 507.444zM 345.147 332.523C 345.147 322.244 348.393 313.949 354.885 307.457C 361.377 300.965 369.853 297.719 380.132 297.719C 390.05 297.719 397.984 301.145 404.116 307.818C 410.427 314.49 413.493 322.785 413.493 332.523C 413.493 344.245 410.607 353.622 404.837 360.294C 399.066 366.966 390.771 370.393 380.132 370.393C 369.492 370.393 360.836 366.966 354.705 360.114C 348.213 353.081 345.147 343.884 345.147 332.523L 345.147 332.523z"
           id="path114" />
      </g>
    </g>
    <text
       style="fill:black;stroke:none;font-family:Bitstream Vera Sans;font-style:normal;font-weight:bold;font-size:11;fill-opacity:1;stroke-opacity:1;stroke-width:1pt;stroke-linejoin:miter;stroke-linecap:butt;text-anchor:start;writing-mode:lr;"
       x="61.8173"
       y="190.303"
       id="text119">
      <tspan
         x="61.8173"
         y="190.303"
         sodipodi:role="line"
         id="tspan132">
Familiar 0.7 / GPE2</tspan>
      <tspan
         x="61.8173"
         y="201.303"
         sodipodi:role="line"
         id="tspan134">
</tspan>
    </text>
  </g>
</svg>
