<?xml version="1.0" encoding="UTF-8" standalone="no"?>
<!DOCTYPE svg PUBLIC "-//W3C//DTD SVG 1.0//EN"
"http://www.w3.org/TR/2001/REC-SVG-20010904/DTD/svg10.dtd">
<!-- Created with Inkscape (http://www.inkscape.org/) -->
<svg
   id="svg989"
   sodipodi:version="0.32"
   inkscape:version="0.40cvs"
   xmlns="http://www.w3.org/2000/svg"
   xmlns:sodipodi="http://sodipodi.sourceforge.net/DTD/sodipodi-0.dtd"
   xmlns:inkscape="http://www.inkscape.org/namespaces/inkscape"
   xmlns:xlink="http://www.w3.org/1999/xlink"
   xmlns:rdf="http://www.w3.org/1999/02/22-rdf-syntax-ns#"
   xmlns:cc="http://web.resource.org/cc/"
   xmlns:dc="http://purl.org/dc/elements/1.1/"
   width="210mm"
   height="297mm"
   sodipodi:docbase="/opt/applications/gpe_cvs_dev/gpe/gpe-logo"
   sodipodi:docname="gpe-logo2.svg">
  <defs
     id="defs991" />
  <sodipodi:namedview
     id="base"
     pagecolor="#ffffff"
     bordercolor="#666666"
     borderopacity="1.0"
     inkscape:pageopacity="0.0"
     inkscape:pageshadow="2"
     inkscape:zoom="5.8876219"
     inkscape:cx="164.68138"
     inkscape:cy="630.57231"
     inkscape:window-width="908"
     inkscape:window-height="726"
     inkscape:window-x="184"
     inkscape:window-y="36" />
  <metadata
     id="metadata992">
    <rdf:RDF
       id="RDF993">
      <cc:Work
         rdf:about=""
         id="Work994">
        <dc:format
           id="format995">image/svg+xml</dc:format>
        <dc:type
           id="type997"
           rdf:resource="http://purl.org/dc/dcmitype/StillImage" />
      </cc:Work>
    </rdf:RDF>
  </metadata>
  <g
     id="g625"
     transform="matrix(0.375000,0.000000,0.000000,0.375000,142.5324,31.84601)">
    <path
       style="font-size:12.000000;fill:#3673b9;fill-rule:evenodd;stroke:#000000;stroke-width:5.0000000;stroke-linecap:round;stroke-linejoin:round;"
       d="M 94.024300,653.14400 C 92.914800,643.84800 92.792500,633.53000 100.93700,626.20500 C 110.40300,617.65400 128.33900,609.24000 161.17900,608.43700 C 198.93700,607.89500 218.38600,616.40600 225.07600,630.58000 C 228.36500,637.91400 224.72100,648.08900 221.44800,650.92700 C 213.78000,658.20700 201.68300,661.71100 188.67300,661.84800 C 186.64100,661.92800 175.96700,663.21100 169.53100,664.71300 C 164.67300,665.76300 155.85000,669.83400 156.45900,677.06300 C 156.84400,681.44700 161.19300,684.03400 165.18300,684.87100 C 170.44500,686.33900 176.02700,688.99000 178.25800,694.85900 C 181.54600,704.10500 177.95900,710.95700 168.80000,715.90300 C 161.70900,719.63400 154.41500,719.21300 147.27800,719.07100 C 140.14100,718.92900 133.16200,719.06600 126.70000,716.62600 C 117.33000,713.31500 110.46300,707.24700 105.64500,695.93300 C 97.880600,678.55500 95.433800,662.38300 94.024300,653.14400 z "
       id="path616"
       sodipodi:nodetypes="cssssssssssssss" />
    <path
       style="font-size:12.000000;fill:#3673b9;fill-rule:evenodd;stroke:#000000;stroke-width:5.0000000;stroke-linecap:round;stroke-linejoin:round;"
       d="M 194.06200,704.69000 C 193.14000,694.18500 196.65200,689.20800 200.95300,687.12400 C 209.47200,682.64900 222.59000,684.24800 225.98700,684.09900 C 229.38500,683.95100 240.20900,683.73500 243.86500,684.20500 C 249.75400,684.60100 256.04900,688.54300 258.82000,692.57100 C 265.33200,701.23200 261.46900,710.70000 256.41100,712.48900 C 249.96200,715.24400 244.28900,715.67700 227.77400,716.56400 C 204.06500,718.34400 195.45600,716.62200 194.06200,704.69000 z "
       id="path617"
       sodipodi:nodetypes="csssssss" />
    <path
       style="font-size:12.000000;fill:#3673b9;fill-rule:evenodd;stroke:#000000;stroke-width:5.0000000;stroke-linecap:round;stroke-linejoin:round;"
       d="M 223.57200,534.43700 C 234.34600,534.71200 236.99600,549.59900 235.82900,563.59600 C 235.42100,567.17400 233.42900,584.09200 233.00200,587.69200 C 231.88200,597.71000 226.09400,605.34000 215.92800,601.76400 C 208.09500,599.27900 204.24500,594.86200 204.96100,585.10200 C 205.23600,571.73100 206.46300,562.43500 206.90100,558.88100 C 208.57200,545.91000 212.50900,533.78300 223.57200,534.43700 z "
       id="path618"
       sodipodi:nodetypes="cssssss" />
    <path
       style="font-size:12.000000;fill:#3673b9;fill-rule:evenodd;stroke:#000000;stroke-width:5.0000000;stroke-linecap:round;stroke-linejoin:round;"
       d="M 190.99600,543.84400 C 191.24800,547.43500 190.83000,570.43000 190.84200,574.05500 C 190.52300,588.35700 184.24100,590.16500 176.73700,590.02900 C 168.36500,589.86800 163.49000,586.73400 162.86800,574.19100 C 162.79600,570.77900 162.30200,547.26500 162.34300,543.72400 C 162.46700,532.53500 165.29600,520.12200 176.46100,519.77700 C 188.95300,519.79900 190.56900,532.18000 190.99600,543.84400 z "
       id="path619"
       sodipodi:nodetypes="cssssss" />
    <path
       style="font-size:12.000000;fill:#3673b9;fill-rule:evenodd;stroke:#000000;stroke-width:5.0000000;stroke-linecap:round;stroke-linejoin:round;"
       d="M 130.75800,527.27800 C 119.98100,527.40200 117.12400,542.25000 118.09400,556.26200 C 118.45200,559.84600 120.20700,576.79000 120.58400,580.39500 C 121.56300,590.42800 126.70600,597.39900 135.90500,595.19800 C 144.24400,593.30800 148.70100,589.50600 148.65900,578.19800 C 148.24400,564.83100 147.47300,555.51300 147.08600,551.95300 C 145.59700,538.96000 141.82900,526.77900 130.75800,527.27800 z "
       id="path620"
       sodipodi:nodetypes="cssssss" />
    <path
       style="font-size:12.000000;fill:#3673b9;fill-rule:evenodd;stroke:#000000;stroke-width:5.0000000;stroke-linecap:round;stroke-linejoin:round;"
       d="M 85.985600,547.51200 C 75.810100,548.42000 74.216900,562.55700 76.178700,575.63100 C 76.784300,578.96400 79.706000,594.21600 81.361600,598.08600 C 84.042800,607.18700 88.785900,615.40600 97.975700,610.33300 C 107.28300,605.46700 110.04500,600.46700 108.76200,592.93600 C 106.17000,580.73900 104.92000,575.86400 103.25700,569.46300 C 99.908700,557.61300 96.410300,546.23200 85.985600,547.51200 z "
       id="path621"
       sodipodi:nodetypes="cssssss" />
  </g>
</svg>
