/* XPM */
static char *01[] = {
/* columns rows colors chars-per-pixel */
"20 20 138 2",
"   c #1a2534",
".  c #1e2937",
"X  c #1f2d3f",
"o  c #334a69",
"O  c #3b5374",
"+  c #48505b",
"@  c #595e66",
"#  c #5c6163",
"$  c #5a687c",
"%  c #63696a",
"&  c #616770",
"*  c #626972",
"=  c #646e7b",
"-  c #6c7376",
";  c #6e757e",
":  c #707677",
">  c #70777d",
",  c #7b7f7d",
"<  c #4c678d",
"1  c #4d688d",
"2  c #4e6a91",
"3  c #4c6c98",
"4  c #596b82",
"5  c #5a6f8a",
"6  c #506c93",
"7  c #54729b",
"8  c #597191",
"9  c #5e7da7",
"0  c #6b7783",
"q  c #737b83",
"w  c #727e8e",
"e  c #627ea6",
"r  c #5e81b1",
"t  c #74808f",
"y  c #7c8284",
"u  c #7d838a",
"i  c #7c8796",
"p  c #7a8798",
"a  c #7d8a9c",
"s  c #6482ab",
"d  c #6c86a7",
"f  c #6986ae",
"g  c #6586b3",
"h  c #6186b9",
"j  c #6588ba",
"k  c #6b8cb9",
"l  c #698fc2",
"z  c #6d91c4",
"x  c #6c94cb",
"c  c #6e98d4",
"v  c #7294c2",
"b  c #7197cd",
"n  c #779bce",
"m  c #799bc9",
"M  c #739cd4",
"N  c #759fda",
"B  c #77a2dc",
"V  c #7da3d7",
"C  c #7ca5dd",
"Z  c #808788",
"A  c #838886",
"S  c #878f90",
"D  c #808c9d",
"F  c #888f90",
"G  c #899091",
"H  c #999e9d",
"J  c #8796ab",
"K  c #8d9aa8",
"L  c #949faf",
"P  c #96a1ad",
"I  c #9da4a5",
"U  c #91a4bf",
"Y  c #98a4b5",
"T  c #a4acae",
"R  c #a7afb0",
"E  c #abb3b4",
"W  c #aeb7b8",
"Q  c #afb8b6",
"!  c #b6bebf",
"~  c #85a2ca",
"^  c #89a3c4",
"/  c #81a6d8",
"(  c #83a9dd",
")  c #97b1d5",
"_  c #91b0dc",
"`  c #9cb3d0",
"'  c #80aff0",
"]  c #8ab1e6",
"[  c #8bb2ea",
"{  c #85b5f7",
"}  c #8ebbfa",
"|  c #90bfff",
" . c #a1b6cd",
".. c #aab5c0",
"X. c #a7bddc",
"o. c #a8bedd",
"O. c #b3bcc1",
"+. c #b1bec8",
"@. c #9dc0ef",
"#. c #abc0d8",
"$. c #bdc4c4",
"%. c #bfc7c8",
"&. c #bfc8c8",
"*. c #b7c7d9",
"=. c #bec7d2",
"-. c #bcc8d2",
";. c #a0c4f0",
":. c #a9cefe",
">. c #a9d0ff",
",. c #b0c9ea",
"<. c #bdcfe0",
"1. c #b8d5f7",
"2. c #bcdbfd",
"3. c #c3cbcc",
"4. c #c4ccd3",
"5. c #c8cfd1",
"6. c #cad0ce",
"7. c #c3d1db",
"8. c #cad3d4",
"9. c #cfd7d8",
"0. c #d3d9d5",
"q. c #d4dcdd",
"w. c #cfdbe0",
"e. c #d5dfe2",
"r. c #d7e0e2",
"t. c #dbe4e5",
"y. c #dee7e8",
"u. c #dfe8e9",
"i. c #e0e7e7",
"p. c #e0e8e6",
"a. c #e2ebec",
"s. c #e5eef1",
"d. c #e7f0f2",
"f. c #e9f3f4",
"g. c #eef7f8",
"h. c #eff8fa",
"j. c #f3fcfd",
"k. c #f9ffff",
/* pixels */
"N x f f f f s s f s s s 6 < 6 1 1 7 x B ",
"b $ @ & % $ u $.q.0.q.q.T +     X X O x ",
"k = t D P 8.d.$.G G S S $.u.+.4 o O O h ",
"k p Y =.d.%.- % I E R E I G $.u.d 3 7 l ",
"m K 4.g.T # I i.j.j.j.g.d.q.I 3.r.f 9 z ",
"v L u.8.% 8.k.j.j.j.j.d.d.a.f.8.9.*.r x ",
"v ..a.- T j.j.j.j.j.h.d.a.t.t.u.8.y.^ x ",
"k 4.%.u f.j.j.j.g.d.a.a.t.t.q.u.t.y.` x ",
"k 7.W W j.j.j.j.u.t.u.u.q.9.8.t.y.p.#.x ",
"v w.I ! j.j.j.f.u.i.u.a.9.8.8.q.u.p.<.M ",
"v t.T 5.d.a.a.a.u.i.a.t.3.3.3.q.y.p.<.b ",
"k O.q.q.a.u.i.r.q.q.q.3.%.3.3.t.y.a. .c ",
"j J r.8.a.y.q.q.8.4.%.%.%.$.8.y.u.r.~ B ",
"j 5 8.r.r.p.r.q.8.5.%.%.$.8.y.t.d.-.B B ",
"j 1 K p.a.y.a.q.8.8.4.8.q.u.t.s.9.^ C B ",
"g 1 5 y q.d.t.y.y.y.t.u.t.t.d.8.w C } B ",
"j 2 j s , 3.f.f.a.u.u.s.d.d.$.> ( | } B ",
"x r m ] ^ ; A I 3.q.e.$.H , w } :.:.:.C ",
"c m ) #.,.X.J i 0 - - q D U 1.2.w.2.;.N ",
"M M V / / ( ] ] / n n ( [ [ ( ( C C N N "
};
