/* XPM */
static char *02[] = {
/* columns rows colors chars-per-pixel */
"20 20 125 2",
"   c #1a2534",
".  c #1e2937",
"X  c #202c3c",
"o  c #354c6b",
"O  c #3b5374",
"+  c #474f59",
"@  c #515758",
"#  c #545a5c",
"$  c #595f62",
"%  c #5c6263",
"&  c #54657d",
"*  c #5a687c",
"=  c #60666f",
"-  c #646a6b",
";  c #656c75",
":  c #646e7b",
">  c #6c7374",
",  c #757c7d",
"<  c #4b668a",
"1  c #4d688f",
"2  c #4e6b92",
"3  c #4e6e9a",
"4  c #506c91",
"5  c #54719a",
"6  c #597191",
"7  c #5d7da7",
"8  c #637c9e",
"9  c #747f8e",
"0  c #627ea6",
"q  c #607ea8",
"w  c #5e81b2",
"e  c #7c8283",
"r  c #7d8389",
"t  c #7a8697",
"y  c #6382ac",
"u  c #6986af",
"i  c #6686b3",
"p  c #6588b9",
"a  c #6c8dbc",
"s  c #7a8ba0",
"d  c #7b96b9",
"f  c #698fc2",
"g  c #6c92c7",
"h  c #6d94cb",
"j  c #6e97d1",
"k  c #7394c3",
"l  c #7197cd",
"z  c #799bca",
"x  c #739cd5",
"c  c #749ed9",
"v  c #76a0d9",
"b  c #7da3d7",
"n  c #7ba4dd",
"m  c #7fabe6",
"M  c #7faeee",
"N  c #858b8c",
"B  c #888e8f",
"V  c #818d9d",
"C  c #898f90",
"Z  c #8c9394",
"A  c #909697",
"S  c #909798",
"D  c #949b9c",
"F  c #989e9e",
"G  c #8c98a9",
"H  c #899cb2",
"J  c #929ea7",
"K  c #959fab",
"L  c #89a1bd",
"P  c #9da4a5",
"I  c #96a2b2",
"U  c #93a6bc",
"Y  c #9ba6b5",
"T  c #a4abac",
"R  c #a3adb3",
"E  c #a8afb0",
"W  c #abb0ae",
"Q  c #a7b0b4",
"!  c #a7b2b9",
"~  c #adb4b5",
"^  c #aeb6b9",
"/  c #b1b6b4",
"(  c #b0b7b8",
")  c #b2b8b6",
"_  c #b2babb",
"`  c #82a7d9",
"'  c #83a9dd",
"]  c #8eabd4",
"[  c #8aabd8",
"{  c #96acc6",
"}  c #9aacc0",
"|  c #99afc8",
" . c #97b2d5",
".. c #94b2da",
"X. c #9ab8dd",
"o. c #83aae1",
"O. c #82b1f3",
"+. c #86b6fa",
"@. c #8ebbfa",
"#. c #a5b3c0",
"$. c #adb9c3",
"%. c #a3b9d4",
"&. c #b5beca",
"*. c #a9c0df",
"=. c #b7c0c2",
"-. c #bac2c3",
";. c #b3c4d8",
":. c #acc5e5",
">. c #adc6e8",
",. c #afc9ea",
"<. c #a0c4f0",
"1. c #a3cafe",
"2. c #aacffe",
"3. c #b6cae4",
"4. c #b2cae9",
"5. c #b8d2f6",
"6. c #b8d7fe",
"7. c #bcdafd",
"8. c #c0c7cc",
"9. c #c1c9ca",
"0. c #c4cdd3",
"q. c #cad3d4",
"w. c #cfd8d9",
"e. c #d3dcdc",
"r. c #d8e0e2",
/* pixels */
"c l u u u u 0 q u u 0 0 5 1 2 1 1 5 h v ",
"l * $ % ; > N T E E E E C + X   . . O h ",
"a 6 t t I ( _ P N N N N T &.J & o O O p ",
"d t Y &._ T , # @ @ @ @ # , E _ y 3 5 a ",
"d G 8.9.A $ # - S E ~ T F , # F ! y y g ",
"k I 8.T - $ N 9.r.e.e.q.0._ D N W U w h ",
"k Y _ 9 @ B r.e.e.q.q.8.-.( _ / S ~ d h ",
"k R T # > q.w.w.w.8.-.8._ ( / / Q ~ L h ",
"k R D # T q.9.q.) ~ ~ ~ ~ T P ! ^ ) U j ",
"k Q B - =.9.9.-.~ / ^ ~ T P T Q ~ ) } x ",
"k ( N > _ _ _ ( ~ ~ ( ~ F D S T ^ ~ ! x ",
"a R S e _ ( ^ T T ~ ~ P C S Z T ^ ~ | c ",
"p s Q Z ( ~ T P P S Z N N N F ( ~ ^ [ v ",
"p 6 ! P Q ~ P P Z Z N B N Z Q ^ ) ! m v ",
"i < H ~ T ( ~ P S Z N C D ~ ) ( ) ..M n ",
"i < 7 U ) ~ ~ / ~ Q T ~ ( ^ ( / ..M O.n ",
"p 2 w g { ~ ~ ( ^ ^ ) ( ) ) ~ X.+.@.@.n ",
"g w z ....%.$.^ ~ ~ ) ^ _ $.:.1.1.2.2.n ",
"j z  .%.:.:.,.4.3.;.;.3.5.6.6.6.7.7.<.x ",
"c c b ` ` ` ' ' o.o.o.o.o.o.' ' ' ' x x "
};
