/* XPM */
static char *03[] = {
/* columns rows colors chars-per-pixel */
"20 20 114 2",
"   c #1e2836",
".  c #222e3e",
"X  c #273141",
"o  c #323943",
"O  c #374d6c",
"+  c #384f6c",
"@  c #3f5068",
"#  c #3a5374",
"$  c #45484d",
"%  c #494b50",
"&  c #525559",
"*  c #53595a",
"=  c #595e5d",
"-  c #595e63",
";  c #5d615e",
":  c #5e6464",
">  c #5a687c",
",  c #606667",
"<  c #606668",
"1  c #63696c",
"2  c #606770",
"3  c #666e75",
"4  c #646d79",
"5  c #686f73",
"6  c #686f79",
"7  c #677077",
"8  c #677078",
"9  c #6d7475",
"0  c #767d7f",
"q  c #4b668c",
"w  c #4e698f",
"e  c #4c6992",
"r  c #536e92",
"t  c #506f99",
"y  c #54729b",
"u  c #5c79a2",
"i  c #647386",
"p  c #617288",
"a  c #6a7680",
"s  c #657a96",
"d  c #737c83",
"f  c #737f8e",
"g  c #607da6",
"h  c #617fa8",
"j  c #5e81b1",
"k  c #77828c",
"l  c #708092",
"z  c #7c8693",
"x  c #6583ac",
"c  c #6a83a2",
"v  c #6986ae",
"b  c #6385b4",
"n  c #6489bb",
"m  c #698ab7",
"M  c #6d8db9",
"N  c #6e90be",
"B  c #748caa",
"V  c #718eb4",
"C  c #7590b4",
"Z  c #7894b9",
"A  c #698fc2",
"S  c #6c91c5",
"D  c #6e95ca",
"F  c #7394c3",
"G  c #7197cd",
"H  c #7598c7",
"J  c #799bc9",
"K  c #739cd4",
"L  c #749ed9",
"P  c #76a1dd",
"I  c #7da3d7",
"U  c #7ba5dd",
"Y  c #838a8b",
"T  c #828e9d",
"R  c #8a9191",
"E  c #8f9699",
"W  c #949a9d",
"Q  c #8895a3",
"!  c #8e9cad",
"~  c #879ab1",
"^  c #959fad",
"/  c #9aa1a2",
"(  c #9ea7b0",
")  c #9aa9bb",
"_  c #a1a5a9",
"`  c #a5acad",
"'  c #afb6b6",
"]  c #a9b1bd",
"[  c #b0b7b7",
"{  c #b4babf",
"}  c #81a6d9",
"|  c #83a9dd",
" . c #8eadd9",
".. c #93add1",
"X. c #97b1d5",
"o. c #85ade3",
"O. c #83aee8",
"+. c #88afe6",
"@. c #83b3f5",
"#. c #8bb5f1",
"$. c #8ebcfb",
"%. c #a2b5d0",
"&. c #a4b8d1",
"*. c #a8bfde",
"=. c #bec4c5",
"-. c #bcc4cf",
";. c #aec6e7",
":. c #a0c4f0",
">. c #a5cbfe",
",. c #a9cefe",
"<. c #b0c9eb",
"1. c #bcdafd",
"2. c #c6cdcd",
"3. c #c8cfd0",
/* pixels */
"L G v v v v v v h g u y y r r w w t D P ",
"G > - : 3 6 2 , - & $ $ o X . .   . # D ",
"M 4 f T T Y _ 2.3.3.3.2.E 4 & O + # # n ",
"N z ) %._ 2.[ 0 9 9 9 5 Y ` Q p t y t S ",
"F ^ -.=.[ 0 * = = , - - - - Y R s x x S ",
"F ^ { R * = < < , < < , , , = , 7 c j D ",
"F ^ ^ = , < , , , , , , , , , , < a n G ",
"H ( 9 ; , , , , , , , , , , , , : 1 V G ",
"J 0 = , , , , , , , , , , , , , , , B K ",
"F 5 , , , , , , , , , , , , , , , , B K ",
"F 1 , , , , , , , , , , , , , , , ; c P ",
"S : , , , , , , , , , , , , , , , ; c P ",
"S 3 , , , , , , , , , , , , , , , : Z P ",
"n i , , , , , , , , , , , , , , : 7 o.P ",
"m r 7 - < < , , , , , , , , , < ; B @.P ",
"b q s < - < , , , , , , , , < = 8 O.@.U ",
"m e j C 3 : : : < < < : < : ; l #.$.$.U ",
"S j J  ...k : : = : ; = : 1 ~ >.>.,.,.U ",
"K J X.*.;.;.%.) Q d k ! %.<.1.1.1.1.:.K ",
"K L I } } } o.o.o.| | +.o.o.| | | U K K "
};
