/* XPM */
static char *04[] = {
/* columns rows colors chars-per-pixel */
"20 20 138 2",
"   c #1e2836",
".  c #212d3d",
"X  c #2a3341",
"o  c #323c4a",
"O  c #3a4453",
"+  c #394e6c",
"@  c #3a5374",
"#  c #41464d",
"$  c #44484e",
"%  c #454c56",
"&  c #444d5b",
"*  c #494f59",
"=  c #4e5455",
"-  c #565c5d",
";  c #5a5d5c",
":  c #4b5561",
">  c #425977",
",  c #535c68",
"<  c #595f63",
"1  c #5d615e",
"2  c #4e617c",
"3  c #5f6465",
"4  c #5b636e",
"5  c #536377",
"6  c #5d6673",
"7  c #5a687c",
"8  c #606667",
"9  c #616768",
"0  c #62696a",
"q  c #606770",
"w  c #656c73",
"e  c #646e7b",
"r  c #677076",
"t  c #65717a",
"y  c #6e7475",
"u  c #6a737d",
"i  c #737a7c",
"p  c #4a6489",
"a  c #4e698f",
"s  c #4d6a93",
"d  c #526d93",
"f  c #506f9a",
"g  c #557197",
"h  c #54719a",
"j  c #5a769d",
"k  c #5e7ca4",
"l  c #62748b",
"z  c #6a7988",
"x  c #687c94",
"c  c #757d87",
"v  c #727f8f",
"b  c #617ea5",
"n  c #5e81b2",
"m  c #798081",
"M  c #7a8697",
"N  c #7f8b9b",
"B  c #6683aa",
"V  c #6c84a2",
"C  c #6986ae",
"Z  c #6485b3",
"A  c #6788b4",
"S  c #6489bb",
"D  c #6d8ebc",
"F  c #738eb2",
"G  c #7890ac",
"H  c #7590b3",
"J  c #698fc2",
"K  c #6b92c7",
"L  c #6e94ca",
"P  c #7293c2",
"I  c #7097cc",
"U  c #7698c7",
"Y  c #7c9ac3",
"T  c #7a9ccb",
"R  c #739cd5",
"E  c #749ed9",
"W  c #76a1dc",
"Q  c #7da3d7",
"!  c #7ba5dd",
"~  c #77a2e0",
"^  c #838585",
"/  c #838a8a",
"(  c #8a8a89",
")  c #818892",
"_  c #8a9091",
"`  c #8d939a",
"'  c #929594",
"]  c #91969a",
"[  c #959b9b",
"{  c #9a9c9b",
"}  c #8296ae",
"|  c #8a96a6",
" . c #8a97a8",
".. c #8498b0",
"X. c #979ea4",
"o. c #8ca2be",
"O. c #9ca4ae",
"+. c #99a5b5",
"@. c #9eaaba",
"#. c #a7abad",
"$. c #aab0b8",
"%. c #b6b8b6",
"&. c #82a7da",
"*. c #83a8dd",
"=. c #8eabd3",
"-. c #92aaca",
";. c #96b1d5",
":. c #94b2dc",
">. c #9ab8df",
",. c #82ace5",
"<. c #87b3ef",
"1. c #82b2f3",
"2. c #8cbafb",
"3. c #97b6e1",
"4. c #b0b8c4",
"5. c #a8c0df",
"6. c #bcc6cc",
"7. c #bbc5d4",
"8. c #aec5e5",
"9. c #a0c3f1",
"0. c #a4cafe",
"q. c #a9cffe",
"w. c #b0caec",
"e. c #b3cdf2",
"r. c #b5d1f7",
"t. c #b9d6fe",
"y. c #bcdafd",
"u. c #c4c5c8",
"i. c #c1cacb",
"p. c #c9cbca",
"a. c #d0d1d0",
"s. c #d1dbdd",
"d. c #d9dada",
"f. c #cbd4e0",
"g. c #dbe0df",
"h. c #e7efef",
"j. c #f3f9f9",
"k. c #fafefe",
/* pixels */
"E I C C C C C C B b k j d d d a a f L W ",
"I 7 < 6 w w w 6 , : & O o X . .   . @ L ",
"D e v ) |  . .O.X.) u 6 7 > > + + @ @ S ",
"P M +.7.4.$.u.d.a.%.{ ^ ; * 5 d f f f K ",
"P  .f.#.( p.j.k.k.k.k.j.u.' ; # B B k K ",
"P @.] ' j.j.i.] _ _ _ / X.i.s.' # B Z K ",
"T c ( h.#.y < - - - - - - 3 c { 8 % A L ",
"U ` g.i = 3 8 8 9 9 9 9 3 3 3 ; i 0 B R ",
"D 6./ = 0 9 9 3 8 9 3 9 3 9 9 9 3 y H R ",
"U i 3 9 9 9 3 9 9 9 9 3 9 3 9 3 3 1 V W ",
"P 0 3 3 3 9 9 3 9 9 3 9 3 9 3 9 3 3 V W ",
"P r 3 9 9 3 3 9 3 3 9 3 9 3 9 3 3 ; V ~ ",
"D w 3 9 3 3 9 3 3 9 3 9 3 3 9 3 3 3 H ! ",
"S l 9 3 9 9 3 9 9 3 9 3 3 9 9 9 3 u ~ ! ",
"Z g z 1 3 8 9 3 3 9 3 9 9 9 9 1 3 Y <.W ",
"Z p k x 9 1 3 3 9 9 9 9 3 3 ; t Q ! <.! ",
"S s n L Y z 0 9 3 ; ; 3 3 r G <.2.2.2.! ",
"K n T =.:.3.;.;.o.} } -.>.9.0.0.0.q.q.! ",
"R U ;.5.8.8.w.e.r.t.t.t.t.t.t.t.y.y.9.R ",
"R E Q &.&.&.&.&.&.&.&.&.*.*.*.*.*.! W R "
};
