/* XPM */
static char *07[] = {
/* columns rows colors chars-per-pixel */
"20 20 181 2",
"   c #1e2836",
".  c #25221e",
"X  c #262626",
"o  c #2d2c2c",
"O  c #222d3d",
"+  c #35322f",
"@  c #333232",
"#  c #3b3b3b",
"$  c #2b3442",
"%  c #323c49",
"&  c #3a4350",
"*  c #394f6c",
"=  c #3a5374",
"-  c #424242",
";  c #434648",
":  c #4b4b4b",
">  c #454d59",
",  c #53514e",
"<  c #545555",
"1  c #575758",
"2  c #55595c",
"3  c #595857",
"4  c #5b5b5c",
"5  c #4e5661",
"6  c #405571",
"7  c #475a76",
"8  c #5b5f64",
"9  c #585f6a",
"0  c #4e617b",
"q  c #5d6263",
"w  c #5a687c",
"e  c #605f5e",
"r  c #636464",
"t  c #64676b",
"y  c #646a6b",
"u  c #6a6966",
"i  c #6b6a69",
"p  c #606770",
"a  c #666c74",
"s  c #646e7b",
"d  c #6c6f73",
"f  c #6e7374",
"g  c #6c737d",
"h  c #706e6c",
"j  c #75797f",
"k  c #797e7f",
"l  c #4c6589",
"z  c #4e698e",
"x  c #4e6c95",
"c  c #516580",
"v  c #586982",
"b  c #516e94",
"n  c #54729b",
"m  c #5c7391",
"M  c #5a769d",
"N  c #5c789e",
"B  c #5c7ba5",
"V  c #5e7eab",
"C  c #657487",
"Z  c #61728b",
"A  c #6e7885",
"S  c #6c7889",
"D  c #677a94",
"F  c #6d7d91",
"G  c #647ea4",
"H  c #617fa9",
"J  c #5f82b2",
"K  c #6c819a",
"L  c #74808e",
"P  c #7d8186",
"I  c #798698",
"U  c #6483ac",
"Y  c #6c83a0",
"T  c #6986ae",
"R  c #6485b2",
"E  c #6589b9",
"W  c #6d8bb2",
"Q  c #6b8dbb",
"!  c #7189aa",
"~  c #7490b7",
"^  c #7392bd",
"/  c #7e95b4",
"(  c #7a98bf",
")  c #698fc2",
"_  c #6c92c6",
"`  c #6d95cb",
"'  c #6f9ad6",
"]  c #7495c3",
"[  c #7097cc",
"{  c #7799c7",
"}  c #7399cd",
"|  c #7b9bc6",
" . c #799bca",
".. c #739cd5",
"X. c #739edb",
"o. c #789dd0",
"O. c #76a1dd",
"+. c #7ca2d6",
"@. c #7da5dc",
"#. c #71a1e4",
"$. c #74a7eb",
"%. c #75a8ed",
"&. c #7aa5e0",
"*. c #7faae5",
"=. c #7babed",
"-. c #888d8c",
";. c #808c9c",
":. c #87909d",
">. c #8f9493",
",. c #93979d",
"<. c #979b99",
"1. c #999e9b",
"2. c #818ea0",
"3. c #8793a3",
"4. c #8894a4",
"5. c #8c98a9",
"6. c #8399b3",
"7. c #849cbb",
"8. c #8b9eb8",
"9. c #939eae",
"0. c #9ca19e",
"q. c #96a3ae",
"w. c #9da4a5",
"e. c #9ba4aa",
"r. c #94a1b3",
"t. c #99a5b6",
"y. c #a7adaa",
"u. c #a4b2bd",
"i. c #a9b0b0",
"p. c #adb7ba",
"a. c #b4bbbd",
"s. c #859fc3",
"d. c #81a0c6",
"f. c #8ba5c7",
"g. c #82a7da",
"h. c #83a8dd",
"j. c #8eabd4",
"k. c #96abc8",
"l. c #9aaac0",
"z. c #97b1d5",
"x. c #95b3db",
"c. c #80abe6",
"v. c #81aeeb",
"b. c #80aff0",
"n. c #84b3f3",
"m. c #8ebbfa",
"M. c #98b7e1",
"N. c #9abae5",
"B. c #9bbcea",
"V. c #a3b5cc",
"C. c #aebacc",
"Z. c #a8bfdf",
"A. c #b4bece",
"S. c #9dc0ee",
"D. c #9fc2f3",
"F. c #b9c1c0",
"G. c #b3c2d5",
"H. c #b4c3d8",
"J. c #b9c3d2",
"K. c #aec5e6",
"L. c #a0c4f0",
"P. c #a1c6f9",
"I. c #a4c9fd",
"U. c #a9cffe",
"Y. c #b1caec",
"T. c #b3cdf1",
"R. c #b5d0f5",
"E. c #b6d2f8",
"W. c #b8d5fc",
"Q. c #bcdafe",
"!. c #c3cbc9",
"~. c #c2cbd7",
"^. c #c1cbd8",
"/. c #c5d0de",
"(. c #ced4db",
"). c #ccd6e4",
"_. c #d6dde6",
"`. c #d8e1ee",
"'. c #e2e6ed",
"]. c #e5ebf2",
"[. c #f1f4f9",
/* pixels */
"X.[ T T T T T U U G G B b b b z x x ` O.",
"[ w 9 t a a a p 9 5 > % % $ O O   O = ` ",
"Q s F ;.3.4.3.;.I F Z v 0 7 6 * = = = E ",
"^ I t.A.J.A.C.C.l.8.6.! G M n b x n n Q ",
"] 5.~.].'._.)./.A.V.k.7.~ T U H J U B _ ",
"] 9.(.[.[.].`.).H.V.k.s.( Q E V J R U ` ",
"{ r.~.(.a.,.A j s t d g A S D G U Q E [ ",
"{ :.i 1 , , 3 3 1 e e r i h h i q C Q } ",
"] q , 4 e r r q 4 4 4 1 < 1 4 e y , C O.",
"] < , 3 3 e r u t u e e 4 < < < : + 0 &.",
"] 2 + # & - ; : : : : ; - # @ o X . m O.",
"] e.-.3 : # + @ o o X . X X o @ ; 3 Y O.",
"E q.!.a.i.w.>.P f f f y < 2 8 q r y ( O.",
"E m 6.u.p.a.F.y.<.0.0.>.r t q a K  .*.O.",
"E z B ] { | f.7./ 6.7./ W { ..#.=.=.v.O.",
"R l B E _ _ ' ' X.O.#.#.$.%.%.%.=.v.n.O.",
"E x J _ { o.+.+.@.*.*.*.v.v.n.n.n.m.m.O.",
"_ J { j.x.x.M.N.B.B.B.D.D.P.I.I.I.U.U.*.",
"'  .z.K.K.K.Y.Y.Y.T.R.E.W.W.W.W.Q.Q.L...",
"....+.g.g.g.g.h.h.h.h.h.h.h.h.h.h.g....."
};
