/* XPM */
static char *09[] = {
/* columns rows colors chars-per-pixel */
"20 20 151 2",
"   c #1d2836",
".  c #1f2a39",
"X  c #202a37",
"o  c #202d3f",
"O  c #343534",
"+  c #373839",
"@  c #3b3b3b",
"#  c #263040",
"$  c #363f4d",
"%  c #344a6a",
"&  c #384e6c",
"*  c #3a5374",
"=  c #424441",
"-  c #4b4f4f",
";  c #48505c",
":  c #51514f",
">  c #565756",
",  c #555957",
"<  c #555959",
"1  c #5b5b5b",
"2  c #525d6b",
"3  c #5c5f63",
"4  c #5d6363",
"5  c #5a687c",
"6  c #6d6d6d",
"7  c #606770",
"8  c #656c74",
"9  c #646e7b",
"0  c #6b7077",
"q  c #6a7179",
"w  c #737374",
"e  c #7c7c7c",
"r  c #486288",
"t  c #4e698f",
"y  c #4d6b95",
"u  c #596a81",
"i  c #536e93",
"p  c #54729a",
"a  c #59769f",
"s  c #697a8e",
"d  c #737d86",
"f  c #747f8e",
"g  c #787d83",
"h  c #617ea6",
"j  c #607ea8",
"k  c #5e80af",
"l  c #5d81b3",
"z  c #73879e",
"x  c #798695",
"c  c #7c8893",
"v  c #78899b",
"b  c #6684ac",
"n  c #6986ae",
"m  c #6586b4",
"M  c #6488ba",
"N  c #6f8eb6",
"B  c #6c8dbb",
"V  c #728bab",
"C  c #7795bd",
"Z  c #7d94b1",
"A  c #698fc2",
"S  c #6c92c6",
"D  c #6e95cb",
"F  c #6c96d1",
"G  c #6e99d5",
"H  c #7294c2",
"J  c #7197cd",
"K  c #7799c7",
"L  c #7799c8",
"P  c #799bca",
"I  c #739cd5",
"U  c #739ed9",
"Y  c #76a1dc",
"T  c #7da3d7",
"R  c #7ba5dd",
"E  c #79a4e0",
"W  c #868686",
"Q  c #8b8b8b",
"!  c #808b9b",
"~  c #888f99",
"^  c #939392",
"/  c #999897",
"(  c #9c9c9c",
")  c #8394a9",
"_  c #8894a4",
"`  c #8c99aa",
"'  c #849ab6",
"]  c #8a9fbc",
"[  c #9097a1",
"{  c #8ba0bc",
"}  c #9ea3a8",
"|  c #96a2b2",
" . c #90a2bb",
".. c #99a6b6",
"X. c #9ca8b7",
"o. c #a09f9d",
"O. c #a4a4a4",
"+. c #a4a6a8",
"@. c #a8a7a7",
"#. c #ababab",
"$. c #a0a7b1",
"%. c #a6aeba",
"&. c #abafb4",
"*. c #afb3b8",
"=. c #b1b0ae",
"-. c #b4b4b4",
";. c #b2b5ba",
":. c #bab7b3",
">. c #bcb9b6",
",. c #bcbcbc",
"<. c #81a6d9",
"1. c #83a9dc",
"2. c #8dabd6",
"3. c #90a6c1",
"4. c #97aac0",
"5. c #9caec4",
"6. c #97b1d5",
"7. c #94b1d9",
"8. c #9ab6dd",
"9. c #86ade3",
"0. c #88aee5",
"q. c #83b2f2",
"w. c #85b5f8",
"e. c #8cb8f6",
"r. c #8dbbfa",
"t. c #a9bdd7",
"y. c #a8bfdf",
"u. c #bdbfc2",
"i. c #b7c0ce",
"p. c #bdc0c4",
"a. c #adc4e4",
"s. c #afc7e9",
"d. c #a0c4f0",
"f. c #a4cafd",
"g. c #a9cffe",
"h. c #b0caec",
"j. c #bcdafe",
"k. c #c3c3c3",
"l. c #c5c9cf",
"z. c #c8c8c7",
"x. c #cacaca",
"c. c #c2cad4",
"v. c #cdced1",
"b. c #d1d0cf",
"n. c #d2d2d1",
"m. c #d7d7d8",
"M. c #dbdbdb",
"N. c #e2e2e2",
"B. c #ebebeb",
"V. c #f2f2f2",
"C. c #fdfdfd",
/* pixels */
"U J n n n n n b h a p p p i i t t p S Y ",
"J 5 2 4 8 7 8 8 q g 0 ; $ # X X   o * D ",
"N u x ! _ $.;.&.#.@.O.+.} [ u % & * * M ",
"H v ..u.l.-./ ( o.&.@.o./ o.*.) y p p S ",
"H ` c.v.O.o.u.k.k.>.>.,.k.-.( =.X.b j S ",
"K | v.@.=.x.z.,.#.( Q W Q -.u.#.:. .k D ",
"H %.u.-.x.n.m.z.;.+.^ e e w @.k.,.-.B D ",
"L u.:.k.v.B.N.M.k.,.,.( w w e -.u.,.{ D ",
"K u.z.k.N.C.C.N.,.k.,.k.e w 6 O.,.,. .F ",
"H ;.n.k.B.C.C.B.,.k.k.-.e w 6 @.,.:.{ G ",
"B &.n.k.N.C.C.C.M.u.=.^ g e w -.,.:.' U ",
"B ~ n.z.x.V.C.N.M.k.@./ W e o.,.,.#.V Y ",
"A 2 ^ m.k.x.N.N.v.,.#./ ^ o.,.,.,.1 N R ",
"M s > O.M.z.k.z.z.,.-.#.-.k.k.x.6 - 1.Y ",
"M i x : W u.n.x.z.z.z.z.z.z.@.1 = Z q.Y ",
"m r b g O = w &.>.-.-.-.^ 1 @ @ z w.q.R ",
"M y l H g < + O @ @ + @ O = 4 v e.r.r.R ",
"A l K 2.7.3.x 4 < < < < 8 Z 8.f.f.g.g.R ",
"I P 6.y.a.h.h.t.5...5.5.a.j.j.j.j.j.d.I ",
"I I T <.<.<.1.1.0.0.0.0.1.1.1.1.1.R I I "
};
