/* XPM */
static char * blocks_xpm[] = {
"176 22 192 2",
"  	c None",
". 	c #020204",
"+ 	c #0202D4",
"@ 	c #0202DC",
"# 	c #0202CC",
"$ 	c #0202C4",
"% 	c #0202BC",
"& 	c #0202AC",
"* 	c #020284",
"= 	c #02D604",
"- 	c #02DA04",
"; 	c #02D204",
"> 	c #02CE04",
", 	c #02CA04",
"' 	c #02C204",
") 	c #02BA04",
"! 	c #02B204",
"~ 	c #028604",
"{ 	c #DA0204",
"] 	c #D20204",
"^ 	c #D60204",
"/ 	c #CE0204",
"( 	c #C60204",
"_ 	c #C20204",
": 	c #B60204",
"< 	c #B20204",
"[ 	c #860204",
"} 	c #D6D6D4",
"| 	c #DADADC",
"1 	c #D2D2D4",
"2 	c #CECECC",
"3 	c #C6C6C4",
"4 	c #C2C2C4",
"5 	c #B6B6B4",
"6 	c #B2B2B4",
"7 	c #868684",
"8 	c #D602D4",
"9 	c #DA02DC",
"0 	c #D202D4",
"a 	c #CE02CC",
"b 	c #CA02CC",
"c 	c #C602C4",
"d 	c #C202C4",
"e 	c #BA02BC",
"f 	c #B202B4",
"g 	c #860284",
"h 	c #02D6D4",
"i 	c #02DADC",
"j 	c #02D2D4",
"k 	c #02CECC",
"l 	c #02CACC",
"m 	c #02C6C4",
"n 	c #02C2C4",
"o 	c #02BABC",
"p 	c #02B2B4",
"q 	c #028684",
"r 	c #D6D604",
"s 	c #DADA04",
"t 	c #D2D204",
"u 	c #CECE04",
"v 	c #CACA04",
"w 	c #C6C604",
"x 	c #C2C204",
"y 	c #BABA04",
"z 	c #B2B204",
"A 	c #868604",
"B 	c #0202B4",
"C 	c #020294",
"D 	c #02027C",
"E 	c #02BE04",
"F 	c #02B604",
"G 	c #02AA04",
"H 	c #028E04",
"I 	c #027A04",
"J 	c #BE0204",
"K 	c #BA0204",
"L 	c #AE0204",
"M 	c #8E0204",
"N 	c #7A0204",
"O 	c #BEBEBC",
"P 	c #BABABC",
"Q 	c #AEAEAC",
"R 	c #929294",
"S 	c #7A7A7C",
"T 	c #BE02BC",
"U 	c #B602B4",
"V 	c #AA02AC",
"W 	c #920294",
"X 	c #7A027C",
"Y 	c #02BEBC",
"Z 	c #02B6B4",
"` 	c #02AAAC",
" .	c #029294",
"..	c #027A7C",
"+.	c #BEBE04",
"@.	c #B6B604",
"#.	c #AAAA04",
"$.	c #929204",
"%.	c #7A7A04",
"&.	c #0202A4",
"*.	c #02028C",
"=.	c #020274",
"-.	c #02AE04",
";.	c #02A604",
">.	c #02A204",
",.	c #028A04",
"'.	c #AA0204",
").	c #A20204",
"!.	c #8A0204",
"~.	c #DEDEDC",
"{.	c #AAAAAC",
"].	c #A2A2A4",
"^.	c #9E9E9C",
"/.	c #8A8A8C",
"(.	c #AE02AC",
"_.	c #A202A4",
":.	c #A602A4",
"<.	c #9E029C",
"[.	c #8A028C",
"}.	c #02AEAC",
"|.	c #02A6A4",
"1.	c #029E9C",
"2.	c #028A8C",
"3.	c #AEAE04",
"4.	c #A6A604",
"5.	c #9E9E04",
"6.	c #8A8A04",
"7.	c #02029C",
"8.	c #029E04",
"9.	c #027604",
"0.	c #A60204",
"a.	c #9E0204",
"b.	c #760204",
"c.	c #CACACC",
"d.	c #A6A6A4",
"e.	c #767674",
"f.	c #760274",
"g.	c #02A2A4",
"h.	c #028E8C",
"i.	c #027674",
"j.	c #A2A204",
"k.	c #8E8E04",
"l.	c #02C604",
"m.	c #767604",
"n.	c #027204",
"o.	c #720204",
"p.	c #727274",
"q.	c #720274",
"r.	c #027274",
"s.	c #029A04",
"t.	c #9A0204",
"u.	c #9A9A9C",
"v.	c #9A029C",
"w.	c #029A9C",
"x.	c #9A9A04",
"y.	c #727204",
"z.	c #02026C",
"A.	c #960204",
"B.	c #820204",
"C.	c #969694",
"D.	c #960294",
"E.	c #969604",
"F.	c #028204",
"G.	c #026E04",
"H.	c #CA0204",
"I.	c #6E0204",
"J.	c #828284",
"K.	c #6E6E6C",
"L.	c #820284",
"M.	c #6E026C",
"N.	c #028284",
"O.	c #026E6C",
"P.	c #828204",
"Q.	c #6E6E04",
"R.	c #029604",
"S.	c #920204",
"T.	c #029694",
"U.	c #029204",
"V.	c #026A04",
"W.	c #7E0204",
"X.	c #6A0204",
"Y.	c #6A6A6C",
"Z.	c #6A026C",
"`.	c #026A6C",
" +	c #027E04",
".+	c #7E7E7C",
"++	c #7E027C",
"@+	c #027E7C",
"#+	c #7E7E04",
"$+	c #6A6A04",
"%+	c #8E8E8C",
"&+	c #8E028C",
". . . . . . . . . . . . . . . . . . . . . . + @ @ + @ @ + + + # # # $ $ $ $ $ $ % & & * = = - - - - ; ; = > > > , , ' ' ' ) ) ! ~ ~ { { { { { { ] ^ ^ / / / ( ( ( _ _ _ : < < [ } } | } } 1 1 } 2 2 2 3 3 3 4 4 4 5 5 6 7 7 8 9 9 8 9 9 0 8 8 a a a b c c d d d e f f g h h i h h i j h k k k l l m n n n o o p q q r s s s s s t r r u u u v w w x x x y z z A ",
". . . . . . . . . . . . . . . . . . . . . . @ + + + # # $ # # % $ $ % % % B B B & C C D - - - ; ; > , , , E E E ) ) ! ! F G G H I I ^ { { ] / / ( ( ( J J J K : : < : : L M M N | | } 1 1 3 3 3 O O O P P 5 6 6 5 Q Q R S S 9 9 9 0 a a c c c T T T e U U f U U V W W X i i i j j k m m Y Y Y o o o p p Z ` `  .....s s s t u u v v v +.+.+.y y y z @.@.#.$.$.%.",
". . . . . . . . . . . . . . . . . . . . . . @ + + % % % % % % B & & & & & &.&.&.&.*.*.=.- - ; E E ) ) ) ) F F -.G G ;.;.;.>.>.,.I I { / / J J J J : : < < < L '.'.).).).).!.!.N ~.~.1 O O O O 5 6 6 6 Q Q {.].].].^.^./.S S 9 0 0 T T T T U U f (.(.(.V V _.:.:.<.[.[.X i i j Y Y Y Y Z p p }.` ` ` |.|.|.1.1.2.....s t t +.y y y y y @.3.3.#.#.#.4.4.4.5.6.6.%.",
". . . . . . . . . . . . . . . . . . . . . . @ + + % % % % % % B & & & & & &.&.&.&.*.*.=.- - ; E E ) ) ) ) F F -.G G ;.;.;.>.>.,.I I { / / J J J J : : < < < L '.'.).).).).!.!.N ~.~.1 O O O O 5 6 6 6 Q Q {.].].].^.^./.S S 9 0 0 T T T T U U f (.(.(.V V _.:.:.<.[.[.X i i j Y Y Y Y Z p p }.` ` ` |.|.|.1.1.2.....s t t +.y y y y y @.3.3.#.#.#.4.4.4.5.6.6.%.",
". . . . . . . . . . . . . . . . . . . . . . + # # % % % B B B & & & & & & &.&.&.7.*.*.D - - , E E E ) ) F -.-.! -.-.>.>.;.8.8.,.9.9.{ / / J K K : K K < L L '.'.'.0.0.0.a.!.!.b.} } c.O O 5 5 P 6 6 Q {.{.{.d.d.d.^.^./.e.e.8 a a T e e U e e f f f V (.(.:._._.<.[.[.f.h h k Y Y o Z o p p p }.}.}.g.g.|.1.1.h.i.i.s v v +.+.+.y @.@.3.z z 3.3.3.j.4.4.5.k.k.%.",
". . . . . . . . . . . . . . . . . . . . . . + # # % B B % B B B & & & &.&.&.7.7.7.* * =.= = l.) ) F ) ) F ! ! -.G G >.>.>.>.>.,.9.9.^ ( ( J : : : < < < L L L 0.0.).).).a.!.!.b.} } 3 P P 5 5 6 6 6 Q Q Q d.].].].].]./.e.e.0 c c e U U U f f f (.(.V :.:.:._._._.[.[.f.j j m o o Z Z p p p }.` ` ` g.g.g.1.1.2.i.i.r w w y @.@.y @.@.z 3.3.#.#.#.j.j.j.5.6.6.m.",
". . . . . . . . . . . . . . . . . . . . . . + # # % B B % B B B & & & &.&.&.7.7.7.* * =.= = l.) ) F ) ) F ! ! -.G G >.>.>.>.>.,.9.9.^ ( ( J : : : < < < L L L 0.0.).).).a.!.!.b.} } 3 P P 5 5 6 6 6 Q Q Q d.].].].].]./.e.e.0 c c e U U U f f f (.(.V :.:.:._._._.[.[.f.j j m o o Z Z p p p }.` ` ` g.g.g.1.1.2.i.i.r w w y @.@.y @.@.z 3.3.#.#.#.j.j.j.5.6.6.m.",
". . . . . . . . . . . . . . . . . . . . . . + $ $ % B B B B B & & & &.& & &.&.&.&.*.*.=.= = l.) ) F ! ! F -.-.-.G G ;.;.8.>.>.~ n.n.^ ( ( K : : < : : L '.'.0.'.'.0.a.a.).[ [ o.} } 3 P P 6 6 5 Q Q {.d.d.{.d.d.^.].].7 p.p.8 c c e f f f U U (.V V V V V _.<.<._.g g q.h h m o o Z Z Z }.}.` ` ` ` |.|.1.g.g.q r.r.r w w y @.@.z @.@.3.3.3.#.#.#.4.5.5.j.A A m.",
". . . . . . . . . . . . . . . . . . . . . . # % % B B B B B B & & & &.&.&.7.&.&.C * * =.> > ' ! ! F ! ! -.G G -.;.;.8.8.>.s.s.~ n.n./ _ _ : : : < L L L L L 0.).).a.).).t.!.!.o.c.c.4 5 5 6 6 Q Q Q Q d.d.].].].].u.u.7 p.p.b d d U U U f (.(.(.V V :.:.:._._._.v.g g q.l l n p p p p }.}.}.` |.|.|.g.g.g.w.w.q r.r.u x x z @.@.z 3.3.#.3.3.4.4.4.j.j.j.x.A A y.",
". . . . . . . . . . . . . . . . . . . . . . # % % B B B B B B & & & &.&.&.7.&.&.C * * =.> > ' ! ! F ! ! -.G G -.;.;.8.8.>.s.s.~ n.n./ _ _ : : : < L L L L L 0.).).a.).).t.!.!.o.c.c.4 5 5 6 6 Q Q Q Q d.d.].].].].u.u.7 p.p.b d d U U U f (.(.(.V V :.:.:._._._.v.g g q.l l n p p p p }.}.}.` |.|.|.g.g.g.w.w.q r.r.u x x z @.@.z 3.3.#.3.3.4.4.4.j.j.j.x.A A y.",
". . . . . . . . . . . . . . . . . . . . . . # % % B & & & & & & & & &.&.&.&.7.7.7.*.*.z., , E ! ! -.-.-.-.-.-.G ;.;.>.>.s.s.s.~ n.n./ J J L L L '.L L '.'.'.0.0.0.).a.a.A.B.B.o.2 2 O Q Q {.{.Q {.{.{.d.d.d.^.^.u.C.C.7 p.p.a T T (.(.(.V V V V V V V _._.<.v.v.D.g g q.k k Y p p }.` }.` ` ` |.|.g.1.1.1.w.w.q r.r.v +.+.z 3.3.3.3.3.3.#.#.4.j.j.5.5.5.E.A A m.",
". . . . . . . . . . . . . . . . . . . . . . # B B & & & & &.&.& &.&.&.7.7.7.7.7.C * * z., , ) -.-.G -.-.;.G G ;.;.;.>.>.s.s.s.F.G.G.H.K K L L L '.'.'.'.0.0.).a.a.).a.a.t.B.B.I.c.c.P Q Q {.{.{.{.{.d.].].^.].].^.u.u.J.K.K.b e e (.(.(.(.V V V _._.:.<.<._.<.<.v.L.L.M.l l o }.}.}.` |.` ` |.|.|.1.1.1.w.w.w.N.O.O.v y y 3.#.#.3.4.4.#.4.4.4.5.5.5.5.5.x.P.P.Q.",
". . . . . . . . . . . . . . . . . . . . . . # B B & & & & &.&.& &.&.&.7.7.7.7.7.C * * z., , ) -.-.G -.-.;.G G ;.;.;.>.>.s.s.s.F.G.G.H.K K L L L '.'.'.'.0.0.).a.a.).a.a.t.B.B.I.c.c.P Q Q {.{.{.{.{.d.].].^.].].^.u.u.J.K.K.b e e (.(.(.(.V V V _._.:.<.<._.<.<.v.L.L.M.l l o }.}.}.` |.` ` |.|.|.1.1.1.w.w.w.N.O.O.v y y 3.#.#.3.4.4.#.4.4.4.5.5.5.5.5.x.P.P.Q.",
". . . . . . . . . . . . . . . . . . . . . . $ % % & &.&.&.& & &.&.&.7.&.&.7.7.7.C * * z.l.l.) G G G ;.;.G ;.;.>.8.8.s.s.s.R.R.~ G.G.( K K '.0.0.0.0.0.).).).).).).t.t.t.S.B.B.o.3 3 P {.{.d.d.d.].].].].].].u.u.u.R R J.K.K.c e e V :.:.:.:.:.:.:.:.<._._.v.v.v.W L.L.M.m m Z ` ` |.` ` |.|.g.1.1.g.1.1.w.T.T.q r.r.w y y #.#.#.4.#.#.4.j.j.5.j.j.5.x.x.$.P.P.y.",
". . . . . . . . . . . . . . . . . . . . . . $ B B &.& & &.&.&.&.&.&.7.7.7.7.C C C * * z.' ' ) ;.;.G ;.;.;.>.>.>.8.8.8.8.R.U.U.F.V.V._ K K 0.'.'.0.0.0.).a.a.a.t.t.t.A.A.A.W.W.X.4 4 5 d.d.d.d.d.].].^.^.^.u.u.u.C.R R J.Y.Y.d U U :.:.:.:._._.<.<.<.<.v.v.v.D.D.W L.L.Z.n n Z |.|.|.|.|.g.g.g.1.1.w.1.1.T. . .N.`.`.x y y 4.#.#.4.4.4.j.j.j.5.x.x.x.E.E.E.P.P.Q.",
". . . . . . . . . . . . . . . . . . . . . . $ B B &.& & &.&.&.&.&.&.7.7.7.7.C C C * * z.' ' ) ;.;.G ;.;.;.>.>.>.8.8.8.8.R.U.U.F.V.V._ K K 0.'.'.0.0.0.).a.a.a.t.t.t.A.A.A.W.W.X.4 4 5 d.d.d.d.d.].].^.^.^.u.u.u.C.R R J.Y.Y.d U U :.:.:.:._._.<.<.<.<.v.v.v.D.D.W L.L.Z.n n Z |.|.|.|.|.g.g.g.1.1.w.1.1.T. . .N.`.`.x y y 4.#.#.4.4.4.j.j.j.5.x.x.x.E.E.E.P.P.Q.",
". . . . . . . . . . . . . . . . . . . . . . % B B &.&.&.7.&.&.7.7.7.7.7.7.C C C C D D z.) ) ! ;.;.>.>.>.>.8.8.s.8.8.R.R.U.R.R. +G.G.J < < 0.0.0.).).).t.a.a.t.t.t.A.A.A.S.B.B.I.O O 6 ].].].].].u.u.^.^.^.u.C.C.R C.C..+K.K.T f f _.:.:._._._.<.<.<.<.v.v.D.D.D.D.++++M.Y Y p g.g.g.1.g.w.w.w.1.1.w.T.T. .T.T.@+r.r.y z z 4.j.j.j.j.j.5.x.x.5.x.x.E.E.E.$.#+#+Q.",
". . . . . . . . . . . . . . . . . . . . . . % & & 7.&.&.7.7.7.&.7.7.C C C C C C C D D z.) ) G 8.8.8.8.8.s.>.>.s.R.R.R.R.U.R.R.F.V.V.K L L t.a.a.a.a.a.).t.t.A.S.S.S.S.S.S.B.B.X.O O Q ^.^.^.^.^.].].u.C.C.R C.C.R C.C..+Y.Y.T (.(.<.<.<._.<.<._.v.v.D.W W W W W D.L.L.Z.Y Y }.1.1.g.1.1.g.g.w.T.T. .T.T. . . .@+O.O.y #.#.5.5.5.5.x.x.j.x.x.E.E.E.$.E.E.$.#+#+$+",
". . . . . . . . . . . . . . . . . . . . . . % & & 7.&.&.7.7.7.&.7.7.C C C C C C C D D z.) ) G 8.8.8.8.8.s.>.>.s.R.R.R.R.U.R.R.F.V.V.K L L t.a.a.a.a.a.).t.t.A.S.S.S.S.S.S.B.B.X.O O Q ^.^.^.^.^.].].u.C.C.R C.C.R C.C..+Y.Y.T (.(.<.<.<._.<.<._.v.v.D.W W W W W D.L.L.Z.Y Y }.1.1.g.1.1.g.g.w.T.T. .T.T. . . .@+O.O.y #.#.5.5.5.5.x.x.j.x.x.E.E.E.$.E.E.$.#+#+$+",
". . . . . . . . . . . . . . . . . . . . . . B &.&.*.*.*.*.* * * * * * * * * * * * D D z.) ) >.H H ,.,.,.,.~ ~ ~ F.F.F.F. + + +9.V.V.K ).).M !.!.!.[ [ [ [ [ B.B.B.B.W.W.W.b.b.X.5 5 ].%+%+/./.7 7 7 J.J.J.J..+.+.+.+.+S Y.Y.U _._.&+[.[.[.g g g L.L.L.L.L.L.++++++f.f.Z.Z Z g.h.h.2.2.q q q q N.N.N.N.N.@+N.N.i.`.`.y j.j.k.6.6.6.6.6.A A A P.P.P.P.#+#+P.m.m.Q.",
". . . . . . . . . . . . . . . . . . . . . . & * * =.D D =.=.=.=.z.z.=.z.z.z.z.z.z.z.z.z.G G F.9.9.I 9.9.9.n.n.n.9.9.G.G.G.V.V.n.G.G.'.B.B.b.N N b.o.o.o.o.o.o.I.I.I.I.I.X.I.I.I.{.{.J.e.e.e.e.p.p.p.p.p.p.K.K.K.K.Y.Y.K.K.K.V L.L.f.X X f.q.q.q.q.q.q.M.M.M.M.M.Z.M.M.M.` ` N.i.i.....i.r.r.r.i.i.O.O.O.O.O.O.O.O.O.#.P.P.m.%.%.m.m.m.y.y.y.y.Q.Q.Q.Q.Q.Q.Q.Q.y.",
". . . . . . . . . . . . . . . . . . . . . . & * * =.D D =.=.=.=.z.z.=.z.z.z.z.z.z.z.z.z.G G F.9.9.I 9.9.9.n.n.n.9.9.G.G.G.V.V.n.G.G.'.B.B.b.N N b.o.o.o.o.o.o.I.I.I.I.I.X.I.I.I.{.{.J.e.e.e.e.p.p.p.p.p.p.K.K.K.K.Y.Y.K.K.K.V L.L.f.X X f.q.q.q.q.q.q.M.M.M.M.M.Z.M.M.M.` ` N.i.i.....i.r.r.r.i.i.O.O.O.O.O.O.O.O.O.#.P.P.m.%.%.m.m.m.y.y.y.y.Q.Q.Q.Q.Q.Q.Q.Q.y."};
