/* XPM */
static char * blocks_xpm[] = {
"120 15 197 2",
"  	c None",
". 	c #020204",
"+ 	c #027204",
"@ 	c #727204",
"# 	c #720204",
"$ 	c #02AA04",
"% 	c #AAAA04",
"& 	c #AA0204",
"* 	c #026A04",
"= 	c #028E04",
"- 	c #8E8E04",
"; 	c #720274",
"> 	c #02C604",
", 	c #C6C604",
"' 	c #AA02AC",
") 	c #6A0204",
"! 	c #020274",
"~ 	c #027274",
"{ 	c #727274",
"] 	c #8E0204",
"^ 	c #02AAAC",
"/ 	c #AAAAAC",
"( 	c #C60204",
"_ 	c #028E8C",
": 	c #8E8E8C",
"< 	c #8E028C",
"[ 	c #02C6C4",
"} 	c #C6C6C4",
"| 	c #C602C4",
"1 	c #0202AC",
"2 	c #6A6A04",
"3 	c #028204",
"4 	c #828204",
"5 	c #820204",
"6 	c #02BA04",
"7 	c #BABA04",
"8 	c #BA0204",
"9 	c #029E04",
"0 	c #9E9E04",
"a 	c #820284",
"b 	c #02D604",
"c 	c #D6D604",
"d 	c #BA02BC",
"e 	c #020294",
"f 	c #028284",
"g 	c #828284",
"h 	c #9E0204",
"i 	c #02BABC",
"j 	c #BABABC",
"k 	c #D60204",
"l 	c #029E9C",
"m 	c #9E9E9C",
"n 	c #9E029C",
"o 	c #02D6D4",
"p 	c #D6D6D4",
"q 	c #D602D4",
"r 	c #0202CC",
"s 	c #027A04",
"t 	c #7A7A04",
"u 	c #7A0204",
"v 	c #02B204",
"w 	c #B2B204",
"x 	c #B20204",
"y 	c #026A6C",
"z 	c #029604",
"A 	c #969604",
"B 	c #7A027C",
"C 	c #02CE04",
"D 	c #CECE04",
"E 	c #B202B4",
"F 	c #6A026C",
"G 	c #020284",
"H 	c #027A7C",
"I 	c #7A7A7C",
"J 	c #960204",
"K 	c #02B2B4",
"L 	c #B2B2B4",
"M 	c #CE0204",
"N 	c #029694",
"O 	c #969694",
"P 	c #960294",
"Q 	c #02CECC",
"R 	c #CECECC",
"S 	c #CE02CC",
"T 	c #0202BC",
"U 	c #6A6A6C",
"V 	c #028A04",
"W 	c #8A8A04",
"X 	c #8A0204",
"Y 	c #02C204",
"Z 	c #C2C204",
"` 	c #C20204",
" .	c #02A604",
"..	c #A6A604",
"+.	c #8A028C",
"@.	c #02DE04",
"#.	c #DEDE04",
"$.	c #C202C4",
"%.	c #0202A4",
"&.	c #028A8C",
"*.	c #8A8A8C",
"=.	c #A60204",
"-.	c #02C2C4",
";.	c #C2C2C4",
">.	c #DE0204",
",.	c #02A6A4",
"'.	c #A6A6A4",
").	c #A602A4",
"!.	c #02DEDC",
"~.	c #DEDEDC",
"{.	c #DE02DC",
"].	c #0202DC",
"^.	c #02026C",
"/.	c #027604",
"(.	c #767604",
"_.	c #760204",
":.	c #02AE04",
"<.	c #AEAE04",
"[.	c #AE0204",
"}.	c #026E04",
"|.	c #029204",
"1.	c #929204",
"2.	c #760274",
"3.	c #02CA04",
"4.	c #CACA04",
"5.	c #AE02AC",
"6.	c #6E0204",
"7.	c #02027C",
"8.	c #027674",
"9.	c #929294",
"0.	c #CACACC",
"a.	c #A2A2A4",
"b.	c #DADADC",
"c.	c #9A9A9C",
"d.	c #D2D2D4",
"e.	c #767674",
"f.	c #AEAEAC",
"g.	c #6E6E04",
"h.	c #868604",
"i.	c #BEBE04",
"j.	c #A2A204",
"k.	c #DADA04",
"l.	c #868684",
"m.	c #BEBEBC",
"n.	c #7E7E04",
"o.	c #B6B604",
"p.	c #9A9A04",
"q.	c #D2D204",
"r.	c #7E7E7C",
"s.	c #B6B6B4",
"t.	c #6E6E6C",
"u.	c #029294",
"v.	c #02CACC",
"w.	c #02A2A4",
"x.	c #02DADC",
"y.	c #029A9C",
"z.	c #02D2D4",
"A.	c #02AEAC",
"B.	c #028604",
"C.	c #02BE04",
"D.	c #02A204",
"E.	c #02DA04",
"F.	c #028684",
"G.	c #02BEBC",
"H.	c #027E04",
"I.	c #02B604",
"J.	c #026E6C",
"K.	c #029A04",
"L.	c #02D204",
"M.	c #027E7C",
"N.	c #02B6B4",
"O.	c #920294",
"P.	c #CA02CC",
"Q.	c #A202A4",
"R.	c #DA02DC",
"S.	c #9A029C",
"T.	c #D202D4",
"U.	c #920204",
"V.	c #CA0204",
"W.	c #860204",
"X.	c #BE0204",
"Y.	c #860284",
"Z.	c #BE02BC",
"`.	c #A20204",
" +	c #DA0204",
".+	c #7E0204",
"++	c #B60204",
"@+	c #7E027C",
"#+	c #B602B4",
"$+	c #6E026C",
"%+	c #9A0204",
"&+	c #D20204",
"*+	c #0202B4",
"=+	c #02029C",
"-+	c #0202D4",
";+	c #02028C",
">+	c #0202C4",
". . . . . . . . . . . . . . . -+].-+].-+-+r r >+>+>+>+T 1 G b E.E.E.L.b C C 3.> Y Y 6 v B. + + + +&+k M M ( ( ` ` ++x W.p b.p b.d.p R R } } ;.;.s.L l.q R.q R.T.q S S P.| $.$.d E Y.o x.o x.z.o Q Q v.[ -.-.i K F.c k.k.k.q.c D D 4., Z Z 7 w h.",
". . . . . . . . . . . . . . . ].-+-+r >+r T >+T T *+*+1 e 7.E.E.L.C 3.3.C.C.6 6 v I.$ = s k  +&+M ( ( X.X.8 ++x ++[.] u b.p d.R } } m.m.j s.L s.f.9.I R.R.T.S | | Z.Z.d #+E #+' O.B x.x.z.Q [ [ G.G.i i K N.^ u.H k.k.q.D 4.4.i.i.7 7 w o.% 1.t ",
". . . . . . . . . . . . . . . ].-+T T T T *+1 1 1 %.%.%.;+! E.L.C.6 6 6 I.:.$ $  . .D.V s  +M X.X.X.++x x [.& `.`.`.X u ~.d.m.m.m.s.L L f./ a.a.m *.I R.T.Z.Z.Z.#+E 5.5.' Q.).n +.B x.z.G.G.G.N.K A.^ ^ ,.,.l &.H k.q.i.7 7 7 o.<.% % ....0 W t ",
". . . . . . . . . . . . . . . -+r T T *+*+1 1 1 1 %.%.=+;+7.E.3.C.C.6 I.:.v :.:.D. .9 V /. +M X.8 ++8 x [.& & =.=.h X _.p 0.m.j s.j L f./ / '.'.m *.e.q S Z.d #+d E E ' 5.).Q.n +.2.o Q G.i N.i K K A.A.w.,.l _ 8.k.4.i.i.7 o.<.w <.<.j...0 - t ",
". . . . . . . . . . . . . . . -+r T *+T *+*+1 1 %.%.=+=+G ! b > 6 I.6 I.v :.$ $ D.D.D.V /.k ( X.++++x x [.[.=.`.`.h X _.p } j s.s.L L f.f.'.a.a.a.*.e.T.| d #+#+E E 5.' ).).Q.Q.+.2.z.[ i N.N.K K A.^ ^ w.w.l &.8.c , 7 o.7 o.w <.% % j.j.0 W (.",
". . . . . . . . . . . . . . . -+>+T *+*+*+1 1 %.1 %.%.%.;+! b > 6 I.v I.:.:.$ $  .9 D.B.+ k ( 8 ++x ++[.& =.& =.h `.W.# p } j L L s.f./ './ '.m a.l.{ q | d E E #+5.' ' ' Q.n Q.Y.; o [ i N.N.N.A.^ ^ ^ ,.l w.F.~ c , 7 o.w o.<.<.% % ..0 j.h.(.",
". . . . . . . . . . . . . . . r T *+*+*+*+1 1 %.%.=+%.e G ! C Y v I.v :.$ :. . .9 D.K.B.+ M ` ++++x [.[.[.=.`.h `.%+X # 0.;.s.s.L f.f.f.'.a.a.a.c.l.{ P.$.#+#+E 5.5.' ).).Q.Q.S.Y.; v.-.K K K A.A.^ ,.,.w.w.y.F.~ D Z w o.w <.% <.....j.j.p.h.@ ",
". . . . . . . . . . . . . . . r T *+1 1 1 1 1 %.%.%.=+=+;+^.3.C.v :.:.:.:.$  .D.D.K.K.B.+ M X.[.[.& [.& & =.=.`.h J 5 # R m.f.f./ f./ / '.'.m c.O l.{ S Z.5.5.' ' ' ' ' Q.n S.P Y.; Q G.K A.^ A.^ ^ ,.w.l l y.F.~ 4.i.w <.<.<.<.% ..j.0 0 A h.(.",
". . . . . . . . . . . . . . . r *+1 1 1 %.1 %.%.=+=+=+e G ^.3.6 :.$ :. .$  . .9 D.K.K.3 }.V.8 [.[.& & & =.`.h `.h %+5 6.0.j f.f./ / / '.a.m a.m c.g t.P.d 5.5.5.' ' Q.).n Q.n S.a $+v.i A.A.^ ,.^ ,.,.l l y.y.f J.4.7 <.% <...% ....0 0 0 p.4 g.",
". . . . . . . . . . . . . . . >+T 1 %.%.1 %.%.=+%.=+=+e G ^.> 6 $ $  .$  .D.9 D.K.K.z B.}.( 8 & =.=.=.`.`.`.`.%+%+U.5 # } j / '.'.'.a.a.a.a.c.c.9.g t.| d ' ).).).).).n Q.S.S.O.a $+[ N.^ ,.^ ^ ,.w.l w.l y.N F.~ , 7 % % ..% ..j.0 j.0 p.1.4 @ ",
". . . . . . . . . . . . . . . >+*+%.1 %.%.%.%.=+=+=+e e G ^.Y 6  .$  . .D.D.9 9 9 z |.3 * ` 8 =.& =.=.`.h h %+%+J J .+) ;.s.'./ '.'.a.m m c.c.O 9.g U $.#+).).).Q.n n n S.S.P O.a F -.N.,.,.,.,.w.w.l y.l N u.f y Z 7 ..% ....j.j.0 p.p.A A 4 g.",
". . . . . . . . . . . . . . . T *+%.%.=+%.=+=+=+=+e e e 7.^.6 v  .D.D.D.9 K.9 K.z |.z H.}.X.x =.=.`.`.%+h %+%+J J U.5 6.m.L a.a.a.a.c.m m c.O 9.O r.t.Z.E Q.).Q.Q.n n n S.P P P @+$+G.K w.w.l w.y.y.l y.N u.N M.~ 7 w ..j.j.j.0 p.0 p.A A 1.n.g.",
". . . . . . . . . . . . . . . T 1 =+%.=+=+%.=+e e e e e 7.^.6 $ 9 9 9 K.D.K.z |.z |.z 3 * 8 [.%+h h h `.%+J U.U.U.U.5 ) m.f.m m m m a.c.O 9.O 9.O r.U Z.5.n n Q.n Q.S.P O.O.O.P a F G.A.l w.l l w.y.N u.N u.u.M.J.7 % 0 0 0 p.j.p.A A 1.A 1.n.2 ",
". . . . . . . . . . . . . . . *+%.;+;+;+G G G G G G G G 7.^.6 D.= V V V B.B.3 3 3 H.H./.* 8 `.] X X W.W.W.5 5 5 .+.+_.) s.a.: *.*.l.l.g g g r.r.r.I U #+Q.< +.+.Y.Y.a a a a @+@+2.F N.w._ &.&.F.F.F.f f f M.f 8.y 7 j.- W W W h.h.4 4 4 n.4 (.g.",
". . . . . . . . . . . . . . . 1 G ! 7.! ! ! ^.! ^.^.^.^.^.^.$ 3 /.s /./.+ + /.}.}.}.* + }.& 5 _.u _.# # # # 6.6.6.) 6.6./ g e.I e.{ { { { t.t.t.U t.t.' a 2.B 2.; ; ; ; $+$+$+F $+$+^ f 8.H H 8.~ ~ 8.J.J.J.J.J.J.% 4 (.t (.(.@ @ @ g.g.g.g.g.@ "};
