/* XPM */
static char *normal[] = {
/* width height num_colors chars_per_pixel */
"    54    53      255            2",
/* colors */
".. c #040204",
".# c #0c86b4",
".a c #8c0a6c",
".b c #064561",
".c c #470339",
".d c #092545",
".e c #86838c",
".f c #4a454a",
".g c #441a6c",
".h c #110e57",
".i c #482814",
".j c #89cbe7",
".k c #072662",
".l c #166784",
".m c #18cad0",
".n c #ece090",
".o c #3c4254",
".p c #4a5597",
".q c #874817",
".r c #661132",
".s c #2b0d41",
".t c #282865",
".u c #478a97",
".v c #47183f",
".w c #faf880",
".x c #33044c",
".y c #692421",
".z c #26262a",
".A c #0a3462",
".B c #4cc7cf",
".C c #104c90",
".D c #cc04c0",
".E c #c48234",
".F c #081628",
".G c #44628c",
".H c #663716",
".I c #576c9f",
".J c #09556f",
".K c #1c62bc",
".L c #1ca2ac",
".M c #49084f",
".N c #27489e",
".O c #ec4e44",
".P c #8fa3b8",
".Q c #121b58",
".R c #26141a",
".S c #c5c9db",
".T c #44acbc",
".U c #29657b",
".V c #dce8e8",
".W c #742520",
".X c #e4caf4",
".Y c #17355f",
".Z c #581430",
".0 c #2a334a",
".1 c #190b1d",
".2 c #570933",
".3 c #32144e",
".4 c #ece6c4",
".5 c #154a74",
".6 c #94eff2",
".7 c #29356a",
".8 c #20154f",
".9 c #d8dbe7",
"#. c #7c421c",
"## c #10e8f8",
"#a c #49e6f7",
"#b c #a7a8b3",
"#c c #9c028c",
"#d c #113754",
"#e c #555862",
"#f c #c42a5c",
"#g c #08486e",
"#h c #275b74",
"#i c #7988aa",
"#j c #7456cc",
"#k c #e947e9",
"#l c #048ee4",
"#m c #56619e",
"#n c #4c7cd8",
"#o c #24769c",
"#p c #571b34",
"#q c #2a3b86",
"#r c #182c5f",
"#s c #26244e",
"#t c #16161e",
"#u c #716c77",
"#v c #34a6bc",
"#w c #2a1644",
"#x c #0a0c13",
"#y c #1b2750",
"#z c #cdd0dd",
"#A c #2589a4",
"#B c #470c3b",
"#C c #503284",
"#D c #671c26",
"#E c #380b42",
"#F c #692d28",
"#G c #073c60",
"#H c #64e2e4",
"#I c #aab4c6",
"#J c #9854e8",
"#K c #6873a8",
"#L c #376a81",
"#M c #772b21",
"#N c #a9f9f9",
"#O c #221c4e",
"#P c #2ce4e8",
"#Q c #842a3c",
"#R c #49224f",
"#S c #195671",
"#T c #2854b0",
"#U c #183a78",
"#V c #341e84",
"#W c #282c42",
"#X c #18183b",
"#Y c #847684",
"#Z c #5094ec",
"#0 c #2f1c4f",
"#1 c #de26e8",
"#2 c #2195b8",
"#3 c #741e21",
"#4 c #494879",
"#5 c #0867a5",
"#6 c #ac491c",
"#7 c #370d50",
"#8 c #eaebf0",
"#9 c #383c67",
"a. c #c4aafc",
"a# c #d8b648",
"aa c #9422dc",
"ab c #c462e4",
"ac c #f96b31",
"ad c #f909f9",
"ae c #b812d0",
"af c #b48ae4",
"ag c #640e84",
"ah c #ec62ec",
"ai c #fc3e74",
"aj c #fc9ebc",
"ak c #30c8ec",
"al c #fc862c",
"am c #396bc4",
"an c #b9c4da",
"ao c #4cdefc",
"ap c #08baec",
"aq c #649eac",
"ar c #24b6c4",
"as c #d41efc",
"at c #89391f",
"au c #6f73df",
"av c #8432cc",
"aw c #7422b0",
"ax c #443eb4",
"ay c #f05838",
"az c #6c5a6c",
"aA c #fc26fc",
"aB c #949298",
"aC c #0e77cc",
"aD c #ebdff0",
"aE c #fc6c84",
"aF c #4698b0",
"aG c #8716a4",
"aH c #44b0f0",
"aI c #fc7ac4",
"aJ c #6af9fa",
"aK c #ac225c",
"aL c #64c7e8",
"aM c #2890f8",
"aN c #fcba3c",
"aO c #045992",
"aP c #b4dafc",
"aQ c #04d2dc",
"aR c #4a798b",
"aS c #cafcfc",
"aT c #18a8fc",
"aU c #777a86",
"aV c #ac3ed4",
"aW c #88b8c4",
"aX c #30bafc",
"aY c #1cf8f9",
"aZ c #4c5adc",
"a0 c #5eaebc",
"a1 c #6032b4",
"a2 c #e03ae0",
"a3 c #f9aef1",
"a4 c None",
"a5 c #24a6f4",
"a6 c #a43c44",
"a7 c #33f9fb",
"a8 c #294a7c",
"a9 c #495587",
"b. c #fc886c",
"b# c #f418f4",
"ba c #44314c",
"bb c #5c7e9c",
"bc c #50f7f9",
"bd c #394990",
"be c #fc46cc",
"bf c #7c94c4",
"bg c #247ef4",
"bh c #ac1674",
"bi c #3c7eec",
"bj c #cc2aa4",
"bk c #592e21",
"bl c #98ced4",
"bm c #974627",
"bn c #fcfab4",
"bo c #f437f1",
"bp c #90fbfc",
"bq c #fcc6c4",
"br c #74065c",
"bs c #fc4274",
"bt c #383945",
"bu c #393a8f",
"bv c #5c4274",
"bw c #972a4c",
"bx c #1c56b4",
"by c #0898c8",
"bz c #0775a9",
"bA c #fc32ac",
"bB c #4c3d7a",
"bC c #570559",
"bD c #3c5680",
"bE c #3c7586",
"bF c #b9bac8",
"bG c #3c5ebc",
"bH c #7c0674",
"bI c #5c9aa4",
"bJ c #38467e",
"bK c #552338",
"bL c #1abcf2",
"bM c #f779f7",
"bN c #2c8ac0",
"bO c #b4523c",
"bP c #9499b4",
"bQ c #0cc6fc",
"bR c #3c220c",
"bS c #753524",
"bT c #391911",
"bU c #39b6cf",
"bV c #17dae7",
"bW c #22074f",
"bX c #568494",
"bY c #344ebc",
"bZ c #f94af4",
"b0 c #361444",
"b1 c #b8f4f6",
"b2 c #78fafc",
"b3 c #5c0e6c",
"b4 c #60b8d0",
"b5 c #5caedc",
"b6 c #7ce6f4",
"b7 c #737dab",
"b8 c #494d54",
/* pixels */
"a4a4a4a4a4a4a4a4a4a4a4a4a4a4a4a4a4a4a4a4a4a4a4a4aD.V#8#8.V.9a4a4a4a4a4a4a4a4a4a4a4a4a4a4a4a4a4a4a4a4a4a4a4a4",
"a4a4a4a4a4a4a4a4a4a4a4a4a4a4a4a4a4a4a4aDbFaz#0#x#x.F...........Rba#Y#za4a4a4a4a4a4a4a4a4a4a4a4a4a4a4a4a4a4a4",
"a4a4a4a4a4a4a4a4a4a4a4a4a4a4a4a4a4a4bt.................................1#za4a4a4a4a4a4a4a4a4a4a4a4a4a4a4a4a4",
"a4a4a4a4a4a4a4a4a4a4a4a4a4a4a4#8#b.o....................................#xbtbFa4a4a4a4a4a4a4a4a4a4a4a4a4a4a4",
"a4a4a4a4a4a4a4a4a4a4a4a4a4a4#bbt...............................................0bFa4a4a4a4a4a4a4a4a4a4a4a4a4",
"a4a4a4a4a4a4a4a4a4a4a4a4#z#e................#x.F.daUaBbPbD.d#X.F..................b8#8a4a4a4a4a4a4a4a4a4a4a4",
"a4a4a4a4a4a4a4a4a4a4a4#b#X.............F.d#G#G#G.b.Pan#I#L.A#r#r#s#O.F.F.............1bFa4a4a4a4a4a4a4a4a4a4",
"a4a4a4a4a4a4a4a4a4#8aU.............1#S#g.b.b.b#g#g#ianbF#S.A.A.Y.Y.A#r.Gb8#x.............ea4a4a4a4a4a4a4a4a4",
"a4a4a4a4a4a4a4a4a4#e............#ean#h#h.5#g#g.b#g#g.Pbf#G.A.Y.Y.Y#r.A.IbPb7#W............a4a4a4a4a4a4a4a4a4",
"a4a4a4a4a4a4a4#8#e........#ebF#z#z#z#L#h.J.b.b.b#G#G.b#G#G.Y.Y.t#r#r#ra8.I#O#E.x.c.1........#ua4a4a4a4a4a4a4",
"a4a4a4a4a4a4a4aU........#u.S.S#z.9.9#L#h.b.b#G.b#G#G#G.b#d#d.0#r#W#r#y#O#w#w#7b0.x.c.1........aBa4a4a4a4a4a4",
"a4a4a4a4a4a4bP........aU.S#z#z#z.9.9bE#h#S.b.b.b#G#d#G#G.A.Y.Y#y#y#y#y#X.3#w#wb0.s.x.x.1.........Sa4a4a4a4a4",
"a4a4a4a4a4bF.z......#uan.S#z.9.9.9aDbE#L#S.b.b.b.b#G#d.b#d#d#r#y#W#y#s#O#O#w#w.3#E.s.3#O#9......#ta4a4a4a4a4",
"a4a4a4a4#8.d......b8an.S#z#z.9.9aD.VaR#L#S#S.J.J.b.b.b#G.b#d#d#y.7au.p#s#0.3#E#E#E.s#Oa9b7........aza4a4a4a4",
"a4a4a4a4aU........bFan#z#z.9.9.VaD#8bX#L.U#S#S.l.L.mbVbV.m#2.l.Yb5aSa4aZb0#0#E#E#E.s#rb7b7#x.........9a4a4a4",
"a4a4a4aD.1........an.S#z#z.9.9.V#8#8aRbE.U.U.T.6#NbcaYbQ##a7aY#a#NbG#na4#0b0#E.c.c#7bDb7b7.Z.........fa4a4a4",
"a4a4a4#u........#ean.S#z#z.9.9#8#8#8.ubEbEbla4aJbU#v#2.l.J#gbzbVaMbGamaPb0b0#E.c.c.cb0bv#R#FbT........#za4a4",
"a4a4#8.1........#i.S.S#z.9.9.VaD#8a4bXbEbla4aJ.T#v.Tar.#bzaO#5#laTbi#Nblb0#E.c.c.c#B.2.2.Z.W#M.........fa4a4",
"a4a4ba.........k.5.S.S#z.9.9aD.V#8.VbX.Va4a0aFaLa4.9aF.U.Lb6aJbQ#5#Gaoamb0#E.c.c.c.2.Z#D#D.W.y#F........aBa4",
"a4aD#x......#x#y#G.S.S#z#z.9.V#8#8anaq#8b6a0.BaS.V.u#L#S#h#A#Na5#g#GaC#H#w#E#B.c.2.2.r#D.W.y.y.y.1......bta4",
"a4#I........#X#O.A#I.S#z.9.9.9#8#8.PaWa4b4aLbpa4a0.U#L.U#h#h.Ba7.b#G.C.6#w#E.c.c.2.Z#D#3#M#D.y.Z#W........#8",
"a4aU........#O#y.A#i.S#z#z.9.9#8.9bXaWa4aLbpaS#8.u#L#L#h#h#S#vbc#g#G#gb1b0#E.c.c.2.r#3.W#M.y#p#R.p........bF",
"a4#e........#s#y.A#Lan.S#z.9.9.9.PbEa0a4b2a4a4a4.u.U#h.U#h#S#Abc.b.A#Gb2#O.s#B.c.2#D#3.W.W#D.v#m#m#t......aU",
"a4#W......#x#O#O.Y#g.Ian#z#z.SbX#h.l.Ta4aSa4a4#8bI#L#h#h#h#Sara7#g#G#qb1#y#w#E.c#D#3#3#3#3.ZbB#m#m#y......b8",
"#8#X.......1#O#y#r.b#gbE.PbbbE#S#g.J#Aa4.Va4bpa4bl.U#hbD.5#S#PaT#G.A#T.S#O#0#E.2.2#D.y#3#D.v#m#m#m.0.......z",
".V#x......#X#O#y#y.A#g#g.C#S#S.b#g.b.lb1#NbpaFaL#8bI#h#S#g#2a7aO.A#U#Zau#wb0#B.c.2#D.W#D#D#C.I#m#m#9......#t",
".9.........8.8.8#y#r.A#g#g#g#g#G.b.J#S.BaSaH.U.UaJ#8.B#Aaka7#l#G#G.NaSbu#E#E.c.2.Z.r.r#D.Z#m#m#m#mbJ........",
".V........#X#w#E.8#0#s#y#r#r.Y#d#G.b#g.5.#.6aJ#o.UbNaobL#5#G.A.Cbcbf.t.8.c.c.Z#D#3#M.y.2.c.I#m#m.pbJ........",
".9.........Q.s#E#w#w#w#s#s#y.Y.Y#d.b.b.b.b#AbcbpbNaXa7aCaOaObgbp#Z.t#O.3.c.c.r#D.W.y#D.Zb0.I#m#m.p#9......#x",
".V#x.......d#O.s#w#w#w#0#s#s#s#y#r#G#G#G.##abcakbLaYaYaYaY#Pakbx#r#y.8#E.c.Z#D.y.y.y.Z#EbB#m#m.p.p.7......#t",
"a4#t.......0.d#O#X#O#w#wb0#w#0.z#r#y#d#5aYapaCaYaYaQbybz#5aO#U#r#O.8.3#E.2#D.y.y.y.Z#Bb0#m#m#m.p.p.t.......z",
"a4#W.......0.A.k#O#O#wb0#w#w#w#0#s#y.dbN#a.C#5aYapby.m#P#abc.6.Xabaw.M.c.Z.y.y.y.y.Z.Z#C.I#m.p.pa9.d......b8",
"a4b8......#X.G.A.Q#X#w#wb0#0#s#w#X#s#y#naH#G#UaCaXakbg.KbxbYax#CawaAad.a#D.y.W.W.y.Z#Ea9.I#m.p.pbd#x.......e",
"a4.e........b7a8.d#w#w#w#w#w#O#O#X#w#y.Nbp.C#r.C#U#U.Y#U.Nbu#V.3.s.c.D#k#M#M.y.y#D#B#R.I#m.p.pbdbd........bF",
"a4#z........#e#K.A.8.8#w.s#w#w#w#O#w#O.t.j.jbY.N#q#q#qaZau#Ja1.g#7.c.2be#M#M.y.y.Z#Ebv#m#m.p.pbd.7........#8",
"a4a4#X......#W#i.G.Q#O#w.s#w#w.s.s#w#w#w.t#j.9.Xa..X#8af#JaVa2bMaGbC.rbsat.y#D.Z#B.3#m#m#m.pbdbd#t......bta4",
"a4a4.S........#9b7.k.k.Q#X.8.s.s#E.s.s#E.s.3.3.3.3.3.3.3#7#E.xbCbo#faEbnbO.y#p#E.3#m#m.p.pbdbd#y......#x#8a4",
"a4a4a4.0......#x#Ka8.k.Q.Q.8.8.s.s.s#E.sb3bo#1ag#7#7b0.x#B.x.2bha3aiaIaja6.Z#E.x#4#m.p.p.pbd#q........#ea4a4",
"a4a4a4#b.........0#K.Y.k.Q#X.h#X.s.s.s#7a2as.Dad#1aGbC.c.Mbrbj.XaEayb.b.#Q.Z#E.g.p.p.p.pbdbd#X........#za4a4",
"a4a4a4a4#W........#K#K.k.d.Q.Q.8.8.8.8aabZ.M.MbCaeb#ad#1bZa3bq.O#6ayacbn#D#B#BbJ#m.p.pbdbd.7........b8a4a4a4",
"a4a4a4a4#I.........I#K.p.k.k.k.Q.Q.8.8ahaa.M.x.M.M#cadbAaKbwatat#6ac.w.4#p.v.ga9.pbDbdbdbd#x.........9a4a4a4",
"a4a4a4a4a4b8......#W#K.Ibd.k.k.k.Q.Q#Oa1bMasagbCbHadbMbw#D#Mat#6al.w.nbm#pb0bB.pbd.pbdbd#q........aUa4a4a4a4",
"a4a4a4a4a4#8.F......#9#m#K#q.k.k.Q.Q.Q.8#Vavb#adadbobZbwa6ayaN.w.wa#bm.W#p.v#4bdbdbdbdbu#y.......za4a4a4a4a4",
"a4a4a4a4a4a4#I........#9#m.IbJ.k.k.k.Q.Q.QbW#7agaea2boa3#8.na#.E#6#M#M#MbK.vbu.pbdbd#q#y........#za4a4a4a4a4",
"a4a4a4a4a4a4a4aU........#9#m#m.p#U.k.k.Q.h.8bW.x.x.x.M.y.W#M#MbS#M#M#M.ybK.v#9bJbd#q#y........#ba4a4a4a4a4a4",
"a4a4a4a4a4a4a4a4a4..........#tbd#m.p.h.h.h.hbWbW#7#B.v#p#p.Z#p.Z#p#p#DbK#FbKba.t#x........aUa4a4a4a4a4a4a4a4",
"a4a4a4a4a4a4a4a4a4#e............#s.p#ObWbWbWbW#7#E.vbK#F#FbS#FbSbSbS#Q#F#Fbk.R............a4a4a4a4a4a4a4a4a4",
"a4a4a4a4a4a4a4a4a4a4.e..............bdbW.s.x#Eb0.vbKbK#F#F#F#F#MbSbS#.atbR#x............#ba4a4a4a4a4a4a4a4a4",
"a4a4a4a4a4a4a4a4a4a4a4bF#t.............FbW.sb0b0.v#pbk.H#.#..q.qbm.q.HbT.............z#za4a4a4a4a4a4a4a4a4a4",
"a4a4a4a4a4a4a4a4a4a4a4a4#8#e...................1.RbTbk.H.H.Hbk.i.R................aUa4a4a4a4a4a4a4a4a4a4a4a4",
"a4a4a4a4a4a4a4a4a4a4a4a4a4a4.Sbt..............................................b8#za4a4a4a4a4a4a4a4a4a4a4a4a4",
"a4a4a4a4a4a4a4a4a4a4a4a4a4a4a4a4.Sbt....................................#xb8#za4a4a4a4a4a4a4a4a4a4a4a4a4a4a4",
"a4a4a4a4a4a4a4a4a4a4a4a4a4a4a4a4a4a4.e.z..............................bt#8a4a4a4a4a4a4a4a4a4a4a4a4a4a4a4a4a4"
};
