/* XPM */
static char *upsdown[] = {
/* width height num_colors chars_per_pixel */
"    54    53      254            2",
/* colors */
".. c #040204",
".# c #0c86b4",
".a c #8c0a6c",
".b c #064561",
".c c #470339",
".d c #092545",
".e c #86838c",
".f c #4a454a",
".g c #441a6c",
".h c #110e57",
".i c #482814",
".j c #89cbe7",
".k c #072662",
".l c #166784",
".m c #18cad0",
".n c #ece090",
".o c #3c4254",
".p c #4a5597",
".q c #874817",
".r c #661132",
".s c #2b0d41",
".t c #282865",
".u c #478a97",
".v c #47183f",
".w c #faf880",
".x c #33044c",
".y c #692421",
".z c #26262a",
".A c #0a3462",
".B c #4cc7cf",
".C c #104c90",
".D c #cc04c0",
".E c #c48234",
".F c #081628",
".G c #44628c",
".H c #663716",
".I c #576c9f",
".J c #09556f",
".K c #1c62bc",
".L c #1ca2ac",
".M c #49084f",
".N c #27489e",
".O c #ec4e44",
".P c #8fa3b8",
".Q c #121b58",
".R c #26141a",
".S c #c5c9db",
".T c #44acbc",
".U c #29657b",
".V c #dce8e8",
".W c #742520",
".X c #e4caf4",
".Y c #17355f",
".Z c #581430",
".0 c #2a334a",
".1 c #190b1d",
".2 c #570933",
".3 c #32144e",
".4 c #ece6c4",
".5 c #154a74",
".6 c #94eff2",
".7 c #29356a",
".8 c #20154f",
".9 c #d8dbe7",
"#. c #7c421c",
"## c #10e8f8",
"#a c #49e6f7",
"#b c #a7a8b3",
"#c c #9c028c",
"#d c #113754",
"#e c #555862",
"#f c #c42a5c",
"#g c #08486e",
"#h c #275b74",
"#i c #7988aa",
"#j c #7456cc",
"#k c #e947e9",
"#l c #fcfabc",
"#m c #048ee4",
"#n c #56619e",
"#o c #4c7cd8",
"#p c #24769c",
"#q c #571b34",
"#r c #2a3b86",
"#s c #182c5f",
"#t c #26244e",
"#u c #16161e",
"#v c #716c77",
"#w c #34a6bc",
"#x c #2a1644",
"#y c #0a0c13",
"#z c #1b2750",
"#A c #cdd0dd",
"#B c #2589a4",
"#C c #470c3b",
"#D c #503284",
"#E c #671c26",
"#F c #380b42",
"#G c #692d28",
"#H c #073c60",
"#I c #64e2e4",
"#J c #aab4c6",
"#K c #9854e8",
"#L c #6873a8",
"#M c #376a81",
"#N c #772b21",
"#O c #a9f9f9",
"#P c #221c4e",
"#Q c #2ce4e8",
"#R c #842a3c",
"#S c #49224f",
"#T c #195671",
"#U c #2854b0",
"#V c #183a78",
"#W c #341e84",
"#X c #282c42",
"#Y c #18183b",
"#Z c #847684",
"#0 c #5094ec",
"#1 c #2f1c4f",
"#2 c #de26e8",
"#3 c #2195b8",
"#4 c #741e21",
"#5 c #494879",
"#6 c #0867a5",
"#7 c #ac491c",
"#8 c #370d50",
"#9 c #eaebf0",
"a. c #383c67",
"a# c #c4aafc",
"aa c #d8b648",
"ab c #9422dc",
"ac c #c462e4",
"ad c #f96b31",
"ae c #f909f9",
"af c #b812d0",
"ag c #b48ae4",
"ah c #640e84",
"ai c #ec62ec",
"aj c #fc3e74",
"ak c #fc9ebc",
"al c #30c8ec",
"am c #fc862c",
"an c #396bc4",
"ao c #b9c4da",
"ap c #4cdefc",
"aq c #08baec",
"ar c #24b6c4",
"as c #d41efc",
"at c #89391f",
"au c #6f73df",
"av c #8432cc",
"aw c #7422b0",
"ax c #443eb4",
"ay c #f05838",
"az c #6c5a6c",
"aA c #fc26fc",
"aB c #949298",
"aC c #0e77cc",
"aD c #ebdff0",
"aE c #fc6c84",
"aF c #4698b0",
"aG c #8716a4",
"aH c #44b0f0",
"aI c #fc7ac4",
"aJ c #6af9fa",
"aK c #ac225c",
"aL c #64c7e8",
"aM c #2890f8",
"aN c #fcba3c",
"aO c #045992",
"aP c #b4dafc",
"aQ c #04d2dc",
"aR c #4a798b",
"aS c #cafcfc",
"aT c #18a8fc",
"aU c #777a86",
"aV c #ac3ed4",
"aW c #88b8c4",
"aX c #30bafc",
"aY c #1cf8f9",
"aZ c #4c5adc",
"a0 c #5eaebc",
"a1 c #6032b4",
"a2 c #e03ae0",
"a3 c #f9aef1",
"a4 c None",
"a5 c #24a6f4",
"a6 c #a43c44",
"a7 c #33f9fb",
"a8 c #294a7c",
"a9 c #495587",
"b. c #fc886c",
"b# c #f418f4",
"ba c #44314c",
"bb c #5c7e9c",
"bc c #50f7f9",
"bd c #394990",
"be c #fc46cc",
"bf c #7c94c4",
"bg c #247ef4",
"bh c #ac1674",
"bi c #3c7eec",
"bj c #cc2aa4",
"bk c #592e21",
"bl c #98ced4",
"bm c #974627",
"bn c #fcfab4",
"bo c #f437f1",
"bp c #90fbfc",
"bq c #fcc6c4",
"br c #74065c",
"bs c #383945",
"bt c #393a8f",
"bu c #5c4274",
"bv c #972a4c",
"bw c #1c56b4",
"bx c #0898c8",
"by c #0775a9",
"bz c #fc32ac",
"bA c #4c3d7a",
"bB c #570559",
"bC c #3c5680",
"bD c #3c7586",
"bE c #b9bac8",
"bF c #3c5ebc",
"bG c #7c0674",
"bH c #5c9aa4",
"bI c #38467e",
"bJ c #552338",
"bK c #1abcf2",
"bL c #f779f7",
"bM c #2c8ac0",
"bN c #b4523c",
"bO c #9499b4",
"bP c #0cc6fc",
"bQ c #3c220c",
"bR c #753524",
"bS c #391911",
"bT c #39b6cf",
"bU c #17dae7",
"bV c #22074f",
"bW c #568494",
"bX c #344ebc",
"bY c #f94af4",
"bZ c #361444",
"b0 c #b8f4f6",
"b1 c #78fafc",
"b2 c #5c0e6c",
"b3 c #60b8d0",
"b4 c #5caedc",
"b5 c #7ce6f4",
"b6 c #737dab",
"b7 c #494d54",
/* pixels */
"a4a4a4a4a4a4a4a4a4a4a4a4a4a4a4a4a4#9bs...............................z.ea4a4a4a4a4a4a4a4a4a4a4a4a4a4a4a4a4a4",
"a4a4a4a4a4a4a4a4a4a4a4a4a4a4a4#A#e......................................bs.Sa4a4a4a4a4a4a4a4a4a4a4a4a4a4a4a4",
"a4a4a4a4a4a4a4a4a4a4a4a4a4.9.f..............................................bs.Sa4a4a4a4a4a4a4a4a4a4a4a4a4a4",
"a4a4a4a4a4a4a4a4a4a4a4a4aU.................RbQbk.H.H.H.ibS.R.1..................#ea4a4a4a4a4a4a4a4a4a4a4a4a4",
"a4a4a4a4a4a4a4a4a4a4#A.z............bS.H.q.q.q.q.q#..H#G#S.v.vbZ#F.1.F.............FbEa4a4a4a4a4a4a4a4a4a4a4",
"a4a4a4a4a4a4a4a4a4#b..............bQ#.atbRbR#G.H#G#G#GbJ.v#CbZ#F.x.s.xbI...............ea4a4a4a4a4a4a4a4a4a4",
"a4a4a4a4a4a4a4a4a4.............Rbk#G#GbRbRbRbRbR.H#G#GbJ.v.v#FbVbVbVbV#P.p#z............#ea4a4a4a4a4a4a4a4a4",
"a4a4a4a4a4a4a4a4aU........#y.tbabkbJ#E#q#E#q.Z.Z.Z#q#q#q.v.xbVbV.h.h.h.h.p#n#5.F..........a4a4a4a4a4a4a4a4a4",
"a4a4a4a4a4a4#b........#z#rbdbdbt.vbJ#G#N.W#RbR#N#N.ybJ.M#F.x.xbV.8.h.k.k.k.7.p#n#n.0........aUa4a4a4a4a4a4a4",
"a4a4a4a4a4#A........#z#rbIbdbdbA.vbJ.W#Natbm.Eaa.n#9a3boa2afah#8bV.Q.h.Q.k.k.kbd.I#na.........#Ja4a4a4a4a4a4",
"a4a4a4a4a4.z......#z#rbdbdbdbd#5.v#q#Nbmaa.w.waNada6bvbYboaeaeb#av#W.8.Q.Q.Q.k.ka8.I.Ia.......#u#9a4a4a4a4a4",
"a4a4a4a4aU........btbdbdbd.p.p#5#CbJa6.n.wam#7at.W#4bvbLaebGbBah#2bLa1.8.Q.Q.k.k.kbd#L.I#X......b7a4a4a4a4a4",
"a4a4a4.9........#ybdbdbd.p.p.p#1#C#q.4.wad#7atatbvaKbzae#cbB.x.x#8abai#W.Q.Q.Q.k.Q.k.p#L.I........#Ja4a4a4a4",
"a4a4a4b7.........7bdbd.p.p.pbA#8.Z#qbnaday#7.Obqa3#k#2aeb#afbB.cb2boaw.8.s.8.8.Q.Q.k.A#L#L........#Xa4a4a4a4",
"a4a4#A........#Ybdbd.p.p#n#n#1.M#q#Rb.b.ayaEaDbjbrbB.cbBaG#2ae.Dasa2#8#8.s.s.Q.8#Y.Q.k.Y#L.0........#ba4a4a4",
"a4a4#e........#rbd.p.p#n.p#5.x#F.Za6akaIaja3bh.c#F#F.x.3#F#Fah#2#kb2#F.s#xbV.sbV.8.Q.Q.ka8#L#y.......0a4a4a4",
"a4#9#y......#zbdbd.p.p#n#n.3.x#q.ybN#laE#fbobB.c#8#8.3.3#x.3bZ.3#8.3.s#F.s#F.s#x.8#Y.Q.Q.kb6.o.........Sa4a4",
"a4bs......#YbdbdbC#n#n#n.3#C.Z#E.Wataj.r.2aGbL#kaV#Kag#9aDa#.X.9#j.t.8#x.s#x.s.s.s.s.8#P.Q.Gb6#X......#Ya4a4",
"#9#y.......tbd.p.p#n#n#5#C#C.y.y#G#NbebB.c.x.ga1#KauaZbt#r#r.NbX.j.j.t#P#P#x#Y#x#Y.3.8.8#x.A#L#e........#Aa4",
"bE........bdbC.p.p#n.I.g#C#q.y#N#N#GbY.D.M#8#x#Waxbt#V#s#V#V.C#s.Cbpbd#P#P#Y#x#P#x#x.s#x.8.ka8b6.........ea4",
".e.......Fbd.p.p#n#n.p#C#q.y.y.W.y#E.aaeaAaw#Dax.Nbw.KbgalaXaC#V#VaH#o#z#P#P#P#1#x#xbZ#x#x.Q.k.G.z......b7a4",
"b7......#Y.p.p.p#n.IbA#C.Z#E.y.y#4.Z.c.cawac.X.6bca7#QbKbxaqaY#6.C#a#3#z.d#t#1#x#xbZ#x#x#Y#z.k.A.0......#Xa4",
".z......#X.p.p#n#n#n.v#C.Z.y.y.y#E.Z.c.s#P#P#s#V.C.KbybxaQ##aYaCaqaY#6.A#z#X#t#1#xbZ#x#x#P#Y#P#z.Y......#ua4",
"#u.......7.p.p#n#nbA#F.Z.y.y.y.y.Z.c.s.8#P#s#UbTaYaYaYaYaYbKalbc#a.##H#H#H.Y#z.z#t#t#t#x#x.s#x.8.d......#y.9",
"#y......bI.p.p#n#n.v.Z#E.y.W#4.Z.c.c#x#P.t#0b1aMaOaOaCa7aXbMbpaJ.#.b.b.b#H#H#d.Y#t#t#t#1bZ#x#F#F.d.........V",
"........bI.p#n#n.I.c#C.y#N.W#E.Z.c.c#P.tbfbc.C.A#H#6aqapbM.U#pbc.6#B#g#g.b#H#d.Y#s.Y#z#t#P#x#x.s#Y.........9",
"#y......bI#n#n.I#n.Z#E#E.r.Z.2.c.c.sbt#9#U.A#H#ma7al#B.B#9aJ.U.UaHaS.B#T#g.b#H.b#g.b.b.Y#s#t#P#x#Y.........V",
"#y......bI.p#n.IbA.Z#4.W.r.2.c#C#F#xau#0#H.AaOaY#3#ga8#haFa4aLaFbp#Ob0.l.J.b.b#T#T#T#g.b.A#z#z#P.1......#y.9",
".z.......0#n#n#n.v#4#E#4#E.Z.c#F#1#z.SbX#H#HaT#Q.5#T#h.U.Ubla4bpa4#9a4#B#T.J#T#Mbb.P#M#g#H#s#P#P.F......#u#9",
".f......#t#n.IbA.Z#E#4.y#4.r.2#F#P#Pb0.N.A#ga7ar#T#h#h#h.UbH#9a4a4aSa4.T#h#hbW#A#A.SaobD#g.A#z#P#y.......0a4",
"aU.......F#n.p.Z#E.W.W#4#E.2.c#F#F#Yb1.A.A.bbc#B#T#h#hbC#M.ua4a4a4b1a4a0bD.P.9.9.9#A#AaobD#s#s#P#y......b7a4",
"bE.........p#S#q.y#N.W#4.r.2.c.c#F#xb0#g.A#gbc#w#T#h#h#M#M.u#9aSbpaLa4aWbW.9.V.9.9#A#A.S#i.A#t#P........aUa4",
"#9#y......#S.Z.y#E#N.W#E.r.2.2.c#F#x.6aO#H#ga7.B#h#h.U#M#Ma0a4b1aLb3a4aW.P.V#9.V.9.9#A.S#J.A#z.8........#ba4",
"a4.0.......1.y.y#E.W#E.Z.2.2.c.c#F#x#IaC.A#ga5#O#B#T#h#M.u#9aSa0a0b5a4bHao#9#9.9.9.9#A.Sao.A#z#y......#y#9a4",
"a4aB........#G.y#G#4#E.2.2.c.c.cbZbZanap#g#6bKaJb5.L.U.u.9a4.BaFb4a4.9bW.V#9#9.V.9#A#A.S.S#g#z........baa4a4",
"a4a4.f........#N.W.Z.Z.Z.c.c.c.c#FbZbl#ObiaTbxby.Jby#3ar#w#w.Tb1a4blbDaRa4#9#9aD.9.9#A.S.Sbf.........1#9a4a4",
"a4a4#A........bS.y#qbu.v.c.c.c.cbZ#xaPanbFaMbUby#g.J.l#3#wbTaJa4blbDbDbW#9#9.V.9.9#A#A.Sao#e........#va4a4a4",
"a4a4a4.f........#qb6b6bC.s.x.c#FbZ.3a4#oanbp#aa7aY##bPaYbcb0.6bT.l.UbDbW#9#9aD.9.9#A#A.Sao.........1aDa4a4a4",
"a4a4a4#A........#yb6b6#s.x.c#F#FbZ#x#na4.Vb4.YaO.L.mbUbU.m.L.l#T#h.UbDaR#9.V.V.9.9#A.S.SbE........aUa4a4a4a4",
"a4a4a4a4#v........b6a9#P.s.s#F#F#x#1#1.pau.t.Y.Y#d#H.b#H.b.b.J.J.J#T#MaR#9.9.9.9#A#A.Saob7.......d#9a4a4a4a4",
"a4a4a4a4a4#u......a.#t.3.s#F#x#x#1#P#P#t#t#X#z#d#d#d#d#H#d.b.b.b.J#T.UaR.V.9.9#A#A.S.S#v......#ubEa4a4a4a4a4",
"a4a4a4a4a4.S.........1.x.s#F#x#F#x#x#P#z#s#z#X#s.Y#d#H.b#d#H.b.b.b#T.UbD.9.9.9#A#A.SaU......#y.Pa4a4a4a4a4a4",
"a4a4a4a4a4a4aB.........1.c.x.3#F.3.8#P#z#s#s.t.Y#d#d.b#H#H.b.b#H.b.b#h#M.9#A#A.S.S#L........#va4a4a4a4a4a4a4",
"a4a4a4a4a4a4a4#v.........1.c#F.s#1.Ia8#s#z#s.0.Y#d#d#H.b#H#H.b.b.b.5#h#M#A#A.Sao#e........#e#9a4a4a4a4a4a4a4",
"a4a4a4a4a4a4a4a4a4............#X#ibO.I.A#s.Y.Y.Y.Y.bbHbO.5.b.b.b#g#T#TbCbE#e#y..........#ea4a4a4a4a4a4a4a4a4",
"a4a4a4a4a4a4a4a4a4.e............#yb7.G.d.A.Y.Y.Y.A.5bE.SbH#g.b.b.b.b.5#T#u..........#yaU#9a4a4a4a4a4a4a4a4a4",
"a4a4a4a4a4a4a4a4a4a4bE.1.............F#Y#P#z#s.Y.A.G#JbE.P.5#H#H#H.d.F............#u#ba4a4a4a4a4a4a4a4a4a4a4",
"a4a4a4a4a4a4a4a4a4a4a4#9.f................#y.1.F.dbCbObOaU.d.F#y................#e.9a4a4a4a4a4a4a4a4a4a4a4a4",
"a4a4a4a4a4a4a4a4a4a4a4a4a4bE.0..............................................bs#ba4a4a4a4a4a4a4a4a4a4a4a4a4a4",
"a4a4a4a4a4a4a4a4a4a4a4a4a4a4a4#Jbs.......................................o#b#9a4a4a4a4a4a4a4a4a4a4a4a4a4a4a4",
"a4a4a4a4a4a4a4a4a4a4a4a4a4a4a4a4a4.9.1..............................#y.0a4a4a4a4a4a4a4a4a4a4a4a4a4a4a4a4a4a4",
"a4a4a4a4a4a4a4a4a4a4a4a4a4a4a4a4a4a4a4.S#Zba.R..........#y#y#y#1az#baDa4a4a4a4a4a4a4a4a4a4a4a4a4a4a4a4a4a4a4",
"a4a4a4a4a4a4a4a4a4a4a4a4a4a4a4a4a4a4a4a4a4a4a4a4.9.V#9#9.VaDa4a4a4a4a4a4a4a4a4a4a4a4a4a4a4a4a4a4a4a4a4a4a4a4"
};
