/* XPM */
static char *xpm_digit_6[] = {
/* width height ncolors chars_per_pixel */
"10 15 6 1",
/* colors */
"  c #000000",
". c #800000",
"X c #400000",
"o c #FF0000",
"O c #C00000",
"+ c None",
/* pixels */
"          ",
" .ooooooX ",
" o.ooooX  ",
" oo       ",
" oo       ",
" oO       ",
" OOooooO  ",
" .oooooo. ",
" o......o ",
" oo    oo ",
" oo    oo ",
" oo    oo ",
" o.oooo.o ",
" .oooooo. ",
"          "
};
