/* XPM */
static char *xpm_digit_1[] = {
/* width height ncolors chars_per_pixel */
"10 15 5 1",
/* colors */
"  c #000000",
". c #400000",
"X c #FF0000",
"o c #C00000",
"O c None",
/* pixels */
"          ",
"        . ",
"       .X ",
"       XX ",
"       XX ",
"       oX ",
"        o ",
"        . ",
"       .X ",
"       XX ",
"       XX ",
"       XX ",
"       .X ",
"        . ",
"          "
};
