/* XPM */
static char *xpm_digit_8[] = {
/* width height ncolors chars_per_pixel */
"10 15 5 1",
/* colors */
"  c #000000",
". c #800000",
"X c #FF0000",
"o c #C00000",
"O c None",
/* pixels */
"          ",
" .XXXXXX. ",
" X.XXXX.X ",
" XX    XX ",
" XX    XX ",
" Xo    oX ",
" ooXXXXoo ",
" .XXXXXX. ",
" X......X ",
" XX    XX ",
" XX    XX ",
" XX    XX ",
" X.XXXX.X ",
" .XXXXXX. ",
"          "
};
