/* XPM */
static char *xpm_digit_2[] = {
/* width height ncolors chars_per_pixel */
"10 15 6 1",
/* colors */
"  c #000000",
". c #800000",
"X c #400000",
"o c #FF0000",
"O c #C00000",
"+ c None",
/* pixels */
"          ",
" Xoooooo. ",
"  Xoooo.o ",
"       oo ",
"       oo ",
"       Oo ",
"  OooooOO ",
" .ooooooX ",
" o.....X  ",
" oo       ",
" oo       ",
" oo       ",
" o.ooooX  ",
" .ooooooX ",
"          "
};
