/* XPM */
static char *xpm_face_click[] = {
/* width height ncolors chars_per_pixel */
"20 20 17 1",
/* colors */
"  c #000000",
". c #9F9F9F",
"X c #999999",
"o c #878787",
"O c #7F7F7F",
"+ c #ECECEC",
"@ c #C0C000",
"# c #ACACAC",
"$ c #8C8C8C",
"% c #5A5A5A",
"& c #FFFFFF",
"* c #FFFF00",
"= c #6D6D2D",
"- c #D9D9D9",
"; c #808000",
": c #B3B3B3",
"> c None",
/* pixels */
"OOOOOOOOOOOOOOOOOOO.",
"O$XXXXXXXXXXXXXXXX#&",
"OX::::::%%%%::::::-&",
"OX:::o=;****;=o:::-&",
"OX::o@********@o::-&",
"OX:o@**********@o:-&",
"OX:=***;****;***=:-&",
"OX:;**; ;**; ;**;:-&",
"OX%****;****;****%-&",
"OX%**************%-&",
"OX%**************%-&",
"OX%**************%-&",
"OX:;**@@****@@**;:-&",
"OX:=***@;;;;@***=:-&",
"OX:o@**********@o:-&",
"OX::o@********@o::-&",
"OX:::o=;****;=o:::-&",
"OX::::::%%%%::::::-&",
"O#----------------+&",
".&&&&&&&&&&&&&&&&&&&"
};
