/* XPM */
static char *xpm_question[] = {
/* width height ncolors chars_per_pixel */
"10 10 14 1",
/* colors */
"  c #000000",
". c #999999",
"X c #878787",
"o c #7F7F7F",
"O c #ECECEC",
"+ c #2D2D2D",
"@ c #CCCCCC",
"# c #8C8C8C",
"$ c #5A5A5A",
"% c #FFFFFF",
"& c #DFDFDF",
"* c #D9D9D9",
"= c #B3B3B3",
"- c None",
/* pixels */
"%%%%%%%%%&",
"%O******@o",
"%*=+  +=.o",
"%*$ == $.o",
"%*===++=.o",
"%*==X X=.o",
"%*==X$==.o",
"%*==$ ==.o",
"%@......#o",
"&ooooooooo"
};
