/* XPM */
static char *xpm_relief[] = {
/* width height ncolors chars_per_pixel */
"10 10 10 1",
/* colors */
"  c #999999",
". c #7F7F7F",
"X c #ECECEC",
"o c #CCCCCC",
"O c #8C8C8C",
"+ c #FFFFFF",
"@ c #DFDFDF",
"# c #D9D9D9",
"$ c #B3B3B3",
"% c None",
/* pixels */
"+++++++++@",
"+X######o.",
"+#$$$$$$ .",
"+#$$$$$$ .",
"+#$$$$$$ .",
"+#$$$$$$ .",
"+#$$$$$$ .",
"+#$$$$$$ .",
"+o      O.",
"@........."
};
