/* XPM */
static char * bt_logo_xpm[] = {
"28 36 81 1",
" 	c None",
".	c #B2B2B2",
"+	c #DEE7EF",
"@	c #A5BDDE",
"#	c #84A5CE",
"$	c #6B8CBD",
"%	c #6B94C6",
"&	c #6B8CC6",
"*	c #7B94C6",
"=	c #94B5D6",
"-	c #C6D6E7",
";	c #D6DEEF",
">	c #4273AD",
",	c #004294",
"'	c #00318C",
")	c #002984",
"!	c #002184",
"~	c #003184",
"{	c #003994",
"]	c #215AA5",
"^	c #7BA5CE",
"/	c #00298C",
"(	c #084294",
"_	c #104A9C",
":	c #18529C",
"<	c #2963A5",
"[	c #084A94",
"}	c #00398C",
"|	c #3163AD",
"1	c #00187B",
"2	c #295AA5",
"3	c #215A9C",
"4	c #CED6E7",
"5	c #3163A5",
"6	c #FFFFFF",
"7	c #A5BDD6",
"8	c #5A84BD",
"9	c #21529C",
"0	c #185A9C",
"a	c #2152A5",
"b	c #527BB5",
"c	c #9CB5D6",
"d	c #B5CEE7",
"e	c #5284B5",
"f	c #5A84B5",
"g	c #CEDEEF",
"h	c #B5C6DE",
"i	c #00107B",
"j	c #7B9CC6",
"k	c #1852A5",
"l	c #000073",
"m	c #5284BD",
"n	c #F7FFFF",
"o	c #00006B",
"p	c #7394C6",
"q	c #8CADCE",
"r	c #10529C",
"s	c #000873",
"t	c #396BAD",
"u	c #7394BD",
"v	c #BDCEE7",
"w	c #ADBDDE",
"x	c #EFEFF7",
"y	c #E7EFF7",
"z	c #185AA5",
"A	c #6384BD",
"B	c #638CBD",
"C	c #EFF7FF",
"D	c #DEE7F7",
"E	c #94ADD6",
"F	c #ADC6DE",
"G	c #EFF7F7",
"H	c #426BAD",
"I	c #001884",
"J	c #D6E7EF",
"K	c #08429C",
"L	c #084A9C",
"M	c #316BAD",
"N	c #F7F7FF",
"O	c #7B9CCE",
"P	c #B5C6E7",
"............................",
"............................",
".........+@#$%&*=-..........",
".......;>,'')!''~{]=........",
"......^)/(_:<,[]:[}!|.......",
".....*1,]23{#4'}5]]:1]......",
"....-1,53:]~$67!,23]]18.....",
"....<'<90a3}b66c!,<0][~4....",
"...d):3]]33'e6667!,23])e....",
"...f']]_,a]'f6666=!,<],(....",
"...:,<[(:,3'86-%667!}<_'d...",
"..g{_:{h6</'f6gif667,_3'j...",
"..7'0}k6660lm6n!o-66p'9{e...",
"..q':]}]666~r6;sm66@(_3{t...",
"..u{:23!]66;$6v$66w)}2]}]n..",
"..8']:]3!:66666667!{<03(_x..",
"..m}3]9]3!kn6666@)}<]9](ry..",
"..f'z90:]<1,n667s,<9:k3(:y..",
"..8}]9a9<[!A666;[/]]39],:y..",
"..e'3z32[!#6666663)]3k3(_y..",
"..B}a:2[!j66+6yC66:!03](:x..",
"..j':2[!j66%26v(D66:']3,<...",
"..E}0r(q66Fl56G1)C66>{]}H...",
"..h}:,:667)IB6x!iJ66m}9}B...",
"..y(K3{b7{,}86v}-665)]0'E...",
"...<}2:{'L2}e6+;66t1:2L}J...",
"...j/3]::]3'f6666|1z<3']....",
"...y{[29]93'm666t!023k)#....",
"....B!3]::]'e66M!:232'[N....",
".....()2<]3~O6H!:232,!F.....",
".....g'1[a][p%'3<]:}!j......",
"......yt)~}(})((}')(@.......",
"........Pf][},,,:>q.........",
"...........+gg4+C...........",
"............................",
"............................"};
