/* XPM */
static char * close_xpm[] = {
"16 16 5 1",
" 	c None",
".	c #C91E0C",
"+	c #FE5158",
"@	c #DE1E07",
"#	c #FE230E",
"                ",
"     ..      .  ",
"    .+@.    .#. ",
"    .##.   .+#. ",
"     .#@. .+#@. ",
"     .##..+#@.  ",
"      .####@.   ",
"      .####.    ",
"     .+###.     ",
"    .+####.     ",
"   .+#@..#@.    ",
"  .+#@. .@#.    ",
"  .#@.   .#@.   ",
"   ..    .@#.   ",
"          ..    ",
"                "};
