/* XPM */
static char * prefs_xpm[] = {
"16 16 8 1",
" 	c None",
".	c #000000",
"+	c #FFFFFF",
"@	c #EFEFEF",
"#	c #C3C3C3",
"$	c #1B1B1B",
"%	c #BEBEBE",
"&	c #DFDFDF",
"                ",
"     ..  ..     ",
"    .+.  .@.    ",
"    .+....@.    ",
"    .+@@@@#.    ",
"     .+@@#.     ",
"      .+#.      ",
"      .+@.      ",
"      .+#.      ",
"      $+@.      ",
"     .%@##.     ",
"    .&@@@@#.    ",
"    .+....@.    ",
"    .+.  .@.    ",
"     ..  ..     ",
"                "};
