/* XPM */
static char * dayview_xpm[] = {
"16 15 15 1",
" 	c None",
".	c #0064CD",
"+	c #CDFEFE",
"@	c #9ACDFE",
"#	c #63CEFE",
"$	c #30CEFE",
"%	c #3099FC",
"&	c #002F9B",
"*	c #595C59",
"=	c #FEFEFE",
"-	c #C4C2C4",
";	c #000000",
">	c #FECE9B",
",	c #CD2F00",
"'	c #FEFE9B",
"................",
".+@@@@###$%%%%%&",
".&&&&&&&&&&&&&&&",
"*==-==-==-==-==;",
"*==-==-==-==-==;",
"*-->-->--,,,,--;",
"*==-==-==,'',==;",
"*==-==-==,'',==;",
"*-->-->--,,,,--;",
"*==-==-==-==-==;",
"*==-==>==-==-==;",
"*-->-->-->--;;;;",
"*==-==-==-==;+@;",
"*==-==-==-==;@; ",
"*;;;;;;;;;;;;;  "};
