/* XPM */
static char * exit_xpm[] = {
"16 15 32 1",
" 	c None",
".	c #000000",
"+	c #B6B6B0",
"@	c #E4E4DC",
"#	c #392324",
"$	c #0E0808",
"%	c #251516",
"&	c #291718",
"*	c #2C1A1A",
"=	c #673F41",
"-	c #C37A7E",
";	c #513435",
">	c #969692",
",	c #141414",
"'	c #B9B9B2",
")	c #371F20",
"!	c #965356",
"~	c #A55D5E",
"{	c #B0676A",
"]	c #B97074",
"^	c #CC8487",
"/	c #2E2E2C",
"(	c #7F7F7B",
"_	c #D2D2CA",
":	c #261516",
"<	c #A0A09A",
"[	c #72726E",
"}	c #C2C2BB",
"|	c #393937",
"1	c #171716",
"2	c #020202",
"3	c #080808",
"                ",
"                ",
"       ......   ",
"      .+@@@@..  ",
"     ..+@@@@..  ",
"     ##+@@@@..  ",
" $%&*=-;+>,'..  ",
" )!~{]-^/+(_..  ",
" $:&*=-;+@@@..  ",
"     ##+@@@@..  ",
"     ..+@@<[..  ",
"      .+}|1...  ",
"       .23333   ",
"                ",
"                "};
