/* XPM */
static char * futureview_xpm[] = {
"16 15 12 1",
" 	c None",
".	c #0064CD",
"+	c #CDFEFE",
"@	c #9ACDFE",
"#	c #63CEFE",
"$	c #30CEFE",
"%	c #3099FC",
"&	c #002F9B",
"*	c #595C59",
"=	c #FEFEFE",
"-	c #000000",
";	c #D5D6D5",
"................",
".+@@@@###$%%%%%&",
".&&&&&&&&&&&&&&&",
"*==============-",
"*==============-",
"*;;*********;;;-",
"*==============-",
"*==============-",
"*;;******;;;;;;-",
"*==============-",
"*==============-",
"*;;*******;;----",
"*===========-+@-",
"*===========-@- ",
"*-------------  "};
