/* XPM */
static char * monthview_xpm[] = {
"16 15 14 1",
" 	c None",
".	c #0064CD",
"+	c #CDFEFE",
"@	c #9ACDFE",
"#	c #63CEFE",
"$	c #30CEFE",
"%	c #3099FC",
"&	c #002F9B",
"*	c #595C59",
"=	c #FEFEFE",
"-	c #C4C2C4",
";	c #CD2F00",
">	c #FEFE9B",
",	c #000000",
"................",
".+@@@@###$%%%%%&",
".&&&&&&&&&&&&&&&",
"*==-==;>>;>>;>>;",
"*==-==;>>;>>;>>;",
";;;;;;;;;;;;;;;;",
";>>;>>;>>;>>;>>;",
";>>;>>;>>;>>;>>;",
";;;;;;;;;;;;;;;;",
";>>;>>;>>;>>;>>;",
";>>;>>;>>;>>;>>;",
";;;;;;;;;;;;,,,,",
";>>;==-==-==,+@,",
";>>;==-==-==,@, ",
";;;;,,,,,,,,,,  "};
