/* XPM */
static char * new_xpm[] = {
"12 15 37 1",
" 	c None",
".	c #69AEF8",
"+	c #6F94D1",
"@	c #5B6698",
"#	c #FFFFFF",
"$	c #FAFAFA",
"%	c #F7F7F8",
"&	c #F4F4F6",
"*	c #F0F0F0",
"=	c #E9EDF3",
"-	c #E4E5E5",
";	c #C2CFE2",
">	c #9295D6",
",	c #FEFFFF",
"'	c #F1F8FF",
")	c #CAD3F4",
"!	c #3099FC",
"~	c #7A98AF",
"{	c #FCFCFC",
"]	c #E1F1FF",
"^	c #B5D6EE",
"/	c #D3E8FF",
"(	c #C0C3F6",
"_	c #9096FF",
":	c #C3E0FF",
"<	c #B4D9FE",
"[	c #535A8F",
"}	c #6680BB",
"|	c #EFF3F6",
"1	c #A9D3FF",
"2	c #676DB6",
"3	c #DAE8F1",
"4	c #9ECEFF",
"5	c #9ACDFE",
"6	c #D2DEEA",
"7	c #404B75",
"8	c #B2BFFE",
".++++++++@  ",
".#$%&*=-;@> ",
"+####,'')@!~",
"+{##,'']^@@@",
"+,#,'']]/(_@",
"+$,'']]//::@",
"+&'']]//::<[",
"}|']]//::<<[",
"}=]]//::<<1[",
"23]//::<<14[",
"@3//::<<145[",
"@6/::<<14557",
"@6::<<145557",
"[88888888887",
"[[[[[[[[[[[7"};
