/* XPM */
static char * save_xpm[] = {
"16 16 55 1",
" 	c None",
".	c #000000",
"+	c #74BAF7",
"@	c #3099FC",
"#	c #C7C7C7",
"$	c #E9E9E9",
"%	c #EAEAEA",
"&	c #F2F2F2",
"*	c #0064CD",
"=	c #A3A3A3",
"-	c #BABABA",
";	c #C0C0C0",
">	c #E0E0E0",
",	c #D7D7D7",
"'	c #FFFFFF",
")	c #FAFAFA",
"!	c #D6D6D6",
"~	c #FDFDFD",
"{	c #F5F5F5",
"]	c #ECECEC",
"^	c #D4D4D4",
"/	c #C5C5C5",
"(	c #EFEFEF",
"_	c #F3F3F3",
":	c #63CEFE",
"<	c #9ACDFE",
"[	c #5B8DBA",
"}	c #CECECE",
"|	c #9C9E9F",
"1	c #1C4B6F",
"2	c #2277C1",
"3	c #06375D",
"4	c #214D72",
"5	c #B9B9B9",
"6	c #043455",
"7	c #CDCDCD",
"8	c #1D476A",
"9	c #BFBFBF",
"0	c #03314E",
"a	c #5E7A91",
"b	c #E6E6E6",
"c	c #103A61",
"d	c #0B6FBC",
"e	c #C2C2C2",
"f	c #B2B2B2",
"g	c #013454",
"h	c #4F657A",
"i	c #3A678D",
"j	c #A1A1A1",
"k	c #909090",
"l	c #868686",
"m	c #6E6E6E",
"n	c #7A7A7A",
"o	c #21395B",
"p	c #2F5370",
" .............. ",
".+@#$$$$$$%$&@*.",
".@*=-------;>**.",
".@*,'''''''')**.",
".@*,,,,,,,,!&**.",
".@*,''''~{]]&**.",
".@*,,,,^////&**.",
".@*(''_]]]]](**.",
".@*:<<<<<<<<:**.",
".@*************.",
".@**[//}],|12**.",
".@**//34!/5622*.",
".@**/782//9022*.",
".a**7bcd/efg22*.",
" .hij;kklmnop2*.",
"  ............. "};
