/* XPM */
static char * today_xpm[] = {
"16 16 171 2",
"  	c None",
". 	c #B9422F",
"+ 	c #FDD7AA",
"@ 	c #FCB359",
"# 	c #FDCC86",
"$ 	c #FDDEA1",
"% 	c #FBE1B4",
"& 	c #DC9B89",
"* 	c #D53D1F",
"= 	c #9D8078",
"- 	c #FDD5A5",
"; 	c #FCB04D",
"> 	c #FCBC56",
", 	c #FCC25C",
"' 	c #FCC45F",
") 	c #FCB552",
"! 	c #F8A343",
"~ 	c #F18734",
"{ 	c #A7765E",
"] 	c #FCB252",
"^ 	c #FCBB56",
"/ 	c #FCC762",
"( 	c #FCB750",
"_ 	c #FCA63F",
": 	c #FAAD60",
"< 	c #F1C79E",
"[ 	c #B88A66",
"} 	c #FDD69E",
"| 	c #FCB352",
"1 	c #FCC661",
"2 	c #FCC05C",
"3 	c #FCB44F",
"4 	c #FBA33B",
"5 	c #F6A14B",
"6 	c #F5E6D0",
"7 	c #F4F8F7",
"8 	c #D6C3BB",
"9 	c #B59087",
"0 	c #FDD3A2",
"a 	c #FCB34C",
"b 	c #FCBC57",
"c 	c #FCC05B",
"d 	c #FCAD4C",
"e 	c #FCA23C",
"f 	c #F6A34D",
"g 	c #EEDBC3",
"h 	c #F2F7FA",
"i 	c #E8F1FA",
"j 	c #E3ECF6",
"k 	c #C8B7BB",
"l 	c #A4959E",
"m 	c #FCDEB6",
"n 	c #FABE5B",
"o 	c #FCC560",
"p 	c #FCBE59",
"q 	c #FCB049",
"r 	c #FBA239",
"s 	c #EF953E",
"t 	c #F1DBB4",
"u 	c #F1F5F6",
"v 	c #E2EFFB",
"w 	c #E0EEFB",
"x 	c #D5E7FA",
"y 	c #CDDFF4",
"z 	c #B3B5CB",
"A 	c #AAA5B2",
"B 	c #C6C1BC",
"C 	c #EEBC6B",
"D 	c #FCAD46",
"E 	c #FA9B34",
"F 	c #F09944",
"G 	c #EACFAD",
"H 	c #F2F8FA",
"I 	c #E9F2FA",
"J 	c #E4F0FB",
"K 	c #D7E8FA",
"L 	c #CCE2FA",
"M 	c #C0DBF8",
"N 	c #BDD4F3",
"O 	c #8E90AF",
"P 	c #ADD4ED",
"Q 	c #BCCAC7",
"R 	c #DFA663",
"S 	c #EB9240",
"T 	c #E3C09E",
"U 	c #F8F8F2",
"V 	c #E5F0FA",
"W 	c #D4E7FA",
"X 	c #C8E0F9",
"Y 	c #C3D7F0",
"Z 	c #C2D6F8",
"` 	c #B2D0F5",
" .	c #707D98",
"..	c #B9D9EE",
"+.	c #B0DCF7",
"@.	c #A7CDE9",
"#.	c #99BADA",
"$.	c #CCE5F8",
"%.	c #EFF6FA",
"&.	c #DCECFB",
"*.	c #D4E6FA",
"=.	c #8F93BC",
"-.	c #6D6FA0",
";.	c #8E9EC9",
">.	c #B4D6F8",
",.	c #A8CDF4",
"'.	c #6F7A97",
").	c #B4D3EE",
"!.	c #AFDBF6",
"~.	c #AFDAF6",
"{.	c #A0D0F2",
"].	c #CAE5F5",
"^.	c #CADBF2",
"/.	c #7073A0",
"(.	c #646294",
"_.	c #8C99C2",
":.	c #AECEF7",
"<.	c #9FC6EF",
"[.	c #6F7B97",
"}.	c #ABC7E8",
"|.	c #AAD5F0",
"1.	c #A3D1F6",
"2.	c #9CCDF3",
"3.	c #C7E2F7",
"4.	c #DAE9FA",
"5.	c #D4E4F9",
"6.	c #CAD7F7",
"7.	c #7376A3",
"8.	c #8998C2",
"9.	c #A3C8F4",
"0.	c #95C1F0",
"a.	c #6E7996",
"b.	c #A0BADC",
"c.	c #9DCAEF",
"d.	c #9AC7F3",
"e.	c #C0DCF3",
"f.	c #D5E6FA",
"g.	c #CBDEF5",
"h.	c #BED5F2",
"i.	c #7479A7",
"j.	c #6A6A99",
"k.	c #889BCA",
"l.	c #99C0EE",
"m.	c #8EAEDE",
"n.	c #6C7491",
"o.	c #97ADC8",
"p.	c #95BFED",
"q.	c #B4D4F6",
"r.	c #C7DEF7",
"s.	c #BAD9F4",
"t.	c #B9CFF3",
"u.	c #7A7FB0",
"v.	c #757AA9",
"w.	c #818FBB",
"x.	c #8A8AAD",
"y.	c #6F7083",
"z.	c #686B71",
"A.	c #97A5C4",
"B.	c #A9C4E5",
"C.	c #A6BED9",
"D.	c #A2A7CA",
"E.	c #9098B4",
"F.	c #71758E",
"G.	c #70717D",
"H.	c #73726E",
"I.	c #939594",
"J.	c #8A8398",
"K.	c #626475",
"L.	c #676369",
"M.	c #6D6B6B",
"N.	c #8F8F8E",
"                    .           ",
"        + @ # $ % & * =         ",
"      - ; > , ' ) ! ~ {         ",
"    - ] ^ / , ( _ : < [         ",
"  } | ^ 1 2 3 4 5 6 7 8 9       ",
"0 a b / c d e f g h i j k l     ",
"m n o p q r s t u v w x y z A   ",
"  B C D E F G H I J K L M N O   ",
"  P Q R S T U I V W X Y Z `  .  ",
"  ..+.@.#.$.%.&.*.=.-.;.>.,.'.  ",
"  ).!.~.{.].V K ^./.(._.:.<.[.  ",
"  }.|.1.2.3.4.5.6.7.(.8.9.0.a.  ",
"    b.c.d.e.f.g.h.i.j.k.l.m.n.  ",
"      o.p.q.r.s.t.u.v.w.x.y.z.  ",
"        A.B.C.D.E.F.G.H.I.      ",
"          J.K.L.M.N.            "};
