/* XPM */
static char * yearview_xpm[] = {
"16 15 13 1",
" 	c None",
".	c #0064CD",
"+	c #CDFEFE",
"@	c #9ACDFE",
"#	c #63CEFE",
"$	c #30CEFE",
"%	c #3099FC",
"&	c #002F9B",
"*	c #CD2F00",
"=	c #FEFEFE",
"-	c #000000",
";	c #FEFE9B",
">	c #595C59",
"................",
".+@@@@###$%%%%%&",
".&&&&&&&&&&&&&&&",
"*****=*****=***-",
"*;;;*=*;;;*=*;;-",
"*;;;*=*;;;*=*;;-",
"*;==*=*;==*=*;=-",
"*****=*****=***-",
">==============-",
"*****=*****=***-",
"*;;;*=*;;;*=*;;-",
"*;;;*=*;;;*=----",
"*;==*=*;==*=-+@-",
"*****=*****=-@- ",
">-------------  "};
