/* XPM */
static char *forward[]={
"16 16 50 1",
". c None",
"# c #010101",
"U c #08111a",
"R c #0b141d",
"S c #0d1a27",
"J c #1d3347",
"V c #2b2b2b",
"Q c #2e5172",
"a c #2f2f2f",
"L c #333c45",
"T c #335a7f",
"N c #355c81",
"O c #386084",
"P c #3b6386",
"M c #416a8c",
"I c #58a8ff",
"e c #64625f",
"K c #6990b2",
"k c #7d7b78",
"o c #81807c",
"F c #83817e",
"q c #928f8b",
"A c #92908b",
"f c #95938e",
"b c #959595",
"m c #969491",
"w c #a09c97",
"c c #a7a4a0",
"z c #aeaba6",
"C c #b0ada7",
"v c #b5b2ac",
"G c #e1dfda",
"H c #e2dfd9",
"y c #e4e2dd",
"p c #e5e3de",
"B c #e8e6e1",
"l c #eae8e3",
"x c #f0efeb",
"t c #f5f3f0",
"E c #f5f4f0",
"n c #f6f4f1",
"j c #f6f5f1",
"s c #f7f5f2",
"D c #f7f6f2",
"u c #f7f6f4",
"h c #f9f8f6",
"i c #fbfafa",
"r c #fbfbfa",
"g c #fbfbfb",
"d c #fcfcfc",
".#a#########b...",
"#cddddddddde#...",
"#dfghdhihjkl#...",
"#dhmihihnonp#...",
"#dhhqrhsohtp#...",
"#dhuvodowjxy#...",
"#duzhhossABy#...",
"#dChtDEstl###...",
"#FGHHH#####I#...",
".######IIIIII#..",
"......JIIIIIIKL.",
"......JMMMMMMNL.",
"......JMOOPMQL..",
"......JRSSJTL...",
"..........UL....",
"..........V....."};
