/* XPM */
static char *reply[]={
"16 16 51 1",
". c None",
"# c #010101",
"U c #150b05",
"V c #180b01",
"y c #291408",
"W c #2b2b2b",
"a c #2f2f2f",
"T c #4a240d",
"d c #64625f",
"E c #6b6a68",
"j c #7d7b78",
"n c #81807c",
"S c #843e11",
"P c #843f12",
"p c #928f8b",
"A c #92908b",
"e c #95938e",
"l c #969491",
"M c #974816",
"O c #984b20",
"R c #9b4c21",
"v c #a09c97",
"Q c #a55123",
"N c #a75223",
"b c #a7a4a0",
"J c #aaaaaa",
"z c #aeaba6",
"u c #b5b2ac",
"L c #da8a5b",
"F c #daa584",
"K c #db966f",
"G c #e2e0db",
"H c #e3e1dc",
"x c #e4e2dd",
"o c #e5e3de",
"I c #e6e4df",
"B c #e8e6e1",
"k c #eae8e3",
"w c #f0efeb",
"s c #f5f3f0",
"D c #f5f4f0",
"m c #f6f4f1",
"i c #f6f5f1",
"r c #f7f5f2",
"C c #f7f6f2",
"t c #f7f6f4",
"g c #f9f8f6",
"h c #fbfafa",
"q c #fbfbfa",
"f c #fbfbfb",
"c c #fcfcfc",
"....#a#########.",
"...#bcccccccccd#",
"...#cefgcghgijk#",
"...#cglhghgmnmo#",
"...#cggpqgrngso#",
"...#cgtuncnviwx#",
"...#cyzggnrrABx#",
"...#yygsCDrskEB#",
"...yFy####GGHId#",
"..yFFFFFF######J",
".yKLLLLLL#......",
".yMNNNNNO#......",
"..yPQROOO#......",
"...ySTyyU#......",
"....yV..........",
".....W.........."};
