/* XPM */
static char *send[]={
"16 16 69 2",
"Qt c None",
".# c #000000",
".E c #010101",
".m c #557c3b",
".H c #58833c",
".L c #5e8a41",
"#c c #64625f",
".B c #65894c",
".D c #668154",
".G c #669447",
".7 c #6b6a68",
".g c #6f9059",
".C c #748c64",
".S c #81807c",
".8 c #83817e",
".r c #916608",
".Q c #928f8b",
".1 c #92908b",
".W c #a09c97",
".n c #a59458",
".A c #a9c79c",
".u c #ae7b0a",
".0 c #aeaba6",
".l c #aecca1",
".q c #b07c08",
".3 c #b0ada7",
".V c #b5b2ac",
".j c #b98208",
".y c #b9c3b5",
".f c #b9c9b1",
".z c #bdceb6",
".d c #c38909",
".I c #c6b26a",
".v c #d0e1c9",
".i c #d1940c",
".o c #d1bc70",
".s c #d3e3cb",
".k c #d7e5d0",
".e c #d8e6d2",
".x c #dbe7d6",
".N c #e0eadb",
".9 c #e1dfda",
".K c #e1ebdc",
"#. c #e2dfd9",
"## c #e2e0db",
"#a c #e3e1dc",
".Z c #e4e2dd",
".O c #e5e3de",
"#b c #e6e4df",
".2 c #e8e6e1",
".p c #e9d17b",
".6 c #eae8e3",
".c c #eed680",
".Y c #f0efeb",
".t c #f3e3a8",
".w c #f4e4ad",
".F c #f5e9bc",
".T c #f5f3f0",
".5 c #f5f4f0",
".h c #f6ecc9",
".X c #f6f5f1",
".a c #f7efd0",
".b c #f7efd1",
".J c #f7f5f2",
".4 c #f7f6f2",
".U c #f7f6f4",
".M c #f9f8f6",
".R c #fbfbfa",
".P c #fcfcfc",
"QtQtQtQt.#QtQtQtQtQtQtQtQtQtQtQt",
"QtQtQt.#.a.#QtQt.#.#.#.#.#QtQtQt",
"QtQt.#.b.c.d.#Qt.#.e.f.g.#QtQtQt",
"Qt.#.h.c.c.i.j.#.#.k.l.m.#QtQtQt",
".#.h.n.o.p.q.r.r.#.s.l.m.#QtQtQt",
".#.#.#.t.c.u.#.#.#.v.l.m.#.#.#Qt",
"QtQt.#.w.c.u.#.x.y.z.A.B.C.D.#Qt",
"Qt.E.#.F.c.u.#.#.x.l.l.G.H.#QtQt",
"Qt.E.#.c.I.u.#.J.#.K.l.L.#.EQtQt",
"Qt.E.J.J.#.#.J.J.M.#.N.#.O.EQtQt",
"Qt.E.P.M.M.Q.R.M.J.S.#.T.O.EQtQt",
"Qt.E.P.M.U.V.S.P.S.W.X.Y.Z.EQtQt",
"Qt.E.P.U.0.M.M.S.J.J.1.2.Z.EQtQt",
"Qt.E.P.3.M.T.4.5.J.T.6.7.2.EQtQt",
"Qt.E.8.9#.#.#..9#####a#b#c.EQtQt",
"QtQt.E.E.E.E.E.E.E.E.E.E.EQtQtQt"};
