/* XPM */
static char * barrow_xpm[] = {
"8 32 19 1",
" 	c None",
".	c #753D38",
"+	c #733C37",
"@	c #7C403B",
"#	c #462421",
"$	c #62322E",
"%	c #793F39",
"&	c #2C1615",
"*	c #663531",
"=	c #6B3733",
"-	c #BFBDBD",
";	c #FFFFFF",
">	c #6D3834",
",	c #261311",
"'	c #492623",
")	c #361B1A",
"!	c #391D1B",
"~	c #42221F",
"{	c #311917",
"...+++..",
".++....+",
"++.++.+.",
"..+@#$%+",
"+.++&*%+",
"...=-=.+",
".+@#;>%+",
"++.,;>.+",
"+.>;;=.+",
"+%';;+%+",
"+.&;;>%+",
".>;;;=%.",
"@#;;;>>'",
"%&;;;%')",
">;;;;);!",
"#;;;;;;!",
"~;;;;;;!",
"+-;;;{;!",
"%&;;;%'!",
"@#;;;+>#",
".+;;;++.",
".%&;;>%+",
"+%';;>.+",
"+.=;;>.+",
".+%,;>.+",
"++@~;=.+",
"++.>-=%+",
"+..+&*%+",
"+.+%#$%+",
"+...+.+.",
"...+.+++",
".+++...."};
