/* XPM */
static char * bblack_xpm[] = {
"32 32 45 1",
" 	c None",
".	c #733C37",
"+	c #6D3A34",
"@	c #503024",
"#	c #383635",
"$	c #46352D",
"%	c #4C382F",
"&	c #5D382E",
"*	c #3F2C23",
"=	c #333333",
"-	c #3C3F41",
";	c #444748",
">	c #434343",
",	c #533E34",
"'	c #452C20",
")	c #2B2B2B",
"!	c #2D3031",
"~	c #3B3B3B",
"{	c #4C3B32",
"]	c #484747",
"^	c #4B4B4B",
"/	c #3E281E",
"(	c #27292B",
"_	c #373B3D",
":	c #535353",
"<	c #44291C",
"[	c #553A2D",
"}	c #242323",
"|	c #595959",
"1	c #32211A",
"2	c #4D4F50",
"3	c #514037",
"4	c #1C1B1B",
"5	c #432619",
"6	c #504F4F",
"7	c #17191A",
"8	c #321F15",
"9	c #211E1E",
"0	c #412415",
"a	c #191715",
"b	c #2D1D15",
"c	c #131415",
"d	c #5D3025",
"e	c #3D2215",
"f	c #22201F",
"................................",
"................................",
"................................",
"................................",
"................................",
".............+@#$%&.............",
"...........*==---;>>,...........",
".........')!=~{~>]]]^^&.........",
"......../()=__~>;]]:^:^,........",
".......<()!=_{->]^::::::[.......",
".......}})!=#~>>]:::||::^.......",
"......1}))=#~~>;]::||||:23......",
"......4}}))##~>;]::|||::^]......",
".....54}})==_{-;^^::|:::6]......",
".....14}})!=__{>]^^:6::^]]{.....",
".....17}}))==_--]^]^:^^^];{.....",
".....879}})===_{>>]]]]];>>$.....",
".....874}}))==_~~;>>>;>>>~$.....",
".....0794}()!==#~~{->>{~~_......",
"......a74}}))====__-___~##......",
"......bc44}()))====~#=~==$......",
"......dc444}}())=)=======.......",
".......ec44}}}())))!))=(<.......",
"........8ca94}f}})))))(*........",
".........ea774}f}}(}}}'.........",
"...........ba7774}f91...........",
".............081115.............",
"................................",
"................................",
"................................",
"................................",
"................................"};
