/* XPM */
static char * bblue_xpm[] = {
"32 32 82 1",
" 	c None",
".	c #733C37",
"+	c #3B1F3B",
"@	c #2C1856",
"#	c #23146B",
"$	c #2B1765",
"%	c #3C1E53",
"&	c #6D3934",
"*	c #26164E",
"=	c #0A0A7B",
"-	c #090983",
";	c #060793",
">	c #0606A3",
",	c #0505AC",
"'	c #0505B4",
")	c #241384",
"!	c #4A2538",
"~	c #3B2031",
"{	c #0C0C62",
"]	c #060976",
"^	c #09088B",
"/	c #080893",
"(	c #08089E",
"_	c #0404BC",
":	c #0504C2",
"<	c #0303CC",
"[	c #361C62",
"}	c #2D1A35",
"|	c #0C0C5D",
"1	c #0B0B6C",
"2	c #0B0A75",
"3	c #08079A",
"4	c #0805C0",
"5	c #0202D4",
"6	c #0101DB",
"7	c #2C1678",
"8	c #3B202B",
"9	c #0D0D54",
"0	c #0807A1",
"a	c #0101E3",
"b	c #6D3933",
"c	c #111042",
"d	c #0000EB",
"e	c #2A1A2D",
"f	c #0E0E4C",
"g	c #0000F5",
"h	c #0000F9",
"i	c #111033",
"j	c #12104A",
"k	c #0806BB",
"l	c #562B2D",
"m	c #3F2319",
"n	c #0C0E34",
"o	c #0F0F43",
"p	c #311D25",
"q	c #07079E",
"r	c #29166C",
"s	c #291A24",
"t	c #100F4D",
"u	c #0907B0",
"v	c #221376",
"w	c #2C1B1D",
"x	c #0C0F2C",
"y	c #10103B",
"z	c #2C1C17",
"A	c #2A185D",
"B	c #121125",
"C	c #11102D",
"D	c #0E0F3C",
"E	c #3F2045",
"F	c #15131C",
"G	c #0E111B",
"H	c #100F44",
"I	c #040784",
"J	c #271655",
"K	c #68362E",
"L	c #3D2216",
"M	c #0D1022",
"N	c #100F39",
"O	c #070A6D",
"P	c #331E16",
"Q	c #2F1A3D",
"................................",
"................................",
"................................",
"................................",
"................................",
".............+@##$%&............",
"..........&*=-;>,'',)!..........",
".........~{]=^/(,,_:<_[.........",
"........}|12-/3,'4<<5657........",
".......89{1]^/0,_:5a6666[.......",
"......bc9{2=^3,':<6adda6:!......",
"......ef9{1=^/,'<5aghhd66)......",
"......ij9{1-^3,'_56dgga6<kl.....",
".....mno9{1=^3>'_55adda5<_%.....",
".....pno9{1=-/q,'<56666<__r.....",
".....snot9{=-/3>u'4<<<<:'_v.....",
".....wxyf9{1=^/0,,'_::_','#.....",
".....zxycf{12=^;(>,,,,,,0>A.....",
".....mBCDj9|12=^/300>>00;/E.....",
"......Fxncf9{2==-^/3///^^-......",
"......wGCyHf|{12==--^---IJ......",
"......KFBiDcf||{122====21&......",
".......LFMiNcf9|{{1111{O~.......",
"........PMBCNcHf99|||{{Q........",
".........LFMxiyyHjf99t~.........",
"..........KwBMxnDDDD}&..........",
".............mpsssm.............",
"................................",
"................................",
"................................",
"................................",
"................................"};
