/* XPM */
static char * bbrown_xpm[] = {
"32 32 46 1",
" 	c None",
".	c #733C37",
"+	c #723D0D",
"@	c #7B420A",
"#	c #8A450D",
"$	c #7A3D10",
"%	c #77400A",
"&	c #84450A",
"*	c #934D08",
"=	c #9A5108",
"-	c #A25407",
";	c #AC5906",
">	c #B35C05",
",	c #984E0A",
"'	c #9C5207",
")	c #A85706",
"!	c #BB5F04",
"~	c #C46304",
"{	c #CB6603",
"]	c #723B31",
"^	c #D36A02",
"/	c #8B4909",
"(	c #DA6E02",
"_	c #E37101",
":	c #44290F",
"<	c #BD6004",
"[	c #CE6803",
"}	c #EC7600",
"|	c #F57A00",
"1	c #713819",
"2	c #492913",
"3	c #FA7C00",
"4	c #A0510A",
"5	c #3B250F",
"6	c #6D3932",
"7	c #3B2311",
"8	c #311F12",
"9	c #2C1E11",
"0	c #6D3A31",
"a	c #241A11",
"b	c #332111",
"c	c #7B3F0E",
"d	c #432612",
"e	c #1F1812",
"f	c #1C1713",
"g	c #40270F",
"................................",
"................................",
"................................",
"................................",
"................................",
"..............+@##$.............",
"............%&*=-;>>,...........",
"...........%@&=')>!~{~#.........",
"..........]%&*=;>!{^^^^,........",
"..........]%/*';!{^((_((#.......",
".......:..%@/=)<~[(}}|_^{1......",
"......2:..%@/=);{[_}3|}(^4......",
"......5:..%@/=)<~[(|||}([!......",
".....652..]@/=-;<{^_}}(^{!$.....",
".....78:..%%/*';!{[(((^[~!#.....",
".....79:0..%@*');!~{[{{~>>#.....",
".....8950..]%/*')>><~<<>;)#.....",
".....7ab:0.]%@/*,))>>;;)-'c.....",
".....de850..]%&&*=44--'==*].....",
"......e9b:0..]@@&/**=***/&......",
"......8e95:0..]+@&&&/&/&@1......",
"......6fab5:0..]]++@@%%%+.......",
".......7fab5:0....]]]]].........",
"........8fab5d0.................",
".........7ea987g:0..0...........",
"...........8aa98b55g0...........",
".............d777d6.............",
"................................",
"................................",
"................................",
"................................",
"................................"};
