/* XPM */
static char * bcyan_xpm[] = {
"32 32 90 1",
" 	c None",
".	c #733C37",
"+	c #3D4C3E",
"@	c #2C5F56",
"#	c #236F68",
"$	c #23746C",
"%	c #2A6E65",
"&	c #3B5C4E",
"*	c #663C31",
"=	c #6D3B34",
"-	c #28554D",
";	c #0B7473",
">	c #098383",
",	c #059192",
"'	c #08A0A0",
")	c #05ABAC",
"!	c #05B4B4",
"~	c #25877E",
"{	c #4B4937",
"]	c #3B4032",
"^	c #0C6262",
"/	c #067576",
"(	c #0A7C7C",
"_	c #098B8B",
":	c #089494",
"<	c #079D9D",
"[	c #06A3A3",
"}	c #04BDBD",
"|	c #04C2C2",
"1	c #03CCCC",
"2	c #366F62",
"3	c #304137",
"4	c #0C5B5B",
"5	c #076C6D",
"6	c #06C8C7",
"7	c #02D3D3",
"8	c #00D6D8",
"9	c #2C8379",
"0	c #3B382B",
"a	c #0D5354",
"b	c #08AFAE",
"c	c #01E2E2",
"d	c #01DBDB",
"e	c #6D3A33",
"f	c #104443",
"g	c #00EBEB",
"h	c #4B4B39",
"i	c #2A352D",
"j	c #0A4748",
"k	c #089B9B",
"l	c #00F5F5",
"m	c #00F9F9",
"n	c #238E86",
"o	c #113D3D",
"p	c #0F4444",
"q	c #683B32",
"r	c #3F2C1E",
"s	c #0B6C6C",
"t	c #3C5F51",
"u	c #312D24",
"v	c #0B3335",
"w	c #00B7B9",
"x	c #2D786D",
"y	c #2B2720",
"z	c #114C4B",
"A	c #267F76",
"B	c #2B231B",
"C	c #0D2E2F",
"D	c #32251B",
"E	c #0E2425",
"F	c #113433",
"G	c #2B675D",
"H	c #112525",
"I	c #3C5244",
"J	c #151D1C",
"K	c #048283",
"L	c #261D17",
"M	c #0E3B3B",
"N	c #0E4E4E",
"O	c #275E56",
"P	c #6D3932",
"Q	c #3C2215",
"R	c #0E1A1C",
"S	c #112B2B",
"T	c #3A4538",
"U	c #332016",
"V	c #2F463C",
"W	c #0B2E30",
"X	c #2A3C34",
"Y	c #292B24",
"................................",
"................................",
"................................",
"................................",
"................................",
".............+@#$%&*............",
"..........=-;>,')!!)~{..........",
".........]^/(_:<[!}|1}2.........",
"........345;>,<)!}677889........",
".......0a45(_:'b}67cdddd2.......",
"......efa^;(_:)!|1dcggcd|h......",
"......ija4;>_k)!|dclmmgd8n......",
"......opa^;(_k[!|7cgllcd7!q.....",
".....rofa^s(_k[!|1dcggc71}t.....",
".....uvfa4s(>:<b!|77ddd1|wx.....",
".....yvoz4^;>_<[!}|1116|!wA.....",
".....BCoza^s(>:<)b!}|}}!b)$.....",
".....DEFfa4s;(_:<[b!!b)b'[G.....",
".....rHFofa^s((_:k<''''<:,I.....",
"......JHFfj4^s((>_,,k::__Ke.....",
"......LEFMpN44s;((>>_>>>KO......",
"......PJHFopN4^^s;;((((;sq......",
".......QRHSofNa4^^sssss5T.......",
"........URHFFfjNaa44444V........",
".........QJESFoofNNaaz0.........",
"..........PBHEWvMMMMX=..........",
".............PyYYYee............",
"................................",
"................................",
"................................",
"................................",
"................................"};
