/* XPM */
static char * bgreen_xpm[] = {
"32 32 83 1",
" 	c None",
".	c #733C37",
"+	c #6D3A32",
"@	c #394D11",
"#	c #2A660E",
"$	c #236F0D",
"%	c #23740C",
"&	c #2A6F0D",
"*	c #3B5D10",
"=	c #6D3B32",
"-	c #28570F",
";	c #0A750A",
">	c #098409",
",	c #069108",
"'	c #079E07",
")	c #05AB06",
"!	c #05B305",
"~	c #2A860C",
"{	c #4A4B13",
"]	c #3A3B13",
"^	c #0C630C",
"/	c #06740A",
"(	c #089908",
"_	c #089A07",
":	c #04BC04",
"<	c #03CD03",
"[	c #366D0E",
"}	c #304112",
"|	c #0C5C0C",
"1	c #076B0B",
"2	c #098B08",
"3	c #06A307",
"4	c #04C304",
"5	c #02D502",
"6	c #0D540D",
"7	c #0B6C0B",
"8	c #0A7C0A",
"9	c #089408",
"0	c #08AF06",
"a	c #01DC01",
"b	c #68362D",
"c	c #104B0F",
"d	c #00EC00",
"e	c #00F500",
"f	c #01E201",
"g	c #2B3512",
"h	c #0E440F",
"i	c #00FA00",
"j	c #258B0B",
"k	c #113410",
"l	c #09BA05",
"m	c #3F2D14",
"n	c #312D13",
"o	c #0B3010",
"p	c #10430F",
"q	c #2A760D",
"r	c #2B2A13",
"s	c #227E0C",
"t	c #0C2E10",
"u	c #103C0F",
"v	c #08A107",
"w	c #322414",
"x	c #0D2311",
"y	c #10370F",
"z	c #402615",
"A	c #112411",
"B	c #112C10",
"C	c #3F5311",
"D	c #141D12",
"E	c #0E4E0E",
"F	c #261D14",
"G	c #0E1A12",
"H	c #068209",
"I	c #275E0F",
"J	c #0E3B0F",
"K	c #3D2315",
"L	c #3A4212",
"M	c #113E10",
"N	c #2F4711",
"O	c #114110",
"P	c #2B2313",
"Q	c #2A3D12",
"R	c #413214",
"................................",
"................................",
"................................",
"................................",
"................................",
"............+@#$%&*.............",
"..........=-;>,')!!!~{..........",
".........]^/>>(_)!::<:[.........",
"........}|1;>23)!4<5555~........",
".......]6|782930:45aaaaa[.......",
"......bc6^;82(3!4<addefa4{......",
"......gh6^782(0!4<adieda5j......",
"......kc6^;82()!45adiefa<l......",
".....mkc6^782(3!4<afdff5<:*.....",
".....nop6|78>('0:<<5aa5<4:q.....",
".....ropc6^;>2(30l4<<<<4!!s.....",
".....rtuh6^;829v3!::4::!0)%.....",
".....wxyc6|^;822'3)!!!0)3'#.....",
".....zABuh6^7;822(_3333',,C.....",
"......DByhE6^788>22((9222>......",
"......FGBuhE6^7;8>8>222>HI......",
"......bDABJh66|^7;8888;;7=......",
".......KGAyyhE6||^^^^^71L.......",
"........wGAykMcE66|^||^N........",
".........KDxBkMOchE66c].........",
"..........bPAAkooJJOQ+..........",
".............zwrrgR.............",
"................................",
"................................",
"................................",
"................................",
"................................"};
