/* XPM */
static char *bhidden[] = {
/* columns rows colors chars-per-pixel */
"32 32 18 1",
"  c #532a27",
". c #552c28",
"X c #592e2a",
"o c #5e312d",
"O c #61322e",
"+ c #653430",
"@ c #6c3733",
"# c #6d3834",
"$ c #723b36",
"% c #763d38",
"& c #783e39",
"* c #85453f",
"= c #874640",
"- c #884741",
"; c #8d4942",
": c #934c45",
"> c #974f48",
", c #9d524b",
/* pixels */
"%%%#%%%%&%%%%%%%%%%%%%%%%%%%%%%%",
"##%#$$###$###%##$$$##@####$$####",
",,,,,,,,,,,,,,,,,,,,,,,,,,,,,,,,",
"################################",
"+OOOOoooOOOOOOOOOOOoOOOoOOOOOOOo",
":::::::>:>>::>>:::>>::>>>>:>>::>",
":;;-;;;;;;;;;--;;;;-;;;-;;;;;--;",
";;;;;;;;;;;;;;;;;;;:;;;;;;;;;;;;",
";;;;;;;;;;;;;;;;;;;;;;;;;;;;;;;;",
";;;;;;;;::;;;;;;;;;;;;;;;;;;;;;;",
";;;;;;;;;;;;;;;;;;;;;;;;;;;:;;;;",
";;;;;;;;;;;;;;;;;;;;;;;;;;;;;;;;",
"::;;;;;;;;;;;;;;;;;;;;;;:;;;;;;;",
";;;;;;;;;;;:;;;;;;;;;;;;;;;;;;;;",
";;;;;;;:;;;;;;;;;;;;;;;;;;;;>;;;",
";;;;;;;;;;;;;;;;;;;;>;;;;;;;;;;;",
";;;;;;;;;;;;;;;;;;;;;;;;;;;;;;;:",
";;;;;;;;;;;;;;;;;;;;;;;;;;;;;;;;",
":;;:;:;;:;;;:>;;>;;:;:;;::;;;;;;",
"*--*;***--;******-----**-*;;**;;",
"%$#%$$$$%$$$%$$$%$$$$$$$$$$$$$$$",
"%%%%%%%%%%%%%%$%%%%%%$%%%%%%%%%%",
"+$$$$$$$##$#$$$$$$$$$$$#@#$#$$$%",
"OoooXoooooooXXoooXXooooooooooXoo",
"oooooooooooooooooooooooooooooooo",
"oooooooooooooooooooooooooooooooo",
"oooooooooooooooooooooooooooooooo",
"oooooooooooooooooooooooooooooooo",
".XXXXXXXXXXXXXXXXXXXXXXXXXXX.XXX",
"X.  .           ..  .           ",
"%%%&&&%%%&&%%&%%&&%%%&%%&&%%&%%&",
"$%%%$$%%$%%$$%%%$$%%$$%%$%%$%$$$"
};
