/* XPM */
static char * bred_xpm[] = {
"32 32 60 1",
" 	c None",
".	c #733C37",
"+	c #71352D",
"@	c #75180E",
"#	c #84150C",
"$	c #7A1D0F",
"%	c #671911",
"&	c #740A0A",
"*	c #840909",
"=	c #8E0708",
"-	c #9A0807",
";	c #A30607",
">	c #AB0606",
",	c #B40505",
"'	c #B10806",
")	c #96130B",
"!	c #692E27",
"~	c #630C0C",
"{	c #9E0707",
"]	c #BC0404",
"^	c #C30404",
"/	c #CC0303",
"(	c #8A1B0E",
"_	c #6F3732",
":	c #5B0C0C",
"<	c #6C0B0B",
"[	c #930808",
"}	c #D30202",
"|	c #530D0D",
"1	c #7C0A0A",
"2	c #950807",
"3	c #DB0101",
"4	c #E20101",
"5	c #4C0E0E",
"6	c #8B0908",
"7	c #EB0000",
"8	c #451912",
"9	c #3B0E0F",
"0	c #F90000",
"a	c #9C130B",
"b	c #36100F",
"c	c #440F0F",
"d	c #811C0F",
"e	c #3C1C13",
"f	c #340F0F",
"g	c #8B140C",
"h	c #2D0F0F",
"i	c #331B13",
"j	c #3A100F",
"k	c #231111",
"l	c #41100F",
"m	c #50100F",
"n	c #79140D",
"o	c #432215",
"p	c #1D1212",
"q	c #6E1911",
"r	c #2B1110",
"s	c #171012",
"t	c #3E2215",
"u	c #2A0F10",
"................................",
"................................",
"................................",
"................................",
"................................",
".............+@###$.............",
"...........%&*=-;>,')+..........",
".........!~&**-{>']^/^(.........",
"........_:<&*[{>'^^}}}})........",
"......._|:<1*2;>]^}34433(.......",
".......5|~&16->,^}377743^+......",
"......89|:&16->,^}4700733a......",
"......bc|~<*62>,^}470073^]+.....",
"......b5|~<162;>]/}4744}/^d.....",
".....efc|:<1*2;>]^}}33}/^,g.....",
".....eh95:<&*=2>,,^/}//^']g.....",
".....ihj5:~<16[{>',^^]],>>(.....",
".....ekblm:~&16[{;>>,>>>;{n.....",
".....ophj5|~<&16[2{;;;;-2[q.....",
"......prj95:~<11*6[222[==*......",
"......ikhjl5:~<&11***6*11q......",
".......pkbjl|::~<&111111&.......",
".......osrbjc5|:~<<<<<<~........",
"........iskbl9l5m||::::_........",
".........tpkrbjlc55|5|!.........",
"...........ikkuhf9998...........",
".............oet88..............",
"................................",
"................................",
"................................",
"................................",
"................................"};
