/* XPM */
static char * bwhite_xpm[] = {
"32 32 95 2",
"  	c None",
". 	c #733C37",
"+ 	c #684B3D",
"@ 	c #725F56",
"# 	c #7E6F68",
"$ 	c #86766E",
"% 	c #826F65",
"& 	c #795C4E",
"* 	c #673D2D",
"= 	c #65554D",
"- 	c #747474",
"; 	c #848484",
"> 	c #929393",
", 	c #9CA0A1",
"' 	c #A8A8A7",
") 	c #ADB0B1",
"! 	c #B4B4B3",
"~ 	c #ACACAC",
"{ 	c #97857C",
"] 	c #704A38",
"^ 	c #554036",
"/ 	c #626262",
"( 	c #817F7E",
"_ 	c #888787",
": 	c #BBBBBC",
"< 	c #C3C3C3",
"[ 	c #CCCCCD",
"} 	c #8B7063",
"| 	c #593F31",
"1 	c #5C5C5C",
"2 	c #6B6B6B",
"3 	c #787777",
"4 	c #8B8B8B",
"5 	c #9C9C9B",
"6 	c #A7A9A9",
"7 	c #C8C7C6",
"8 	c #D2D2D2",
"9 	c #D4D6D8",
"0 	c #59382D",
"a 	c #4D5052",
"b 	c #605F5E",
"c 	c #7C7C7C",
"d 	c #A4A3A3",
"e 	c #DBDBDB",
"f 	c #E4E4E4",
"g 	c #4A4645",
"h 	c #545454",
"i 	c #70706F",
"j 	c #7F8283",
"k 	c #ECECEC",
"l 	c #6F4937",
"m 	c #43352E",
"n 	c #989796",
"o 	c #B3B7B9",
"p 	c #FAFAFA",
"q 	c #D7DADB",
"r 	c #A08F87",
"s 	c #393837",
"t 	c #434343",
"u 	c #F4F4F4",
"v 	c #4F3026",
"w 	c #333333",
"x 	c #3D2C24",
"y 	c #88776F",
"z 	c #362821",
"A 	c #2C2F31",
"B 	c #4C4C4C",
"C 	c #585756",
"D 	c #676A6B",
"E 	c #8D7E76",
"F 	c #38251B",
"G 	c #2C2C2D",
"H 	c #3B3B3B",
"I 	c #A09F9E",
"J 	c #252829",
"K 	c #7B695F",
"L 	c #44281A",
"M 	c #1F2123",
"N 	c #302F2E",
"O 	c #201E1C",
"P 	c #504E4D",
"Q 	c #2E2019",
"R 	c #6C5C54",
"S 	c #6D3932",
"T 	c #1D1C1B",
"U 	c #252525",
"V 	c #3E2316",
"W 	c #171A1C",
"X 	c #36393B",
"Y 	c #604539",
"Z 	c #342117",
"` 	c #5B483E",
" .	c #33241C",
"..	c #4D3C34",
"+.	c #3B281F",
". . . . . . . . . . . . . . . . . . . . . . . . . . . . . . . . ",
". . . . . . . . . . . . . . . . . . . . . . . . . . . . . . . . ",
". . . . . . . . . . . . . . . . . . . . . . . . . . . . . . . . ",
". . . . . . . . . . . . . . . . . . . . . . . . . . . . . . . . ",
". . . . . . . . . . . . . . . . . . . . . . . . . . . . . . . . ",
". . . . . . . . . . . . . + @ # $ % & * . . . . . . . . . . . . ",
". . . . . . . . . . . = - ; > , ' ) ! ~ { ] . . . . . . . . . . ",
". . . . . . . . . ^ / - ( _ > , ' ! : < [ < } . . . . . . . . . ",
". . . . . . . . | 1 2 3 { 4 5 6 ! < 7 [ 8 9 8 { . . . . . . . . ",
". . . . . . . 0 a b 2 c _ > d ) : 7 8 e f e 9 e } . . . . . . . ",
". . . . . . . g h / i j 4 5 ' ! < 8 e k k k f e 7 l . . . . . . ",
". . . . . . m g h / i c 4 n ~ o < 8 f k p p f e q r . . . . . . ",
". . . . . . s t h / - c 4 n d o < 8 e k p u f q 8 : * . . . . . ",
". . . . . v w g h / 2 j 4 n ' ! : [ e f f f f e 7 : & . . . . . ",
". . . . . x w t h 1 2 3 _ > d ~ : 7 8 e e e 8 8 < : y . . . . . ",
". . . . . z A t B C D - j 4 5 d ~ : < 7 [ [ [ < ! o E . . . . . ",
". . . . . F G H g C 1 i c _ > I ' ~ o : < < : ! ~ 6 y . . . . . ",
". . . . . F J w t h 1 D - ; _ > I ' ~ ! ! ~ ~ ' d d K . . . . . ",
". . . . . L M N H g C / 2 - j _ > 5 I d d d d d n 4 = . . . . . ",
". . . . . . O G w t P h / 2 3 j ; _ > > > > > 4 _ { . . . . . . ",
". . . . . . Q M G H t B 1 / 2 - 3 ( j _ _ _ _ j j R . . . . . . ",
". . . . . . S T U w H g B h b / 2 - - c 3 c c - i . . . . . . . ",
". . . . . . . V W J w X t B h C b / 2 2 2 2 2 D Y . . . . . . . ",
". . . . . . . . Z W U N H H B B h h 1 1 1 1 1 ` . . . . . . . . ",
". . . . . . . . . V T M G w H t g B P B a B | . . . . . . . . . ",
". . . . . . . . . . S  .U U G w X H H t ... . . . . . . . . . . ",
". . . . . . . . . . . . . L +.+.x x L . . . . . . . . . . . . . ",
". . . . . . . . . . . . . . . . . . . . . . . . . . . . . . . . ",
". . . . . . . . . . . . . . . . . . . . . . . . . . . . . . . . ",
". . . . . . . . . . . . . . . . . . . . . . . . . . . . . . . . ",
". . . . . . . . . . . . . . . . . . . . . . . . . . . . . . . . ",
". . . . . . . . . . . . . . . . . . . . . . . . . . . . . . . . "};
