/* XPM */
static char * byellow_xpm[] = {
"32 32 71 1",
" 	c None",
".	c #733C37",
"+	c #6C4A12",
"@	c #71620E",
"#	c #78770A",
"$	c #86740D",
"%	c #785E0F",
"&	c #65550F",
"*	c #838309",
"=	c #909207",
"-	c #A09E07",
";	c #A3A207",
">	c #AEB005",
",	c #B3B405",
"'	c #9A860B",
")	c #5C4412",
"!	c #62620C",
"~	c #74740A",
"{	c #7C7C0A",
"]	c #8A8B08",
"^	c #ACAC06",
"/	c #BBBB04",
"(	c #C3C304",
"_	c #CCCC03",
":	c #896E0F",
"<	c #633E23",
"[	c #5C5C0C",
"}	c #6C6C0B",
"|	c #9B9B07",
"1	c #D3D402",
"2	c #54540D",
"3	c #605E0C",
"4	c #989808",
"5	c #C8C704",
"6	c #DBDB01",
"7	c #8A740D",
"8	c #48470F",
"9	c #7F8209",
"0	c #EBEB00",
"a	c #E4E401",
"b	c #443312",
"c	c #939208",
"d	c #F2F200",
"e	c #F9F900",
"f	c #A0900A",
"g	c #353410",
"h	c #68372D",
"i	c #34350F",
"j	c #44440F",
"k	c #7D6010",
"l	c #3D2B13",
"m	c #2F320F",
"n	c #403F0F",
"o	c #4C4C0E",
"p	c #676C0B",
"q	c #A6A906",
"r	c #342413",
"s	c #302F10",
"t	c #3B3C0F",
"u	c #242511",
"v	c #7C6B0D",
"w	c #432615",
"x	c #6E5211",
"y	c #1D1C13",
"z	c #2B2B10",
"A	c #201E12",
"B	c #504F0E",
"C	c #6D5E0F",
"D	c #4E510D",
"E	c #3C2414",
"F	c #6D3C32",
"................................",
"................................",
"................................",
"................................",
"................................",
".............+@#$$%.............",
"...........&#*=-;>,,'+..........",
".........)!~{]=-^,/(_(:.........",
"........<[}#$=|^,(__111'........",
"........23}#]4;>/51666667.......",
".......82!~9]|;,(_6000a65+......",
"......b823~{]c^/(1adee061f......",
"......g82!}{]4^,(160eea61/......",
".....hij2!~{]4;,/_1a0aa15/k.....",
".....lij2[}#]c-^/511661_(/7.....",
".....lmno2p~{=|q,/(__1_//,].....",
".....rst82!}9]=;q>,//(/,^q$.....",
".....rugj2[p~{]=|;^,,,^^;-v.....",
".....wust82[p~9]c|-;;--44=x.....",
"......yzijo2!~#$*]cc4=4=**......",
"......AyztjB[[}~#$***]**{C......",
".......AugtjD2!!~~~##{{~~.......",
".......Eyuitjo2[3!}}~p}p+.......",
"........ryusinjDD2[[[[[)........",
".........Eyuzitnj8ooo2..........",
"..........hruuzmtttjF...........",
".............wwllbh.............",
"................................",
"................................",
"................................",
"................................",
"................................"};
