/* XPM */
static char *test[] = {
/* columns rows colors chars-per-pixel */
"40 32 22 1",
"  c #472422",
". c #4c2724",
"X c #4f2825",
"o c #512a26",
"O c #562c29",
"+ c #5a2e2b",
"@ c #5e302c",
"# c #62322e",
"$ c #663530",
"% c #693732",
"& c #6e3934",
"* c #733b36",
"= c #763d38",
"- c #793e39",
"; c #7c413b",
": c #83443e",
"> c #864640",
", c #894741",
"< c #8c4942",
"1 c #924c45",
"2 c #9a4f48",
"3 c #9a5049",
/* pixels */
"***&*********&=**=**==****&****&&**%%&**",
"*&:<,<<<<<<<1<:11:<1:11<1:11:11:1<<11<=*",
"=#&:>=*-:;;-;-==-;-==--=;-:-*:;;;;;;:1<*",
"=##*&O+OooO@@++OOoo@OOO+#O+OO+O+o+@.O><*",
"=++:-#&*&%#%#%&%&&*%%$##&#&&%*#%#&;O@><&",
":##<1=*<21:;===;:22:----;------=*;;%@><*",
"=+#,<=+#-:11-==;::11*****&**&&**&=*OO><*",
"*+#,<=+#*&*:1<<=#*::%***=*&****-;=*@@><%",
"-+#,>=o%1;.O=:=& @,<*&=**-*&**#-**=#+><*",
":+#<,=o$>=%@+##=X@1<&&;;******&;=;=O@>,%",
"=+#<<=o#,1===&*=@#<:#*&&=**=*;*#%==#@:<&",
"=+#<,=o#<:&*==*=@#<:&;;;#;&**&-;==;%@:<%",
":+@,<=O$,:&&***=O#<,$;:<:;*%&*:1<>%@+><%",
"=O#,>:+$<<%=;&*=O@1<##;:1<::-:::2<%@@;1;",
"=+$::=o#,;**=&=;@@<<oO;;$-<1:-##;1=#@:<%",
"-@#<,=+#<1=&*&*;O#11o@::o@#;:&.@>1=@#,<%",
"=O#<,=X@1<%%**==O#<<OO>1*%+@%#@@>1&+#,<&",
"=O$<,=X$,:=&==*=@O<1oO><*;&%*;#@;1&#+:<&",
";@$,,=O$;=******@@::#@>1%&;**;#@>1*#@:<=",
"*O$<,&%*****&****%;;@@>1%**&==#@:1*#@,<%",
"=o@<,%*;***==*=&;**;@@:<&==&**@@>1%@+,1%",
";@$<,*&**=*=**=*&&=*@O:1&&**=;@+:2&++><&",
";+#<,&==&******=*&;;#@:1&**&*=#@:1*+#,<%",
";@$,,&&***=*&==****;@O:1%*=*=;@@,1&+#:<&",
"*+$,,=&**=*******&==@@,<&***==#@>1&@+><&",
"*+$,,&*;=*===**==***#$;-*==*==%#&>-#+><%",
";@$,;#%&%$&&&*$%*&&*$%&%%*%***%#$*=O+,,%",
";+$1,&>>-:,-;:==-:;:;:;-;:-;--;:-->##,<&",
";@@,2,<31<1<<<<<<,<<:2<<<<1<<<<<<11-*<<*",
"-@O$&*&&&%&&=*&*=***&&&&&&**=***&*=%#-,&",
"*%@OOO+OO++O++o+OO+O++++O+O+@o.+@OOO@%*&",
"*=---=====*==*========*====**;==--**==**"
};
