/* XPM */
static char * sblack_xpm[] = {
"16 16 26 1",
" 	c None",
".	c #733C37",
"+	c #3C2D27",
"@	c #333333",
"#	c #3B3B3B",
"$	c #434444",
"%	c #454849",
"&	c #50423B",
"*	c #2E2926",
"=	c #2C3032",
"-	c #4C4C4C",
";	c #535454",
">	c #514B48",
",	c #34261F",
"'	c #25282A",
")	c #585858",
"!	c #535658",
"~	c #1E2021",
"{	c #49281A",
"]	c #302B29",
"^	c #462617",
"/	c #1A1B1B",
"(	c #2A2A2B",
"_	c #2B1D16",
":	c #17191B",
"<	c #232222",
"................",
"................",
"................",
".....+@#$%&.....",
"....*=#$%-;>....",
"...,'@#$-))!&...",
"...~*@#$-));-...",
"..{~']##%-;-%...",
"..^/'(@#$$%$$...",
".../_'@@###$#...",
"..._:<'=@@@@+...",
"..../:_'*((]....",
"....._//~<*.....",
".......^{.......",
"................",
"................"};
