/* XPM */
static char * sempty_xpm[] = {
"16 16 4 1",
" 	c #75753D3D3838",
".	c #474725252222",
"X	c #000000000000",
"o	c #A8A858585050",
"                ",
"                ",
"                ",
"                ",
"                ",
"       ...      ",
"       XX..     ",
"     oXXXX.     ",
"     oXXXX.     ",
"     ooXX       ",
"      oo        ",
"                ",
"                ",
"                ",
"                ",
"                "};
