/* XPM */
static char * swhite_xpm[] = {
"16 16 49 1",
" 	c None",
".	c #733C37",
"+	c #703B34",
"@	c #6D4D3D",
"#	c #69422E",
"$	c #655750",
"%	c #7E7E7E",
"&	c #9A9A9B",
"*	c #AEB0B1",
"=	c #B4B4B4",
"-	c #A3958E",
";	c #6E3C31",
">	c #565453",
",	c #737778",
"'	c #8D8C8C",
")	c #A6A5A5",
"!	c #BBBCBC",
"~	c #D3D3D3",
"{	c #E3E4E4",
"]	c #C4BFBE",
"^	c #493C36",
"/	c #5A5B5B",
"(	c #787676",
"_	c #939292",
":	c #CBCBCB",
"<	c #F2F1F1",
"[	c #E9ECEE",
"}	c #A99A94",
"|	c #ACADAD",
"1	c #C3C3C3",
"2	c #68372F",
"3	c #37393A",
"4	c #6B6B6B",
"5	c #725243",
"6	c #2D3031",
"7	c #4D4D4C",
"8	c #646565",
"9	c #272625",
"0	c #454444",
"a	c #2F211B",
"b	c #2A2B2C",
"c	c #818080",
"d	c #7F8384",
"e	c #6E5F58",
"f	c #2B2F30",
"g	c #615D5B",
"h	c #30221B",
"i	c #343637",
"j	c #51433B",
"................",
"................",
"......+@@#......",
".....$%&*=-;....",
"....>,')!~{];...",
"...^/(_*:{<[}...",
"...^/(_|:{<{1#..",
"..23/4')!:~:!5..",
"..2678%_)=!*)@..",
"...90>4%_&&&';..",
"...ab0>4(%cde...",
"...2af0>/88g....",
".....hbi00j.....",
".......22.......",
"................",
"................"};
