/* XPM */
static char * bg_board_xpm[] = {
"20 20 132 2",
"  	c None",
". 	c #41A200",
"+ 	c #278800",
"@ 	c #59BA18",
"# 	c #49AA08",
"$ 	c #3E9F00",
"% 	c #005C00",
"& 	c #58B917",
"* 	c #67C826",
"= 	c #4BAC0A",
"- 	c #2A8B00",
"; 	c #66C725",
"> 	c #127300",
", 	c #7BDC3A",
"' 	c #43A402",
") 	c #349500",
"! 	c #3A9B00",
"~ 	c #2B8C00",
"{ 	c #218200",
"] 	c #288900",
"^ 	c #40A100",
"/ 	c #5BBC1B",
"( 	c #62C323",
"_ 	c #268701",
": 	c #48A907",
"< 	c #359600",
"[ 	c #47A80A",
"} 	c #44A503",
"| 	c #77D836",
"1 	c #69CA28",
"2 	c #268700",
"3 	c #4AAB09",
"4 	c #319200",
"5 	c #228300",
"6 	c #48A909",
"7 	c #53B412",
"8 	c #47A806",
"9 	c #3D9E00",
"0 	c #50B112",
"a 	c #3D9E02",
"b 	c #46A705",
"c 	c #64C523",
"d 	c #58B919",
"e 	c #56B718",
"f 	c #4CAD0B",
"g 	c #44A50A",
"h 	c #3D9E03",
"i 	c #42A30B",
"j 	c #218207",
"k 	c #2E8F04",
"l 	c #70D12F",
"m 	c #167700",
"n 	c #399A00",
"o 	c #54B513",
"p 	c #2D8E00",
"q 	c #3FA009",
"r 	c #51B210",
"s 	c #53B416",
"t 	c #298A00",
"u 	c #5CBD1B",
"v 	c #379800",
"w 	c #1A7B00",
"x 	c #4DAE12",
"y 	c #4EAF0D",
"z 	c #5FC01E",
"A 	c #0B6C00",
"B 	c #4DAE0E",
"C 	c #248500",
"D 	c #3FA002",
"E 	c #3FA003",
"F 	c #65C624",
"G 	c #349505",
"H 	c #57B816",
"I 	c #379805",
"J 	c #56B715",
"K 	c #54B515",
"L 	c #59BA22",
"M 	c #4BAC0C",
"N 	c #52B313",
"O 	c #40A103",
"P 	c #4DAE0C",
"Q 	c #68C927",
"R 	c #197A01",
"S 	c #49AA0B",
"T 	c #2E8F00",
"U 	c #48A90C",
"V 	c #3B9C09",
"W 	c #1E7F00",
"X 	c #48A90D",
"Y 	c #1C7D04",
"Z 	c #177800",
"` 	c #1C7D00",
" .	c #54B516",
"..	c #55B614",
"+.	c #309100",
"@.	c #49AA0A",
"#.	c #3B9C06",
"$.	c #5ABB1B",
"%.	c #50B10F",
"&.	c #52B311",
"*.	c #40A108",
"=.	c #4AAB0E",
"-.	c #389901",
";.	c #319201",
">.	c #218202",
",.	c #57B81A",
"'.	c #3FA001",
").	c #45A605",
"!.	c #107100",
"~.	c #45A604",
"{.	c #46A707",
"].	c #47A814",
"^.	c #2D8E03",
"/.	c #3B9C00",
"(.	c #379804",
"_.	c #43A407",
":.	c #4FB00F",
"<.	c #3E9F06",
"[.	c #6DCE2C",
"}.	c #5EBF1D",
"|.	c #49AA09",
"1.	c #61C220",
"2.	c #076800",
"3.	c #30910D",
"4.	c #319206",
"5.	c #6FD02E",
"6.	c #208100",
"7.	c #369700",
"8.	c #7FE03E",
"9.	c #197A00",
"0.	c #238400",
"a.	c #2F9000",
". + @ # $ . % & * = - ; > , ' ) ! ~ - { ",
"$ ] ^ / ( _ : < [ } | 1 2 3 4 5 6 7 8 + ",
"9 } 0 ^ a b c d e . f g h i j k l } = ^ ",
"m n o { p q r s t u v w x 4 y 3 z A B C ",
"} D E F # G H I - J 3 K E L z M N O P 8 ",
"Q R S T U V W X Y . Z ` b  ...+.@.#.$.%.",
". 5 &.*.o & =.-.;.+ . >.p $ ,.'.).!.C . ",
"~.{.].8 X ^./.t W n 1 ) (./._.f :.<.T [.",
"}.` & |.! p p C 1.2.T # W 7 4 3 Z 3.4.) ",
"5.# !.] . r 6.3 Z = ' 7.v 8.9.p 7 0.a.& ",
"- ; > , ' ) ! ~ - { . + @ # $ . % & * = ",
"| 1 2 3 4 5 6 7 8 + $ ] ^ / ( _ : < [ } ",
"f g h i j k l } = ^ 9 } 0 ^ a b c d e . ",
"v w x 4 y 3 z A B C m n o { p q r s t u ",
"3 K E L z M N O P 8 } D E F # G H I - J ",
"Z ` b  ...+.@.#.$.%.Q R S T U V W X Y . ",
". >.p $ ,.'.).!.C . . 5 &.*.o & =.-.;.+ ",
"1 ) (./._.f :.<.T [.~.{.].8 X ^./.t W n ",
"T # W 7 4 3 Z 3.4.) }.` & |.! p p C 1.2.",
"' 7.v 8.9.p 7 0.a.& 5.# !.] . r 6.3 Z = "};
