/* XPM */
static char * hole_xpm[] = {
"20 20 12 1",
" 	c None",
".	c #090500",
"+	c #150B00",
"@	c #040200",
"#	c #1B0E00",
"$	c #331B00",
"%	c #412200",
"&	c #000000",
"*	c #2A1600",
"=	c #462500",
"-	c #4C2900",
";	c #4D2900",
"                    ",
"                    ",
"                    ",
"        .++.        ",
"      @#$%%$#@      ",
"     &*=-;;-=*&     ",
"    @*;;;;;;;;*@    ",
"    #=;;;;;;;;=#    ",
"   .$-;;;;;;;;-$.   ",
"   +%;;;;;;;;;;%+   ",
"   +%;;;;;;;;;;%+   ",
"   .$-;;;;;;;;-$.   ",
"    #=;;;;;;;;=#    ",
"    @*;;;;;;;;*@    ",
"     &*=-;;-=*&     ",
"      @#$%%$#@      ",
"        .++.        ",
"                    ",
"                    ",
"                    "};
