/* XPM */
static char * hole_xpm[] = {
"20 20 136 2",
"  	c None",
". 	c #739EDA",
"+ 	c #7197CB",
"@ 	c #6485B4",
"# 	c #6986AE",
"$ 	c #6483AC",
"% 	c #637EA4",
"& 	c #5A769D",
"* 	c #54729B",
"= 	c #516E94",
"- 	c #4E698F",
"; 	c #4E6C95",
"> 	c #6D95CB",
", 	c #5A687C",
"' 	c #595E66",
") 	c #606770",
"! 	c #666C75",
"~ 	c #4E5661",
"{ 	c #454D59",
"] 	c #3A4350",
"^ 	c #323C49",
"/ 	c #2B3442",
"( 	c #222D3D",
"_ 	c #1E2836",
": 	c #3A5374",
"< 	c #6C97D1",
"[ 	c #7591B7",
"} 	c #6D7D91",
"| 	c #808C9C",
"1 	c #8793A3",
"2 	c #8894A4",
"3 	c #798698",
"4 	c #62738A",
"5 	c #4E617B",
"6 	c #475A76",
"7 	c #405571",
"8 	c #394F6C",
"9 	c #6689BA",
"0 	c #7694BD",
"a 	c #99A5B6",
"b 	c #B5C0CF",
"c 	c #B9C3D2",
"d 	c #B4BFCE",
"e 	c #ADB9CB",
"f 	c #A4B5CC",
"g 	c #8CA0BA",
"h 	c #859DBF",
"i 	c #718AAC",
"j 	c #5C789E",
"k 	c #5C7AA3",
"l 	c #698EC2",
"m 	c #7395C3",
"n 	c #8C9AAB",
"o 	c #C3CBD7",
"p 	c #E4E8EF",
"q 	c #D8DFE8",
"r 	c #D2DAE6",
"s 	c #C5D0DF",
"t 	c #B1C1D6",
"u 	c #91A8C7",
"v 	c #6C8AB4",
"w 	c #5E7FAB",
"x 	c #6C91C5",
"y 	c #929FAF",
"z 	c #CED7E4",
"A 	c #EEF0F4",
"B 	c #E9EDF2",
"C 	c #DEE4EC",
"D 	c #94ACCD",
"E 	c #839EC3",
"F 	c #BEC8D5",
"G 	c #E0E6ED",
"H 	c #BECBDD",
"I 	c #B5C5D9",
"J 	c #AABBD4",
"K 	c #9AAFCD",
"L 	c #8EA7C7",
"M 	c #6C8EBC",
"N 	c #6587B8",
"O 	c #7A99C5",
"P 	c #749CD4",
"Q 	c #B1CAEC",
"R 	c #A1B6D2",
"S 	c #9CB2D1",
"T 	c #8AA6CD",
"U 	c #84A2CC",
"V 	c #678DC1",
"W 	c #6F99D2",
"X 	c #9CACC2",
"Y 	c #A6B9D3",
"Z 	c #95AED0",
"` 	c #8CA9CF",
" .	c #7B9DCB",
"..	c #799ED2",
"+.	c #73859E",
"@.	c #83A3D0",
"#.	c #7499CC",
"$.	c #6F90BE",
"%.	c #697D98",
"&.	c #7E94B2",
"*.	c #8FABD2",
"=.	c #7CA1D3",
"-.	c #6F9BD8",
";.	c #75A1DC",
">.	c #7BA4DC",
",.	c #6789B7",
"'.	c #546C8D",
").	c #77A0D7",
"!.	c #74A2E2",
"~.	c #7BA7E3",
"{.	c #7EA9E4",
"].	c #75A6EA",
"^.	c #7CABEC",
"/.	c #81AEEB",
"(.	c #4B6589",
"_.	c #81B0EE",
":.	c #83B2F3",
"<.	c #80ACE7",
"[.	c #8EBBFA",
"}.	c #5F81B1",
"|.	c #95B3DB",
"1.	c #98B7E1",
"2.	c #9ABAE5",
"3.	c #9BBCEA",
"4.	c #A0C4F0",
"5.	c #A1C6F9",
"6.	c #A4C9FD",
"7.	c #A9CFFE",
"8.	c #97B1D5",
"9.	c #AEC5E6",
"0.	c #B5D0F5",
"a.	c #B6D2F8",
"b.	c #B8D5FC",
"c.	c #BCDAFE",
"d.	c #82A7DA",
"e.	c #83A8DD",
". + @ # @ # # # $ % & & * = = - - ; > . ",
"+ , ' ) ! ! ! ) ' ~ { ] ^ / ( _ _ ( : < ",
"[ ! } | 1 2 2 | 3 } 4 , 5 6 7 8 : : : 9 ",
"0 3 a b c d e f a g h i % j & = ; ; k l ",
"m n o p p q r s t f u h [ v $ $ w $ w x ",
"m y z A B C r s t f D E [ v @ w w @ $ x ",
"m y F G G z H I J K L E 0 M 9 @ N 9 9 x ",
"m y d r r H t J f K L E O m l 9 9 M M P ",
"m n e s Q t J R S D T U O m l V V l x W ",
"x 1 X I I Y f S Z ` U U  .+ > l x + + ..",
"x +.g R Y f K Z ` T @. .#.+ > > < < P P ",
"$.%.&.u Z D ` *.*.@.U ..#.P < < W ..... ",
"M 4 v U U U U @.@.U =.#...P -.-.. ;.>...",
",.'.$ 0 O  . .U =.).).;.;.. !.-.!.~.{.;.",
",.- $ v #.O #.#...P . ;.. !.!.!.].^./.;.",
"@ (.k M l > P P . . . !.!.].].].^._.:.!.",
"9 ; w > #...).=.>.<.<.<.<./.:.:.:.[.[.>.",
"l }.#.*.|.|.1.2.3.3.3.4.5.5.5.6.7.7.7.>.",
"W #.8.9.9.9.Q Q Q 0.0.a.a.b.b.c.c.c.4.. ",
". ..=.d.d.d.d.e.e.e.e.e.e.e.e.e.e.d...P "};
