/* XPM */
static char * peg_xpm[] = {
"20 20 41 1",
" 	c None",
".	c #3B3B3B",
"+	c #391C00",
"@	c #73391C",
"#	c #805726",
"$	c #909056",
"%	c #995B1E",
"&	c #595959",
"*	c #582C00",
"=	c #B1582C",
"-	c #BF8238",
";	c #997A3D",
">	c #90731C",
",	c #765E2F",
"'	c #99993D",
")	c #BFBF72",
"!	c #F39130",
"~	c #777777",
"{	c #663300",
"]	c #CC6633",
"^	c #FFAE4C",
"/	c #F3C261",
"(	c #BF9826",
"_	c #D3D354",
":	c #FFFF99",
"<	c #FF9933",
"[	c #FFCC66",
"}	c #FFCC33",
"|	c #D3A854",
"1	c #906D2F",
"2	c #BF984C",
"3	c #FFFF66",
"4	c #90622B",
"5	c #997332",
"6	c #99682D",
"7	c #806633",
"8	c #BF8F3E",
"9	c #80602A",
"0	c #907339",
"a	c #DEA749",
"b	c #DE9742",
"                    ",
"                    ",
"        .+@#        ",
"      $%&*=-;>      ",
"    ,')!~{]^/(;,    ",
"    ;_:<~{]^[}|;    ",
"   123:<~{]^[}[24   ",
"   5/3:<~{]^[}[/6   ",
"  78[3:<~{]^[}[[-9  ",
"  0a[3:<~{]^[}[[b1  ",
"  0a[3:<~{]^[}[[b1  ",
"  78[3:<~{]^[}[[-9  ",
"   5/3:<~{]^[}[/6   ",
"   123:<~{]^[}[24   ",
"    ;_:<~{]^[}|;    ",
"    ,')!~{]^/(;,    ",
"      $%&*=-;>      ",
"        .+@#        ",
"                    ",
"                    "};
