/* XPM */
static char * peg_sel_xpm[] = {
"30 30 60 1",
" 	c None",
".	c #373737",
"+	c #371B00",
"@	c #763B1D",
"#	c #93642C",
"$	c #896E37",
"%	c #765F17",
"&	c #6F6F2C",
"*	c #939358",
"=	c #995B1E",
"-	c #565656",
";	c #542A00",
">	c #BA5D2E",
",	c #E99E45",
"'	c #D4A954",
")	c #B99425",
"!	c #997A3D",
"~	c #93763B",
"{	c #6F4B21",
"]	c #9F9F3F",
"^	c #CDCD7B",
"/	c #F79431",
"(	c #777777",
"_	c #663300",
":	c #CC6633",
"<	c #FFAE4C",
"[	c #FFCC66",
"}	c #FFCC33",
"|	c #F7C562",
"1	c #CDA452",
"2	c #9F6C2F",
"3	c #936F30",
"4	c #765F2F",
"5	c #997332",
"6	c #C0994C",
"7	c #F7F762",
"8	c #FFFF99",
"9	c #FF9933",
"0	c #F7A849",
"a	c #C0903F",
"b	c #764717",
"c	c #765F47",
"d	c #D49F45",
"e	c #FFFF66",
"f	c #FFC054",
"g	c #997A5B",
"h	c #D47F2A",
"i	c #C09973",
"j	c #6F5324",
"k	c #F7C594",
"l	c #9F7F3F",
"m	c #CD8B3D",
"n	c #FFCC99",
"o	c #99682D",
"p	c #765927",
"q	c #B98B3C",
"r	c #B97E37",
"s	c #89672D",
"t	c #D4903F",
"u	c #E9AF4C",
"                              ",
"                              ",
"            .+@#$%            ",
"         &*=-;>,')!~{         ",
"        ~]^/(_:<[}|123        ",
"      456789(_:<[}[[0a5b      ",
"     c!d[e89(_:<[}[[<fd=4     ",
"     g'f[e89(_:<[}[[<ffh!     ",
"    #i[f[e89(_:<[}[[<ff96~    ",
"   j2k[f[e89(_:<[}[[<ff9|l{   ",
"   3mn[f[e89(_:<[}[[<ff9[1#   ",
"   50n[f[e89(_:<[}[[<ff9[|o   ",
"  pq<n[f[e89(_:<[}[[<ff9[[r4  ",
"  sd<n[f[e89(_:<[}[[<ff9[[t$  ",
"  3u<n[f[e89(_:<[}[[<ff9[[,~  ",
"  3u<n[f[e89(_:<[}[[<ff9[[,~  ",
"  sd<n[f[e89(_:<[}[[<ff9[[t$  ",
"  pq<n[f[e89(_:<[}[[<ff9[[r4  ",
"   50n[f[e89(_:<[}[[<ff9[|o   ",
"   3mn[f[e89(_:<[}[[<ff9[1#   ",
"   j2k[f[e89(_:<[}[[<ff9|l{   ",
"    #i[f[e89(_:<[}[[<ff96~    ",
"     g'f[e89(_:<[}[[<ffh!     ",
"     c!d[e89(_:<[}[[<fd=4     ",
"      456789(_:<[}[[0a5b      ",
"        ~]^/(_:<[}|123        ",
"         &*=-;>,')!~{         ",
"            .+@#$%            ",
"                              ",
"                              "};
