/* XPM */
static char * gpe_minicalc_xpm[] = {
"16 16 128 2",
"  	c None",
". 	c #5E5E5E",
"+ 	c #BCBCBC",
"@ 	c #B3B3B3",
"# 	c #9B9B9B",
"$ 	c #ADADAD",
"% 	c #1C1D1D",
"& 	c #686865",
"* 	c #777873",
"= 	c #696D67",
"- 	c #686B65",
"; 	c #686C66",
"> 	c #686C65",
", 	c #73756F",
"' 	c #777772",
") 	c #2E2E2E",
"! 	c #787873",
"~ 	c #81867B",
"{ 	c #6B7B6B",
"] 	c #5B695B",
"^ 	c #606E60",
"/ 	c #5A685A",
"( 	c #737D70",
"_ 	c #8C8C84",
": 	c #343434",
"< 	c #62625E",
"[ 	c #888880",
"} 	c #73736D",
"| 	c #333333",
"1 	c #262626",
"2 	c #242424",
"3 	c #303030",
"4 	c #232324",
"5 	c #757879",
"6 	c #555858",
"7 	c #515354",
"8 	c #505253",
"9 	c #4F5152",
"0 	c #4E5051",
"a 	c #4E4F50",
"b 	c #4D4E4F",
"c 	c #4C4C4E",
"d 	c #4B4B4D",
"e 	c #565557",
"f 	c #2E2E2F",
"g 	c #606364",
"h 	c #5C5C5C",
"i 	c #373737",
"j 	c #4C4D4D",
"k 	c #5F5F5F",
"l 	c #3F4040",
"m 	c #424242",
"n 	c #4F4F4F",
"o 	c #343436",
"p 	c #767676",
"q 	c #4C4B4C",
"r 	c #373638",
"s 	c #5F6263",
"t 	c #434343",
"u 	c #272728",
"v 	c #474849",
"w 	c #656565",
"x 	c #3D3E3E",
"y 	c #353535",
"z 	c #373738",
"A 	c #666666",
"B 	c #3F3F3F",
"C 	c #373637",
"D 	c #696C6D",
"E 	c #565757",
"F 	c #515253",
"G 	c #555556",
"H 	c #4A4A4C",
"I 	c #4A4A4B",
"J 	c #4F4F50",
"K 	c #525254",
"L 	c #454446",
"M 	c #4A484B",
"N 	c #2C2A2C",
"O 	c #555758",
"P 	c #7E7E7E",
"Q 	c #515252",
"R 	c #7B7B7B",
"S 	c #3E3E3F",
"T 	c #525252",
"U 	c #757575",
"V 	c #2B2A2B",
"W 	c #9E9E9E",
"X 	c #5B5B5B",
"Y 	c #707274",
"Z 	c #2C2C2D",
"` 	c #373839",
" .	c #494A4C",
"..	c #2B2B2C",
"+.	c #444446",
"@.	c #2A2A2A",
"#.	c #AEAEAE",
"$.	c #5A5A5A",
"%.	c #373537",
"&.	c #545556",
"*.	c #464647",
"=.	c #797979",
"-.	c #3E3E3E",
";.	c #505050",
">.	c #272627",
",.	c #8F8F8F",
"'.	c #363436",
").	c #444444",
"!.	c #3B3A3B",
"~.	c #454547",
"{.	c #434344",
"].	c #393839",
"^.	c #434243",
"/.	c #4B494C",
"(.	c #444244",
"_.	c #484548",
":.	c #2B292B",
"<.	c #191A1A",
"[.	c #19191A",
"}.	c #181819",
"|.	c #171717",
"1.	c #171718",
"2.	c #181718",
"3.	c #171617",
"4.	c #161516",
"5.	c #161416",
"6.	c #151415",
"7.	c #090A0A",
"                                ",
"    . + @ # # # # # # $ # %     ",
"    & * = = = = - ; > , ' )     ",
"    ! ~ { { { { ] ^ / ( _ :     ",
"    < [ _ _ _ _ _ _ _ _ } |     ",
"    : 1 2 2 2 2 2 2 2 2 3 4     ",
"    5 6 7 8 9 0 a b c d e f     ",
"    g h i j k l m n o p q r     ",
"    s t u v w x i y z A B C     ",
"    D E v F G H I J K L M N     ",
"    O P 3 Q R S T U V W X C     ",
"    Y Z `  ...+.o @.r #.$.%.    ",
"    &.R i *.=.-.;.=.>.,.T '.    ",
"    7 ).!.~.{.L ].^./.(._.:.    ",
"    <.[.}.}.|.1.2.3.4.5.6.7.    ",
"                                "};
